%
M48
M72
T01C0.01575
T02C0.01969
T03C0.02362
T04C0.03150
T05C0.03937
T06C0.04882
T07C0.05079
T08C0.05157
T09C0.05512
T10C0.06693
%
T01
X231662Y290258
X221820Y281203
X199773Y294983
X191111Y287502
X182844Y294983
X166702Y282778
X166702Y278447
X161977Y278447
X161977Y282778
X154103Y274904
X152135Y281991
X132450Y290652
X121820Y206794
X133237Y197345
X156859Y182778
X156859Y178447
X156859Y169786
X167489Y163880
X170639Y150495
X179300Y150495
X189930Y143014
X193867Y143014
X197804Y143014
X201741Y143014
X205678Y143014
X209615Y143014
X217489Y143014
X217883Y136321
X120245Y164274
X140324Y151282
X161190Y150495
X167096Y135534
X187962Y135928
X203710Y157187
X213552Y156400
X224182Y257187
X219851Y257187
X215521Y239077
X211584Y227266
X217096Y215061
X192686Y205219
X195442Y226085
X195048Y238290
X187174Y258369
X201348Y264274
X183631Y238290
X179694Y238290
X168277Y246558
X163946Y254825
X163552Y230809
X163552Y202463
X160796Y186715
X179300Y173329
X183237Y173329
X185993Y168211
X187174Y173329
X201111Y168172
X235206Y159353
X235206Y152463
X237568Y254825
X138355Y238684
X134812Y238684
X131269Y238684
X127725Y238684
X124182Y238684
X120639Y238684
X117096Y238684
X117096Y230809
X120639Y230809
X124182Y230809
X127725Y230809
X131269Y230809
X134812Y230809
X138355Y230809
T02
X130678Y150593
X131466Y277758
X131466Y272837
X130678Y155514
X130678Y145672
X130678Y140750
X193277Y274412
X193277Y279333
T03
X148198Y295376
X164340Y264668
X204891Y178447
X232844Y272148
T04
X162174Y168605
T05
X129497Y204038
T06
X200836Y202542
T07
X174458Y245219
T08
X204458Y240967
T09
X203198Y207660
T10
X162922Y217896
M30
