G75*
%MOIN*%
%OFA0B0*%
%FSLAX25Y25*%
%IPPOS*%
%LPD*%
%AMOC8*
5,1,8,0,0,1.08239X$1,22.5*
%
%ADD10C,0.00000*%
%ADD11C,0.00700*%
%ADD12C,0.00800*%
%ADD13C,0.00600*%
%ADD14C,0.00300*%
D10*
X0114340Y0151282D02*
X0114340Y0280022D01*
X0114346Y0280498D01*
X0114363Y0280973D01*
X0114392Y0281448D01*
X0114432Y0281922D01*
X0114484Y0282395D01*
X0114547Y0282866D01*
X0114621Y0283336D01*
X0114707Y0283804D01*
X0114804Y0284270D01*
X0114912Y0284733D01*
X0115031Y0285193D01*
X0115162Y0285651D01*
X0115303Y0286105D01*
X0115456Y0286556D01*
X0115619Y0287002D01*
X0115793Y0287445D01*
X0115978Y0287883D01*
X0116173Y0288317D01*
X0116379Y0288746D01*
X0116595Y0289170D01*
X0116821Y0289589D01*
X0117057Y0290002D01*
X0117303Y0290409D01*
X0117559Y0290810D01*
X0117825Y0291204D01*
X0118100Y0291593D01*
X0118384Y0291974D01*
X0118677Y0292348D01*
X0118979Y0292716D01*
X0119291Y0293076D01*
X0119610Y0293428D01*
X0119938Y0293772D01*
X0120275Y0294109D01*
X0120619Y0294437D01*
X0120971Y0294756D01*
X0121331Y0295068D01*
X0121699Y0295370D01*
X0122073Y0295663D01*
X0122454Y0295947D01*
X0122843Y0296222D01*
X0123237Y0296488D01*
X0123638Y0296744D01*
X0124045Y0296990D01*
X0124458Y0297226D01*
X0124877Y0297452D01*
X0125301Y0297668D01*
X0125730Y0297874D01*
X0126164Y0298069D01*
X0126602Y0298254D01*
X0127045Y0298428D01*
X0127491Y0298591D01*
X0127942Y0298744D01*
X0128396Y0298885D01*
X0128854Y0299016D01*
X0129314Y0299135D01*
X0129777Y0299243D01*
X0130243Y0299340D01*
X0130711Y0299426D01*
X0131181Y0299500D01*
X0131652Y0299563D01*
X0132125Y0299615D01*
X0132599Y0299655D01*
X0133074Y0299684D01*
X0133549Y0299701D01*
X0134025Y0299707D01*
X0220639Y0299707D01*
X0221115Y0299701D01*
X0221590Y0299684D01*
X0222065Y0299655D01*
X0222539Y0299615D01*
X0223012Y0299563D01*
X0223483Y0299500D01*
X0223953Y0299426D01*
X0224421Y0299340D01*
X0224887Y0299243D01*
X0225350Y0299135D01*
X0225810Y0299016D01*
X0226268Y0298885D01*
X0226722Y0298744D01*
X0227173Y0298591D01*
X0227619Y0298428D01*
X0228062Y0298254D01*
X0228500Y0298069D01*
X0228934Y0297874D01*
X0229363Y0297668D01*
X0229787Y0297452D01*
X0230206Y0297226D01*
X0230619Y0296990D01*
X0231026Y0296744D01*
X0231427Y0296488D01*
X0231821Y0296222D01*
X0232210Y0295947D01*
X0232591Y0295663D01*
X0232965Y0295370D01*
X0233333Y0295068D01*
X0233693Y0294756D01*
X0234045Y0294437D01*
X0234389Y0294109D01*
X0234726Y0293772D01*
X0235054Y0293428D01*
X0235373Y0293076D01*
X0235685Y0292716D01*
X0235987Y0292348D01*
X0236280Y0291974D01*
X0236564Y0291593D01*
X0236839Y0291204D01*
X0237105Y0290810D01*
X0237361Y0290409D01*
X0237607Y0290002D01*
X0237843Y0289589D01*
X0238069Y0289170D01*
X0238285Y0288746D01*
X0238491Y0288317D01*
X0238686Y0287883D01*
X0238871Y0287445D01*
X0239045Y0287002D01*
X0239208Y0286556D01*
X0239361Y0286105D01*
X0239502Y0285651D01*
X0239633Y0285193D01*
X0239752Y0284733D01*
X0239860Y0284270D01*
X0239957Y0283804D01*
X0240043Y0283336D01*
X0240117Y0282866D01*
X0240180Y0282395D01*
X0240232Y0281922D01*
X0240272Y0281448D01*
X0240301Y0280973D01*
X0240318Y0280498D01*
X0240324Y0280022D01*
X0240324Y0151282D01*
X0240318Y0150806D01*
X0240301Y0150331D01*
X0240272Y0149856D01*
X0240232Y0149382D01*
X0240180Y0148909D01*
X0240117Y0148438D01*
X0240043Y0147968D01*
X0239957Y0147500D01*
X0239860Y0147034D01*
X0239752Y0146571D01*
X0239633Y0146111D01*
X0239502Y0145653D01*
X0239361Y0145199D01*
X0239208Y0144748D01*
X0239045Y0144302D01*
X0238871Y0143859D01*
X0238686Y0143421D01*
X0238491Y0142987D01*
X0238285Y0142558D01*
X0238069Y0142134D01*
X0237843Y0141715D01*
X0237607Y0141302D01*
X0237361Y0140895D01*
X0237105Y0140494D01*
X0236839Y0140100D01*
X0236564Y0139711D01*
X0236280Y0139330D01*
X0235987Y0138956D01*
X0235685Y0138588D01*
X0235373Y0138228D01*
X0235054Y0137876D01*
X0234726Y0137532D01*
X0234389Y0137195D01*
X0234045Y0136867D01*
X0233693Y0136548D01*
X0233333Y0136236D01*
X0232965Y0135934D01*
X0232591Y0135641D01*
X0232210Y0135357D01*
X0231821Y0135082D01*
X0231427Y0134816D01*
X0231026Y0134560D01*
X0230619Y0134314D01*
X0230206Y0134078D01*
X0229787Y0133852D01*
X0229363Y0133636D01*
X0228934Y0133430D01*
X0228500Y0133235D01*
X0228062Y0133050D01*
X0227619Y0132876D01*
X0227173Y0132713D01*
X0226722Y0132560D01*
X0226268Y0132419D01*
X0225810Y0132288D01*
X0225350Y0132169D01*
X0224887Y0132061D01*
X0224421Y0131964D01*
X0223953Y0131878D01*
X0223483Y0131804D01*
X0223012Y0131741D01*
X0222539Y0131689D01*
X0222065Y0131649D01*
X0221590Y0131620D01*
X0221115Y0131603D01*
X0220639Y0131597D01*
X0134025Y0131597D01*
X0133549Y0131603D01*
X0133074Y0131620D01*
X0132599Y0131649D01*
X0132125Y0131689D01*
X0131652Y0131741D01*
X0131181Y0131804D01*
X0130711Y0131878D01*
X0130243Y0131964D01*
X0129777Y0132061D01*
X0129314Y0132169D01*
X0128854Y0132288D01*
X0128396Y0132419D01*
X0127942Y0132560D01*
X0127491Y0132713D01*
X0127045Y0132876D01*
X0126602Y0133050D01*
X0126164Y0133235D01*
X0125730Y0133430D01*
X0125301Y0133636D01*
X0124877Y0133852D01*
X0124458Y0134078D01*
X0124045Y0134314D01*
X0123638Y0134560D01*
X0123237Y0134816D01*
X0122843Y0135082D01*
X0122454Y0135357D01*
X0122073Y0135641D01*
X0121699Y0135934D01*
X0121331Y0136236D01*
X0120971Y0136548D01*
X0120619Y0136867D01*
X0120275Y0137195D01*
X0119938Y0137532D01*
X0119610Y0137876D01*
X0119291Y0138228D01*
X0118979Y0138588D01*
X0118677Y0138956D01*
X0118384Y0139330D01*
X0118100Y0139711D01*
X0117825Y0140100D01*
X0117559Y0140494D01*
X0117303Y0140895D01*
X0117057Y0141302D01*
X0116821Y0141715D01*
X0116595Y0142134D01*
X0116379Y0142558D01*
X0116173Y0142987D01*
X0115978Y0143421D01*
X0115793Y0143859D01*
X0115619Y0144302D01*
X0115456Y0144748D01*
X0115303Y0145199D01*
X0115162Y0145653D01*
X0115031Y0146111D01*
X0114912Y0146571D01*
X0114804Y0147034D01*
X0114707Y0147500D01*
X0114621Y0147968D01*
X0114547Y0148438D01*
X0114484Y0148909D01*
X0114432Y0149382D01*
X0114392Y0149856D01*
X0114363Y0150331D01*
X0114346Y0150806D01*
X0114340Y0151282D01*
X0127528Y0204038D02*
X0127530Y0204126D01*
X0127536Y0204214D01*
X0127546Y0204302D01*
X0127560Y0204390D01*
X0127577Y0204476D01*
X0127599Y0204562D01*
X0127624Y0204646D01*
X0127654Y0204730D01*
X0127686Y0204812D01*
X0127723Y0204892D01*
X0127763Y0204971D01*
X0127807Y0205048D01*
X0127854Y0205123D01*
X0127904Y0205195D01*
X0127958Y0205266D01*
X0128014Y0205333D01*
X0128074Y0205399D01*
X0128136Y0205461D01*
X0128202Y0205521D01*
X0128269Y0205577D01*
X0128340Y0205631D01*
X0128412Y0205681D01*
X0128487Y0205728D01*
X0128564Y0205772D01*
X0128643Y0205812D01*
X0128723Y0205849D01*
X0128805Y0205881D01*
X0128889Y0205911D01*
X0128973Y0205936D01*
X0129059Y0205958D01*
X0129145Y0205975D01*
X0129233Y0205989D01*
X0129321Y0205999D01*
X0129409Y0206005D01*
X0129497Y0206007D01*
X0129585Y0206005D01*
X0129673Y0205999D01*
X0129761Y0205989D01*
X0129849Y0205975D01*
X0129935Y0205958D01*
X0130021Y0205936D01*
X0130105Y0205911D01*
X0130189Y0205881D01*
X0130271Y0205849D01*
X0130351Y0205812D01*
X0130430Y0205772D01*
X0130507Y0205728D01*
X0130582Y0205681D01*
X0130654Y0205631D01*
X0130725Y0205577D01*
X0130792Y0205521D01*
X0130858Y0205461D01*
X0130920Y0205399D01*
X0130980Y0205333D01*
X0131036Y0205266D01*
X0131090Y0205195D01*
X0131140Y0205123D01*
X0131187Y0205048D01*
X0131231Y0204971D01*
X0131271Y0204892D01*
X0131308Y0204812D01*
X0131340Y0204730D01*
X0131370Y0204646D01*
X0131395Y0204562D01*
X0131417Y0204476D01*
X0131434Y0204390D01*
X0131448Y0204302D01*
X0131458Y0204214D01*
X0131464Y0204126D01*
X0131466Y0204038D01*
X0131464Y0203950D01*
X0131458Y0203862D01*
X0131448Y0203774D01*
X0131434Y0203686D01*
X0131417Y0203600D01*
X0131395Y0203514D01*
X0131370Y0203430D01*
X0131340Y0203346D01*
X0131308Y0203264D01*
X0131271Y0203184D01*
X0131231Y0203105D01*
X0131187Y0203028D01*
X0131140Y0202953D01*
X0131090Y0202881D01*
X0131036Y0202810D01*
X0130980Y0202743D01*
X0130920Y0202677D01*
X0130858Y0202615D01*
X0130792Y0202555D01*
X0130725Y0202499D01*
X0130654Y0202445D01*
X0130582Y0202395D01*
X0130507Y0202348D01*
X0130430Y0202304D01*
X0130351Y0202264D01*
X0130271Y0202227D01*
X0130189Y0202195D01*
X0130105Y0202165D01*
X0130021Y0202140D01*
X0129935Y0202118D01*
X0129849Y0202101D01*
X0129761Y0202087D01*
X0129673Y0202077D01*
X0129585Y0202071D01*
X0129497Y0202069D01*
X0129409Y0202071D01*
X0129321Y0202077D01*
X0129233Y0202087D01*
X0129145Y0202101D01*
X0129059Y0202118D01*
X0128973Y0202140D01*
X0128889Y0202165D01*
X0128805Y0202195D01*
X0128723Y0202227D01*
X0128643Y0202264D01*
X0128564Y0202304D01*
X0128487Y0202348D01*
X0128412Y0202395D01*
X0128340Y0202445D01*
X0128269Y0202499D01*
X0128202Y0202555D01*
X0128136Y0202615D01*
X0128074Y0202677D01*
X0128014Y0202743D01*
X0127958Y0202810D01*
X0127904Y0202881D01*
X0127854Y0202953D01*
X0127807Y0203028D01*
X0127763Y0203105D01*
X0127723Y0203184D01*
X0127686Y0203264D01*
X0127654Y0203346D01*
X0127624Y0203430D01*
X0127599Y0203514D01*
X0127577Y0203600D01*
X0127560Y0203686D01*
X0127546Y0203774D01*
X0127536Y0203862D01*
X0127530Y0203950D01*
X0127528Y0204038D01*
X0114340Y0212747D02*
X0114340Y0256747D01*
X0159576Y0217896D02*
X0159578Y0218011D01*
X0159584Y0218127D01*
X0159594Y0218242D01*
X0159608Y0218357D01*
X0159626Y0218471D01*
X0159648Y0218584D01*
X0159673Y0218697D01*
X0159703Y0218808D01*
X0159736Y0218919D01*
X0159773Y0219028D01*
X0159814Y0219136D01*
X0159859Y0219243D01*
X0159907Y0219348D01*
X0159959Y0219451D01*
X0160015Y0219552D01*
X0160074Y0219652D01*
X0160136Y0219749D01*
X0160202Y0219844D01*
X0160270Y0219937D01*
X0160342Y0220027D01*
X0160417Y0220115D01*
X0160496Y0220200D01*
X0160577Y0220282D01*
X0160660Y0220362D01*
X0160747Y0220438D01*
X0160836Y0220512D01*
X0160927Y0220582D01*
X0161021Y0220650D01*
X0161117Y0220714D01*
X0161216Y0220774D01*
X0161316Y0220831D01*
X0161418Y0220885D01*
X0161522Y0220935D01*
X0161628Y0220982D01*
X0161735Y0221025D01*
X0161844Y0221064D01*
X0161954Y0221099D01*
X0162065Y0221130D01*
X0162177Y0221158D01*
X0162290Y0221182D01*
X0162404Y0221202D01*
X0162519Y0221218D01*
X0162634Y0221230D01*
X0162749Y0221238D01*
X0162864Y0221242D01*
X0162980Y0221242D01*
X0163095Y0221238D01*
X0163210Y0221230D01*
X0163325Y0221218D01*
X0163440Y0221202D01*
X0163554Y0221182D01*
X0163667Y0221158D01*
X0163779Y0221130D01*
X0163890Y0221099D01*
X0164000Y0221064D01*
X0164109Y0221025D01*
X0164216Y0220982D01*
X0164322Y0220935D01*
X0164426Y0220885D01*
X0164528Y0220831D01*
X0164628Y0220774D01*
X0164727Y0220714D01*
X0164823Y0220650D01*
X0164917Y0220582D01*
X0165008Y0220512D01*
X0165097Y0220438D01*
X0165184Y0220362D01*
X0165267Y0220282D01*
X0165348Y0220200D01*
X0165427Y0220115D01*
X0165502Y0220027D01*
X0165574Y0219937D01*
X0165642Y0219844D01*
X0165708Y0219749D01*
X0165770Y0219652D01*
X0165829Y0219552D01*
X0165885Y0219451D01*
X0165937Y0219348D01*
X0165985Y0219243D01*
X0166030Y0219136D01*
X0166071Y0219028D01*
X0166108Y0218919D01*
X0166141Y0218808D01*
X0166171Y0218697D01*
X0166196Y0218584D01*
X0166218Y0218471D01*
X0166236Y0218357D01*
X0166250Y0218242D01*
X0166260Y0218127D01*
X0166266Y0218011D01*
X0166268Y0217896D01*
X0166266Y0217781D01*
X0166260Y0217665D01*
X0166250Y0217550D01*
X0166236Y0217435D01*
X0166218Y0217321D01*
X0166196Y0217208D01*
X0166171Y0217095D01*
X0166141Y0216984D01*
X0166108Y0216873D01*
X0166071Y0216764D01*
X0166030Y0216656D01*
X0165985Y0216549D01*
X0165937Y0216444D01*
X0165885Y0216341D01*
X0165829Y0216240D01*
X0165770Y0216140D01*
X0165708Y0216043D01*
X0165642Y0215948D01*
X0165574Y0215855D01*
X0165502Y0215765D01*
X0165427Y0215677D01*
X0165348Y0215592D01*
X0165267Y0215510D01*
X0165184Y0215430D01*
X0165097Y0215354D01*
X0165008Y0215280D01*
X0164917Y0215210D01*
X0164823Y0215142D01*
X0164727Y0215078D01*
X0164628Y0215018D01*
X0164528Y0214961D01*
X0164426Y0214907D01*
X0164322Y0214857D01*
X0164216Y0214810D01*
X0164109Y0214767D01*
X0164000Y0214728D01*
X0163890Y0214693D01*
X0163779Y0214662D01*
X0163667Y0214634D01*
X0163554Y0214610D01*
X0163440Y0214590D01*
X0163325Y0214574D01*
X0163210Y0214562D01*
X0163095Y0214554D01*
X0162980Y0214550D01*
X0162864Y0214550D01*
X0162749Y0214554D01*
X0162634Y0214562D01*
X0162519Y0214574D01*
X0162404Y0214590D01*
X0162290Y0214610D01*
X0162177Y0214634D01*
X0162065Y0214662D01*
X0161954Y0214693D01*
X0161844Y0214728D01*
X0161735Y0214767D01*
X0161628Y0214810D01*
X0161522Y0214857D01*
X0161418Y0214907D01*
X0161316Y0214961D01*
X0161216Y0215018D01*
X0161117Y0215078D01*
X0161021Y0215142D01*
X0160927Y0215210D01*
X0160836Y0215280D01*
X0160747Y0215354D01*
X0160660Y0215430D01*
X0160577Y0215510D01*
X0160496Y0215592D01*
X0160417Y0215677D01*
X0160342Y0215765D01*
X0160270Y0215855D01*
X0160202Y0215948D01*
X0160136Y0216043D01*
X0160074Y0216140D01*
X0160015Y0216240D01*
X0159959Y0216341D01*
X0159907Y0216444D01*
X0159859Y0216549D01*
X0159814Y0216656D01*
X0159773Y0216764D01*
X0159736Y0216873D01*
X0159703Y0216984D01*
X0159673Y0217095D01*
X0159648Y0217208D01*
X0159626Y0217321D01*
X0159608Y0217435D01*
X0159594Y0217550D01*
X0159584Y0217665D01*
X0159578Y0217781D01*
X0159576Y0217896D01*
X0171919Y0245219D02*
X0171921Y0245319D01*
X0171927Y0245419D01*
X0171937Y0245519D01*
X0171951Y0245619D01*
X0171968Y0245717D01*
X0171990Y0245815D01*
X0172016Y0245912D01*
X0172045Y0246008D01*
X0172078Y0246103D01*
X0172115Y0246196D01*
X0172155Y0246288D01*
X0172199Y0246378D01*
X0172247Y0246467D01*
X0172298Y0246553D01*
X0172352Y0246637D01*
X0172410Y0246719D01*
X0172471Y0246799D01*
X0172535Y0246877D01*
X0172602Y0246951D01*
X0172672Y0247023D01*
X0172744Y0247092D01*
X0172820Y0247159D01*
X0172897Y0247222D01*
X0172978Y0247282D01*
X0173060Y0247339D01*
X0173145Y0247392D01*
X0173232Y0247442D01*
X0173321Y0247489D01*
X0173412Y0247532D01*
X0173504Y0247572D01*
X0173597Y0247608D01*
X0173693Y0247640D01*
X0173789Y0247668D01*
X0173886Y0247693D01*
X0173984Y0247713D01*
X0174083Y0247730D01*
X0174183Y0247743D01*
X0174283Y0247752D01*
X0174383Y0247757D01*
X0174483Y0247758D01*
X0174583Y0247755D01*
X0174683Y0247748D01*
X0174783Y0247737D01*
X0174882Y0247722D01*
X0174981Y0247704D01*
X0175079Y0247681D01*
X0175176Y0247655D01*
X0175271Y0247624D01*
X0175366Y0247590D01*
X0175459Y0247553D01*
X0175550Y0247511D01*
X0175640Y0247466D01*
X0175728Y0247418D01*
X0175813Y0247366D01*
X0175897Y0247311D01*
X0175979Y0247252D01*
X0176058Y0247191D01*
X0176134Y0247126D01*
X0176208Y0247058D01*
X0176280Y0246988D01*
X0176348Y0246914D01*
X0176414Y0246838D01*
X0176476Y0246760D01*
X0176535Y0246679D01*
X0176591Y0246596D01*
X0176644Y0246510D01*
X0176693Y0246423D01*
X0176739Y0246334D01*
X0176782Y0246243D01*
X0176820Y0246150D01*
X0176855Y0246056D01*
X0176886Y0245961D01*
X0176914Y0245864D01*
X0176937Y0245766D01*
X0176957Y0245668D01*
X0176973Y0245569D01*
X0176985Y0245469D01*
X0176993Y0245369D01*
X0176997Y0245269D01*
X0176997Y0245169D01*
X0176993Y0245069D01*
X0176985Y0244969D01*
X0176973Y0244869D01*
X0176957Y0244770D01*
X0176937Y0244672D01*
X0176914Y0244574D01*
X0176886Y0244477D01*
X0176855Y0244382D01*
X0176820Y0244288D01*
X0176782Y0244195D01*
X0176739Y0244104D01*
X0176693Y0244015D01*
X0176644Y0243928D01*
X0176591Y0243842D01*
X0176535Y0243759D01*
X0176476Y0243678D01*
X0176414Y0243600D01*
X0176348Y0243524D01*
X0176280Y0243450D01*
X0176208Y0243380D01*
X0176134Y0243312D01*
X0176058Y0243247D01*
X0175979Y0243186D01*
X0175897Y0243127D01*
X0175813Y0243072D01*
X0175727Y0243020D01*
X0175640Y0242972D01*
X0175550Y0242927D01*
X0175459Y0242885D01*
X0175366Y0242848D01*
X0175271Y0242814D01*
X0175176Y0242783D01*
X0175079Y0242757D01*
X0174981Y0242734D01*
X0174882Y0242716D01*
X0174783Y0242701D01*
X0174683Y0242690D01*
X0174583Y0242683D01*
X0174483Y0242680D01*
X0174383Y0242681D01*
X0174283Y0242686D01*
X0174183Y0242695D01*
X0174083Y0242708D01*
X0173984Y0242725D01*
X0173886Y0242745D01*
X0173789Y0242770D01*
X0173693Y0242798D01*
X0173597Y0242830D01*
X0173504Y0242866D01*
X0173412Y0242906D01*
X0173321Y0242949D01*
X0173232Y0242996D01*
X0173145Y0243046D01*
X0173060Y0243099D01*
X0172978Y0243156D01*
X0172897Y0243216D01*
X0172820Y0243279D01*
X0172744Y0243346D01*
X0172672Y0243415D01*
X0172602Y0243487D01*
X0172535Y0243561D01*
X0172471Y0243639D01*
X0172410Y0243719D01*
X0172352Y0243801D01*
X0172298Y0243885D01*
X0172247Y0243971D01*
X0172199Y0244060D01*
X0172155Y0244150D01*
X0172115Y0244242D01*
X0172078Y0244335D01*
X0172045Y0244430D01*
X0172016Y0244526D01*
X0171990Y0244623D01*
X0171968Y0244721D01*
X0171951Y0244819D01*
X0171937Y0244919D01*
X0171927Y0245019D01*
X0171921Y0245119D01*
X0171919Y0245219D01*
X0201879Y0240967D02*
X0201881Y0241068D01*
X0201887Y0241169D01*
X0201897Y0241270D01*
X0201911Y0241370D01*
X0201929Y0241470D01*
X0201950Y0241569D01*
X0201976Y0241667D01*
X0202005Y0241764D01*
X0202038Y0241860D01*
X0202075Y0241954D01*
X0202116Y0242047D01*
X0202160Y0242138D01*
X0202208Y0242227D01*
X0202259Y0242315D01*
X0202314Y0242400D01*
X0202372Y0242483D01*
X0202433Y0242564D01*
X0202497Y0242642D01*
X0202564Y0242718D01*
X0202634Y0242791D01*
X0202707Y0242861D01*
X0202783Y0242928D01*
X0202861Y0242992D01*
X0202942Y0243053D01*
X0203025Y0243111D01*
X0203110Y0243166D01*
X0203198Y0243217D01*
X0203287Y0243265D01*
X0203378Y0243309D01*
X0203471Y0243350D01*
X0203565Y0243387D01*
X0203661Y0243420D01*
X0203758Y0243449D01*
X0203856Y0243475D01*
X0203955Y0243496D01*
X0204055Y0243514D01*
X0204155Y0243528D01*
X0204256Y0243538D01*
X0204357Y0243544D01*
X0204458Y0243546D01*
X0204559Y0243544D01*
X0204660Y0243538D01*
X0204761Y0243528D01*
X0204861Y0243514D01*
X0204961Y0243496D01*
X0205060Y0243475D01*
X0205158Y0243449D01*
X0205255Y0243420D01*
X0205351Y0243387D01*
X0205445Y0243350D01*
X0205538Y0243309D01*
X0205629Y0243265D01*
X0205718Y0243217D01*
X0205806Y0243166D01*
X0205891Y0243111D01*
X0205974Y0243053D01*
X0206055Y0242992D01*
X0206133Y0242928D01*
X0206209Y0242861D01*
X0206282Y0242791D01*
X0206352Y0242718D01*
X0206419Y0242642D01*
X0206483Y0242564D01*
X0206544Y0242483D01*
X0206602Y0242400D01*
X0206657Y0242315D01*
X0206708Y0242227D01*
X0206756Y0242138D01*
X0206800Y0242047D01*
X0206841Y0241954D01*
X0206878Y0241860D01*
X0206911Y0241764D01*
X0206940Y0241667D01*
X0206966Y0241569D01*
X0206987Y0241470D01*
X0207005Y0241370D01*
X0207019Y0241270D01*
X0207029Y0241169D01*
X0207035Y0241068D01*
X0207037Y0240967D01*
X0207035Y0240866D01*
X0207029Y0240765D01*
X0207019Y0240664D01*
X0207005Y0240564D01*
X0206987Y0240464D01*
X0206966Y0240365D01*
X0206940Y0240267D01*
X0206911Y0240170D01*
X0206878Y0240074D01*
X0206841Y0239980D01*
X0206800Y0239887D01*
X0206756Y0239796D01*
X0206708Y0239707D01*
X0206657Y0239619D01*
X0206602Y0239534D01*
X0206544Y0239451D01*
X0206483Y0239370D01*
X0206419Y0239292D01*
X0206352Y0239216D01*
X0206282Y0239143D01*
X0206209Y0239073D01*
X0206133Y0239006D01*
X0206055Y0238942D01*
X0205974Y0238881D01*
X0205891Y0238823D01*
X0205806Y0238768D01*
X0205718Y0238717D01*
X0205629Y0238669D01*
X0205538Y0238625D01*
X0205445Y0238584D01*
X0205351Y0238547D01*
X0205255Y0238514D01*
X0205158Y0238485D01*
X0205060Y0238459D01*
X0204961Y0238438D01*
X0204861Y0238420D01*
X0204761Y0238406D01*
X0204660Y0238396D01*
X0204559Y0238390D01*
X0204458Y0238388D01*
X0204357Y0238390D01*
X0204256Y0238396D01*
X0204155Y0238406D01*
X0204055Y0238420D01*
X0203955Y0238438D01*
X0203856Y0238459D01*
X0203758Y0238485D01*
X0203661Y0238514D01*
X0203565Y0238547D01*
X0203471Y0238584D01*
X0203378Y0238625D01*
X0203287Y0238669D01*
X0203198Y0238717D01*
X0203110Y0238768D01*
X0203025Y0238823D01*
X0202942Y0238881D01*
X0202861Y0238942D01*
X0202783Y0239006D01*
X0202707Y0239073D01*
X0202634Y0239143D01*
X0202564Y0239216D01*
X0202497Y0239292D01*
X0202433Y0239370D01*
X0202372Y0239451D01*
X0202314Y0239534D01*
X0202259Y0239619D01*
X0202208Y0239707D01*
X0202160Y0239796D01*
X0202116Y0239887D01*
X0202075Y0239980D01*
X0202038Y0240074D01*
X0202005Y0240170D01*
X0201976Y0240267D01*
X0201950Y0240365D01*
X0201929Y0240464D01*
X0201911Y0240564D01*
X0201897Y0240664D01*
X0201887Y0240765D01*
X0201881Y0240866D01*
X0201879Y0240967D01*
X0200442Y0207660D02*
X0200444Y0207765D01*
X0200450Y0207870D01*
X0200460Y0207974D01*
X0200474Y0208078D01*
X0200492Y0208182D01*
X0200514Y0208284D01*
X0200539Y0208386D01*
X0200569Y0208487D01*
X0200602Y0208586D01*
X0200639Y0208684D01*
X0200680Y0208781D01*
X0200725Y0208876D01*
X0200773Y0208969D01*
X0200824Y0209061D01*
X0200880Y0209150D01*
X0200938Y0209237D01*
X0201000Y0209322D01*
X0201064Y0209405D01*
X0201132Y0209485D01*
X0201203Y0209562D01*
X0201277Y0209636D01*
X0201354Y0209708D01*
X0201433Y0209777D01*
X0201515Y0209842D01*
X0201599Y0209905D01*
X0201686Y0209964D01*
X0201775Y0210020D01*
X0201866Y0210073D01*
X0201959Y0210122D01*
X0202053Y0210167D01*
X0202149Y0210209D01*
X0202247Y0210247D01*
X0202346Y0210281D01*
X0202447Y0210312D01*
X0202548Y0210338D01*
X0202651Y0210361D01*
X0202754Y0210380D01*
X0202858Y0210395D01*
X0202962Y0210406D01*
X0203067Y0210413D01*
X0203172Y0210416D01*
X0203277Y0210415D01*
X0203382Y0210410D01*
X0203486Y0210401D01*
X0203590Y0210388D01*
X0203694Y0210371D01*
X0203797Y0210350D01*
X0203899Y0210325D01*
X0204000Y0210297D01*
X0204099Y0210264D01*
X0204198Y0210228D01*
X0204295Y0210188D01*
X0204390Y0210145D01*
X0204484Y0210097D01*
X0204576Y0210047D01*
X0204666Y0209993D01*
X0204754Y0209935D01*
X0204839Y0209874D01*
X0204922Y0209810D01*
X0205003Y0209743D01*
X0205081Y0209673D01*
X0205156Y0209599D01*
X0205228Y0209524D01*
X0205298Y0209445D01*
X0205364Y0209364D01*
X0205428Y0209280D01*
X0205488Y0209194D01*
X0205544Y0209106D01*
X0205598Y0209015D01*
X0205648Y0208923D01*
X0205694Y0208829D01*
X0205737Y0208733D01*
X0205776Y0208635D01*
X0205811Y0208537D01*
X0205842Y0208436D01*
X0205870Y0208335D01*
X0205894Y0208233D01*
X0205914Y0208130D01*
X0205930Y0208026D01*
X0205942Y0207922D01*
X0205950Y0207817D01*
X0205954Y0207712D01*
X0205954Y0207608D01*
X0205950Y0207503D01*
X0205942Y0207398D01*
X0205930Y0207294D01*
X0205914Y0207190D01*
X0205894Y0207087D01*
X0205870Y0206985D01*
X0205842Y0206884D01*
X0205811Y0206783D01*
X0205776Y0206685D01*
X0205737Y0206587D01*
X0205694Y0206491D01*
X0205648Y0206397D01*
X0205598Y0206305D01*
X0205544Y0206214D01*
X0205488Y0206126D01*
X0205428Y0206040D01*
X0205364Y0205956D01*
X0205298Y0205875D01*
X0205228Y0205796D01*
X0205156Y0205721D01*
X0205081Y0205647D01*
X0205003Y0205577D01*
X0204922Y0205510D01*
X0204839Y0205446D01*
X0204754Y0205385D01*
X0204666Y0205327D01*
X0204576Y0205273D01*
X0204484Y0205223D01*
X0204390Y0205175D01*
X0204295Y0205132D01*
X0204198Y0205092D01*
X0204099Y0205056D01*
X0204000Y0205023D01*
X0203899Y0204995D01*
X0203797Y0204970D01*
X0203694Y0204949D01*
X0203590Y0204932D01*
X0203486Y0204919D01*
X0203382Y0204910D01*
X0203277Y0204905D01*
X0203172Y0204904D01*
X0203067Y0204907D01*
X0202962Y0204914D01*
X0202858Y0204925D01*
X0202754Y0204940D01*
X0202651Y0204959D01*
X0202548Y0204982D01*
X0202447Y0205008D01*
X0202346Y0205039D01*
X0202247Y0205073D01*
X0202149Y0205111D01*
X0202053Y0205153D01*
X0201959Y0205198D01*
X0201866Y0205247D01*
X0201775Y0205300D01*
X0201686Y0205356D01*
X0201599Y0205415D01*
X0201515Y0205478D01*
X0201433Y0205543D01*
X0201354Y0205612D01*
X0201277Y0205684D01*
X0201203Y0205758D01*
X0201132Y0205835D01*
X0201064Y0205915D01*
X0201000Y0205998D01*
X0200938Y0206083D01*
X0200880Y0206170D01*
X0200824Y0206259D01*
X0200773Y0206351D01*
X0200725Y0206444D01*
X0200680Y0206539D01*
X0200639Y0206636D01*
X0200602Y0206734D01*
X0200569Y0206833D01*
X0200539Y0206934D01*
X0200514Y0207036D01*
X0200492Y0207138D01*
X0200474Y0207242D01*
X0200460Y0207346D01*
X0200450Y0207450D01*
X0200444Y0207555D01*
X0200442Y0207660D01*
X0198395Y0202542D02*
X0198397Y0202640D01*
X0198403Y0202738D01*
X0198413Y0202836D01*
X0198427Y0202934D01*
X0198444Y0203030D01*
X0198466Y0203126D01*
X0198491Y0203221D01*
X0198521Y0203315D01*
X0198554Y0203408D01*
X0198590Y0203499D01*
X0198631Y0203588D01*
X0198675Y0203676D01*
X0198722Y0203762D01*
X0198773Y0203847D01*
X0198827Y0203929D01*
X0198885Y0204008D01*
X0198945Y0204086D01*
X0199009Y0204161D01*
X0199076Y0204233D01*
X0199145Y0204302D01*
X0199217Y0204369D01*
X0199292Y0204433D01*
X0199370Y0204493D01*
X0199449Y0204551D01*
X0199531Y0204605D01*
X0199615Y0204656D01*
X0199702Y0204703D01*
X0199790Y0204747D01*
X0199879Y0204788D01*
X0199970Y0204824D01*
X0200063Y0204857D01*
X0200157Y0204887D01*
X0200252Y0204912D01*
X0200348Y0204934D01*
X0200444Y0204951D01*
X0200542Y0204965D01*
X0200640Y0204975D01*
X0200738Y0204981D01*
X0200836Y0204983D01*
X0200934Y0204981D01*
X0201032Y0204975D01*
X0201130Y0204965D01*
X0201228Y0204951D01*
X0201324Y0204934D01*
X0201420Y0204912D01*
X0201515Y0204887D01*
X0201609Y0204857D01*
X0201702Y0204824D01*
X0201793Y0204788D01*
X0201882Y0204747D01*
X0201970Y0204703D01*
X0202056Y0204656D01*
X0202141Y0204605D01*
X0202223Y0204551D01*
X0202302Y0204493D01*
X0202380Y0204433D01*
X0202455Y0204369D01*
X0202527Y0204302D01*
X0202596Y0204233D01*
X0202663Y0204161D01*
X0202727Y0204086D01*
X0202787Y0204008D01*
X0202845Y0203929D01*
X0202899Y0203847D01*
X0202950Y0203763D01*
X0202997Y0203676D01*
X0203041Y0203588D01*
X0203082Y0203499D01*
X0203118Y0203408D01*
X0203151Y0203315D01*
X0203181Y0203221D01*
X0203206Y0203126D01*
X0203228Y0203030D01*
X0203245Y0202934D01*
X0203259Y0202836D01*
X0203269Y0202738D01*
X0203275Y0202640D01*
X0203277Y0202542D01*
X0203275Y0202444D01*
X0203269Y0202346D01*
X0203259Y0202248D01*
X0203245Y0202150D01*
X0203228Y0202054D01*
X0203206Y0201958D01*
X0203181Y0201863D01*
X0203151Y0201769D01*
X0203118Y0201676D01*
X0203082Y0201585D01*
X0203041Y0201496D01*
X0202997Y0201408D01*
X0202950Y0201322D01*
X0202899Y0201237D01*
X0202845Y0201155D01*
X0202787Y0201076D01*
X0202727Y0200998D01*
X0202663Y0200923D01*
X0202596Y0200851D01*
X0202527Y0200782D01*
X0202455Y0200715D01*
X0202380Y0200651D01*
X0202302Y0200591D01*
X0202223Y0200533D01*
X0202141Y0200479D01*
X0202057Y0200428D01*
X0201970Y0200381D01*
X0201882Y0200337D01*
X0201793Y0200296D01*
X0201702Y0200260D01*
X0201609Y0200227D01*
X0201515Y0200197D01*
X0201420Y0200172D01*
X0201324Y0200150D01*
X0201228Y0200133D01*
X0201130Y0200119D01*
X0201032Y0200109D01*
X0200934Y0200103D01*
X0200836Y0200101D01*
X0200738Y0200103D01*
X0200640Y0200109D01*
X0200542Y0200119D01*
X0200444Y0200133D01*
X0200348Y0200150D01*
X0200252Y0200172D01*
X0200157Y0200197D01*
X0200063Y0200227D01*
X0199970Y0200260D01*
X0199879Y0200296D01*
X0199790Y0200337D01*
X0199702Y0200381D01*
X0199616Y0200428D01*
X0199531Y0200479D01*
X0199449Y0200533D01*
X0199370Y0200591D01*
X0199292Y0200651D01*
X0199217Y0200715D01*
X0199145Y0200782D01*
X0199076Y0200851D01*
X0199009Y0200923D01*
X0198945Y0200998D01*
X0198885Y0201076D01*
X0198827Y0201155D01*
X0198773Y0201237D01*
X0198722Y0201321D01*
X0198675Y0201408D01*
X0198631Y0201496D01*
X0198590Y0201585D01*
X0198554Y0201676D01*
X0198521Y0201769D01*
X0198491Y0201863D01*
X0198466Y0201958D01*
X0198444Y0202054D01*
X0198427Y0202150D01*
X0198413Y0202248D01*
X0198403Y0202346D01*
X0198397Y0202444D01*
X0198395Y0202542D01*
X0160599Y0168605D02*
X0160601Y0168684D01*
X0160607Y0168763D01*
X0160617Y0168842D01*
X0160631Y0168920D01*
X0160648Y0168997D01*
X0160670Y0169073D01*
X0160695Y0169148D01*
X0160725Y0169221D01*
X0160757Y0169293D01*
X0160794Y0169364D01*
X0160834Y0169432D01*
X0160877Y0169498D01*
X0160923Y0169562D01*
X0160973Y0169624D01*
X0161026Y0169683D01*
X0161081Y0169739D01*
X0161140Y0169793D01*
X0161201Y0169843D01*
X0161264Y0169891D01*
X0161330Y0169935D01*
X0161398Y0169976D01*
X0161468Y0170013D01*
X0161539Y0170047D01*
X0161613Y0170077D01*
X0161687Y0170103D01*
X0161763Y0170125D01*
X0161840Y0170144D01*
X0161918Y0170159D01*
X0161996Y0170170D01*
X0162075Y0170177D01*
X0162154Y0170180D01*
X0162233Y0170179D01*
X0162312Y0170174D01*
X0162391Y0170165D01*
X0162469Y0170152D01*
X0162546Y0170135D01*
X0162623Y0170115D01*
X0162698Y0170090D01*
X0162772Y0170062D01*
X0162845Y0170030D01*
X0162915Y0169995D01*
X0162984Y0169956D01*
X0163051Y0169913D01*
X0163116Y0169867D01*
X0163178Y0169819D01*
X0163238Y0169767D01*
X0163295Y0169712D01*
X0163349Y0169654D01*
X0163400Y0169594D01*
X0163448Y0169531D01*
X0163493Y0169466D01*
X0163535Y0169398D01*
X0163573Y0169329D01*
X0163607Y0169258D01*
X0163638Y0169185D01*
X0163666Y0169110D01*
X0163689Y0169035D01*
X0163709Y0168958D01*
X0163725Y0168881D01*
X0163737Y0168802D01*
X0163745Y0168724D01*
X0163749Y0168645D01*
X0163749Y0168565D01*
X0163745Y0168486D01*
X0163737Y0168408D01*
X0163725Y0168329D01*
X0163709Y0168252D01*
X0163689Y0168175D01*
X0163666Y0168100D01*
X0163638Y0168025D01*
X0163607Y0167952D01*
X0163573Y0167881D01*
X0163535Y0167812D01*
X0163493Y0167744D01*
X0163448Y0167679D01*
X0163400Y0167616D01*
X0163349Y0167556D01*
X0163295Y0167498D01*
X0163238Y0167443D01*
X0163178Y0167391D01*
X0163116Y0167343D01*
X0163051Y0167297D01*
X0162984Y0167254D01*
X0162915Y0167215D01*
X0162845Y0167180D01*
X0162772Y0167148D01*
X0162698Y0167120D01*
X0162623Y0167095D01*
X0162546Y0167075D01*
X0162469Y0167058D01*
X0162391Y0167045D01*
X0162312Y0167036D01*
X0162233Y0167031D01*
X0162154Y0167030D01*
X0162075Y0167033D01*
X0161996Y0167040D01*
X0161918Y0167051D01*
X0161840Y0167066D01*
X0161763Y0167085D01*
X0161687Y0167107D01*
X0161613Y0167133D01*
X0161539Y0167163D01*
X0161468Y0167197D01*
X0161398Y0167234D01*
X0161330Y0167275D01*
X0161264Y0167319D01*
X0161201Y0167367D01*
X0161140Y0167417D01*
X0161081Y0167471D01*
X0161026Y0167527D01*
X0160973Y0167586D01*
X0160923Y0167648D01*
X0160877Y0167712D01*
X0160834Y0167778D01*
X0160794Y0167846D01*
X0160757Y0167917D01*
X0160725Y0167989D01*
X0160695Y0168062D01*
X0160670Y0168137D01*
X0160648Y0168213D01*
X0160631Y0168290D01*
X0160617Y0168368D01*
X0160607Y0168447D01*
X0160601Y0168526D01*
X0160599Y0168605D01*
D11*
X0228918Y0171516D02*
X0236824Y0171516D01*
X0236824Y0174151D02*
X0236824Y0168880D01*
X0236824Y0166233D02*
X0236824Y0164915D01*
X0235506Y0164915D01*
X0235506Y0166233D01*
X0236824Y0166233D01*
X0235506Y0162273D02*
X0230235Y0157002D01*
X0235506Y0157002D01*
X0236824Y0158320D01*
X0236824Y0160955D01*
X0235506Y0162273D01*
X0230235Y0162273D01*
X0228918Y0160955D01*
X0228918Y0158320D01*
X0230235Y0157002D01*
X0228918Y0171516D02*
X0231553Y0174151D01*
X0231553Y0176799D02*
X0236824Y0179434D01*
X0231553Y0182070D01*
X0232871Y0192636D02*
X0234189Y0192636D01*
X0234189Y0197908D01*
X0235506Y0197908D02*
X0232871Y0197908D01*
X0231553Y0196590D01*
X0231553Y0193954D01*
X0232871Y0192636D01*
X0236824Y0193954D02*
X0236824Y0196590D01*
X0235506Y0197908D01*
X0236824Y0200555D02*
X0232871Y0200555D01*
X0231553Y0201873D01*
X0231553Y0205826D01*
X0236824Y0205826D01*
X0235506Y0208474D02*
X0232871Y0208474D01*
X0231553Y0209792D01*
X0231553Y0212427D01*
X0232871Y0213745D01*
X0235506Y0213745D01*
X0236824Y0212427D01*
X0236824Y0209792D01*
X0235506Y0208474D01*
X0235506Y0216393D02*
X0232871Y0216393D01*
X0232871Y0219028D01*
X0235506Y0216393D02*
X0236824Y0217710D01*
X0236824Y0220346D01*
X0235506Y0221664D01*
X0230235Y0221664D01*
X0228918Y0220346D01*
X0228918Y0217710D01*
X0230235Y0216393D01*
X0231553Y0224311D02*
X0231553Y0228265D01*
X0232871Y0229583D01*
X0235506Y0229583D01*
X0236824Y0228265D01*
X0236824Y0224311D01*
X0238142Y0224311D02*
X0231553Y0224311D01*
X0232871Y0232230D02*
X0231553Y0233548D01*
X0231553Y0236184D01*
X0232871Y0237501D01*
X0235506Y0237501D01*
X0236824Y0236184D01*
X0236824Y0233548D01*
X0235506Y0232230D01*
X0232871Y0232230D01*
X0239460Y0226947D02*
X0239460Y0225629D01*
X0238142Y0224311D01*
X0235506Y0240149D02*
X0230235Y0240149D01*
X0228918Y0241467D01*
X0228918Y0245420D01*
X0236824Y0245420D01*
X0236824Y0241467D01*
X0235506Y0240149D01*
D12*
X0223985Y0251872D02*
X0223985Y0136518D01*
X0150363Y0136518D01*
X0150363Y0251872D01*
X0223985Y0251872D01*
X0113946Y0253054D02*
X0108237Y0253054D01*
X0108237Y0242621D01*
X0099773Y0242621D01*
X0096820Y0245573D01*
X0081859Y0245573D01*
X0081859Y0242227D01*
X0077233Y0242227D01*
X0077233Y0227266D01*
X0081859Y0227266D01*
X0081859Y0223920D01*
X0096820Y0223920D01*
X0099773Y0226872D01*
X0108237Y0226872D01*
X0108237Y0216439D01*
X0113946Y0216439D01*
X0113946Y0219589D02*
X0113946Y0249904D01*
D13*
X0119275Y0258952D02*
X0119275Y0265357D01*
X0121410Y0265357D02*
X0117140Y0265357D01*
X0123586Y0265357D02*
X0123586Y0258952D01*
X0127856Y0265357D01*
X0127856Y0258952D01*
X0130031Y0258952D02*
X0130031Y0263222D01*
X0132166Y0265357D01*
X0134301Y0263222D01*
X0134301Y0258952D01*
X0134301Y0262155D02*
X0130031Y0262155D01*
X0191698Y0259794D02*
X0191698Y0253794D01*
X0191700Y0253734D01*
X0191705Y0253673D01*
X0191714Y0253614D01*
X0191727Y0253555D01*
X0191743Y0253496D01*
X0191763Y0253439D01*
X0191786Y0253384D01*
X0191813Y0253329D01*
X0191842Y0253277D01*
X0191875Y0253226D01*
X0191911Y0253177D01*
X0191949Y0253131D01*
X0191991Y0253087D01*
X0192035Y0253045D01*
X0192081Y0253007D01*
X0192130Y0252971D01*
X0192181Y0252938D01*
X0192233Y0252909D01*
X0192288Y0252882D01*
X0192343Y0252859D01*
X0192400Y0252839D01*
X0192459Y0252823D01*
X0192518Y0252810D01*
X0192577Y0252801D01*
X0192638Y0252796D01*
X0192698Y0252794D01*
X0203698Y0252794D01*
X0203758Y0252796D01*
X0203819Y0252801D01*
X0203878Y0252810D01*
X0203937Y0252823D01*
X0203996Y0252839D01*
X0204053Y0252859D01*
X0204108Y0252882D01*
X0204163Y0252909D01*
X0204215Y0252938D01*
X0204266Y0252971D01*
X0204315Y0253007D01*
X0204361Y0253045D01*
X0204405Y0253087D01*
X0204447Y0253131D01*
X0204485Y0253177D01*
X0204521Y0253226D01*
X0204554Y0253277D01*
X0204583Y0253329D01*
X0204610Y0253384D01*
X0204633Y0253439D01*
X0204653Y0253496D01*
X0204669Y0253555D01*
X0204682Y0253614D01*
X0204691Y0253673D01*
X0204696Y0253734D01*
X0204698Y0253794D01*
X0204698Y0259794D01*
X0204696Y0259854D01*
X0204691Y0259915D01*
X0204682Y0259974D01*
X0204669Y0260033D01*
X0204653Y0260092D01*
X0204633Y0260149D01*
X0204610Y0260204D01*
X0204583Y0260259D01*
X0204554Y0260311D01*
X0204521Y0260362D01*
X0204485Y0260411D01*
X0204447Y0260457D01*
X0204405Y0260501D01*
X0204361Y0260543D01*
X0204315Y0260581D01*
X0204266Y0260617D01*
X0204215Y0260650D01*
X0204163Y0260679D01*
X0204108Y0260706D01*
X0204053Y0260729D01*
X0203996Y0260749D01*
X0203937Y0260765D01*
X0203878Y0260778D01*
X0203819Y0260787D01*
X0203758Y0260792D01*
X0203698Y0260794D01*
X0192698Y0260794D01*
X0192638Y0260792D01*
X0192577Y0260787D01*
X0192518Y0260778D01*
X0192459Y0260765D01*
X0192400Y0260749D01*
X0192343Y0260729D01*
X0192288Y0260706D01*
X0192233Y0260679D01*
X0192181Y0260650D01*
X0192130Y0260617D01*
X0192081Y0260581D01*
X0192035Y0260543D01*
X0191991Y0260501D01*
X0191949Y0260457D01*
X0191911Y0260411D01*
X0191875Y0260362D01*
X0191842Y0260311D01*
X0191813Y0260259D01*
X0191786Y0260204D01*
X0191763Y0260149D01*
X0191743Y0260092D01*
X0191727Y0260033D01*
X0191714Y0259974D01*
X0191705Y0259915D01*
X0191700Y0259854D01*
X0191698Y0259794D01*
D14*
X0194528Y0261842D02*
X0196463Y0261842D01*
X0195495Y0261842D02*
X0195495Y0264745D01*
X0196463Y0263777D01*
X0197474Y0264745D02*
X0198442Y0264745D01*
X0197958Y0264745D02*
X0197958Y0262326D01*
X0198442Y0261842D01*
X0198926Y0261842D01*
X0199409Y0262326D01*
X0200421Y0262326D02*
X0200905Y0261842D01*
X0201872Y0261842D01*
X0202356Y0262326D01*
X0201872Y0263293D02*
X0202356Y0263777D01*
X0202356Y0264261D01*
X0201872Y0264745D01*
X0200905Y0264745D01*
X0200421Y0264261D01*
X0200905Y0263293D02*
X0200421Y0262810D01*
X0200421Y0262326D01*
X0200905Y0263293D02*
X0201872Y0263293D01*
X0208468Y0266924D02*
X0210403Y0266924D01*
X0208468Y0268859D01*
X0208468Y0269343D01*
X0208952Y0269827D01*
X0209919Y0269827D01*
X0210403Y0269343D01*
X0212382Y0269827D02*
X0212382Y0266924D01*
X0213349Y0266924D02*
X0211414Y0266924D01*
X0213349Y0268859D02*
X0212382Y0269827D01*
X0214361Y0269343D02*
X0214361Y0268375D01*
X0214845Y0267892D01*
X0216296Y0267892D01*
X0215328Y0267892D02*
X0214361Y0266924D01*
X0216296Y0266924D02*
X0216296Y0269827D01*
X0214845Y0269827D01*
X0214361Y0269343D01*
X0221533Y0274286D02*
X0223468Y0274286D01*
X0222500Y0274286D02*
X0222500Y0277189D01*
X0223468Y0276221D01*
X0224479Y0277189D02*
X0224479Y0274286D01*
X0226414Y0274286D02*
X0226414Y0277189D01*
X0225447Y0276221D01*
X0224479Y0277189D01*
X0226112Y0260401D02*
X0226112Y0258466D01*
X0226112Y0259433D02*
X0229015Y0259433D01*
X0228047Y0258466D01*
X0226112Y0257454D02*
X0226112Y0255519D01*
X0226112Y0256487D02*
X0229015Y0256487D01*
X0228047Y0255519D01*
X0228531Y0254508D02*
X0229015Y0254024D01*
X0229015Y0253056D01*
X0228531Y0252573D01*
X0226596Y0252573D01*
X0226112Y0253056D01*
X0226112Y0254024D01*
X0226596Y0254508D01*
X0176244Y0281952D02*
X0176244Y0284855D01*
X0174793Y0284855D01*
X0174309Y0284371D01*
X0174309Y0283404D01*
X0174793Y0282920D01*
X0176244Y0282920D01*
X0175277Y0282920D02*
X0174309Y0281952D01*
X0173298Y0282436D02*
X0172814Y0281952D01*
X0171846Y0281952D01*
X0171363Y0282436D01*
X0171363Y0284371D01*
X0171846Y0284855D01*
X0172814Y0284855D01*
X0173298Y0284371D01*
X0173298Y0283887D01*
X0172814Y0283404D01*
X0171363Y0283404D01*
X0171741Y0287397D02*
X0172708Y0287397D01*
X0173192Y0287880D01*
X0173192Y0288364D01*
X0172708Y0288848D01*
X0171741Y0288848D01*
X0171257Y0288364D01*
X0171257Y0287880D01*
X0171741Y0287397D01*
X0171741Y0288848D02*
X0171257Y0289331D01*
X0171257Y0289815D01*
X0171741Y0290299D01*
X0172708Y0290299D01*
X0173192Y0289815D01*
X0173192Y0289331D01*
X0172708Y0288848D01*
X0174203Y0288848D02*
X0174687Y0288364D01*
X0176138Y0288364D01*
X0175171Y0288364D02*
X0174203Y0287397D01*
X0174203Y0288848D02*
X0174203Y0289815D01*
X0174687Y0290299D01*
X0176138Y0290299D01*
X0176138Y0287397D01*
X0125261Y0189905D02*
X0124294Y0189905D01*
X0123810Y0189422D01*
X0122798Y0188938D02*
X0121831Y0189905D01*
X0121831Y0187003D01*
X0122798Y0187003D02*
X0120863Y0187003D01*
X0119852Y0187487D02*
X0117917Y0189422D01*
X0117917Y0187487D01*
X0118400Y0187003D01*
X0119368Y0187003D01*
X0119852Y0187487D01*
X0119852Y0189422D01*
X0119368Y0189905D01*
X0118400Y0189905D01*
X0117917Y0189422D01*
X0121347Y0184393D02*
X0122314Y0184393D01*
X0122798Y0183910D01*
X0122798Y0183426D01*
X0122314Y0182942D01*
X0120863Y0182942D01*
X0120863Y0181975D02*
X0120863Y0183910D01*
X0121347Y0184393D01*
X0120863Y0181975D02*
X0121347Y0181491D01*
X0122314Y0181491D01*
X0122798Y0181975D01*
X0123810Y0181975D02*
X0124294Y0181491D01*
X0125261Y0181491D01*
X0125745Y0181975D01*
X0125745Y0183910D01*
X0125261Y0184393D01*
X0124294Y0184393D01*
X0123810Y0183910D01*
X0124294Y0187003D02*
X0123810Y0187487D01*
X0124294Y0187003D02*
X0125261Y0187003D01*
X0125745Y0187487D01*
X0125745Y0189422D01*
X0125261Y0189905D01*
X0125261Y0178488D02*
X0124294Y0178488D01*
X0123810Y0178004D01*
X0122798Y0177037D02*
X0121347Y0177037D01*
X0120863Y0176553D01*
X0120863Y0176069D01*
X0121347Y0175585D01*
X0122314Y0175585D01*
X0122798Y0176069D01*
X0122798Y0177037D01*
X0121831Y0178004D01*
X0120863Y0178488D01*
X0123810Y0176069D02*
X0124294Y0175585D01*
X0125261Y0175585D01*
X0125745Y0176069D01*
X0125745Y0178004D01*
X0125261Y0178488D01*
X0125261Y0172582D02*
X0124294Y0172582D01*
X0123810Y0172099D01*
X0122798Y0172099D02*
X0122798Y0171615D01*
X0122314Y0171131D01*
X0121347Y0171131D01*
X0120863Y0170647D01*
X0120863Y0170164D01*
X0121347Y0169680D01*
X0122314Y0169680D01*
X0122798Y0170164D01*
X0122798Y0170647D01*
X0122314Y0171131D01*
X0121347Y0171131D02*
X0120863Y0171615D01*
X0120863Y0172099D01*
X0121347Y0172582D01*
X0122314Y0172582D01*
X0122798Y0172099D01*
X0123810Y0170164D02*
X0124294Y0169680D01*
X0125261Y0169680D01*
X0125745Y0170164D01*
X0125745Y0172099D01*
X0125261Y0172582D01*
X0125261Y0166677D02*
X0124294Y0166677D01*
X0123810Y0166193D01*
X0122798Y0166677D02*
X0120863Y0166677D01*
X0120863Y0166193D01*
X0122798Y0164258D01*
X0122798Y0163774D01*
X0123810Y0164258D02*
X0124294Y0163774D01*
X0125261Y0163774D01*
X0125745Y0164258D01*
X0125745Y0166193D01*
X0125261Y0166677D01*
M02*
