G75*
%MOIN*%
%OFA0B0*%
%FSLAX25Y25*%
%IPPOS*%
%LPD*%
%AMOC8*
5,1,8,0,0,1.08239X$1,22.5*
%
%ADD10C,0.00000*%
%ADD11R,0.20000X0.09000*%
%ADD12C,0.03969*%
%ADD13R,0.07087X0.04331*%
%ADD14R,0.04331X0.03937*%
%ADD15R,0.03937X0.04331*%
%ADD16R,0.03150X0.03150*%
%ADD17R,0.03937X0.07874*%
%ADD18R,0.01969X0.00984*%
%ADD19R,0.00984X0.01969*%
%ADD20R,0.02953X0.06890*%
%ADD21R,0.02953X0.05906*%
%ADD22R,0.09843X0.08268*%
%ADD23R,0.01575X0.05315*%
%ADD24R,0.02362X0.05315*%
%ADD25R,0.11811X0.03937*%
%ADD26C,0.02775*%
%ADD27C,0.01000*%
%ADD28C,0.00394*%
%ADD29C,0.03562*%
%ADD30C,0.03150*%
%ADD31C,0.04000*%
%ADD32C,0.01600*%
%ADD33C,0.03200*%
D10*
X0114340Y0151282D02*
X0114340Y0280022D01*
X0114346Y0280498D01*
X0114363Y0280973D01*
X0114392Y0281448D01*
X0114432Y0281922D01*
X0114484Y0282395D01*
X0114547Y0282866D01*
X0114621Y0283336D01*
X0114707Y0283804D01*
X0114804Y0284270D01*
X0114912Y0284733D01*
X0115031Y0285193D01*
X0115162Y0285651D01*
X0115303Y0286105D01*
X0115456Y0286556D01*
X0115619Y0287002D01*
X0115793Y0287445D01*
X0115978Y0287883D01*
X0116173Y0288317D01*
X0116379Y0288746D01*
X0116595Y0289170D01*
X0116821Y0289589D01*
X0117057Y0290002D01*
X0117303Y0290409D01*
X0117559Y0290810D01*
X0117825Y0291204D01*
X0118100Y0291593D01*
X0118384Y0291974D01*
X0118677Y0292348D01*
X0118979Y0292716D01*
X0119291Y0293076D01*
X0119610Y0293428D01*
X0119938Y0293772D01*
X0120275Y0294109D01*
X0120619Y0294437D01*
X0120971Y0294756D01*
X0121331Y0295068D01*
X0121699Y0295370D01*
X0122073Y0295663D01*
X0122454Y0295947D01*
X0122843Y0296222D01*
X0123237Y0296488D01*
X0123638Y0296744D01*
X0124045Y0296990D01*
X0124458Y0297226D01*
X0124877Y0297452D01*
X0125301Y0297668D01*
X0125730Y0297874D01*
X0126164Y0298069D01*
X0126602Y0298254D01*
X0127045Y0298428D01*
X0127491Y0298591D01*
X0127942Y0298744D01*
X0128396Y0298885D01*
X0128854Y0299016D01*
X0129314Y0299135D01*
X0129777Y0299243D01*
X0130243Y0299340D01*
X0130711Y0299426D01*
X0131181Y0299500D01*
X0131652Y0299563D01*
X0132125Y0299615D01*
X0132599Y0299655D01*
X0133074Y0299684D01*
X0133549Y0299701D01*
X0134025Y0299707D01*
X0220639Y0299707D01*
X0221115Y0299701D01*
X0221590Y0299684D01*
X0222065Y0299655D01*
X0222539Y0299615D01*
X0223012Y0299563D01*
X0223483Y0299500D01*
X0223953Y0299426D01*
X0224421Y0299340D01*
X0224887Y0299243D01*
X0225350Y0299135D01*
X0225810Y0299016D01*
X0226268Y0298885D01*
X0226722Y0298744D01*
X0227173Y0298591D01*
X0227619Y0298428D01*
X0228062Y0298254D01*
X0228500Y0298069D01*
X0228934Y0297874D01*
X0229363Y0297668D01*
X0229787Y0297452D01*
X0230206Y0297226D01*
X0230619Y0296990D01*
X0231026Y0296744D01*
X0231427Y0296488D01*
X0231821Y0296222D01*
X0232210Y0295947D01*
X0232591Y0295663D01*
X0232965Y0295370D01*
X0233333Y0295068D01*
X0233693Y0294756D01*
X0234045Y0294437D01*
X0234389Y0294109D01*
X0234726Y0293772D01*
X0235054Y0293428D01*
X0235373Y0293076D01*
X0235685Y0292716D01*
X0235987Y0292348D01*
X0236280Y0291974D01*
X0236564Y0291593D01*
X0236839Y0291204D01*
X0237105Y0290810D01*
X0237361Y0290409D01*
X0237607Y0290002D01*
X0237843Y0289589D01*
X0238069Y0289170D01*
X0238285Y0288746D01*
X0238491Y0288317D01*
X0238686Y0287883D01*
X0238871Y0287445D01*
X0239045Y0287002D01*
X0239208Y0286556D01*
X0239361Y0286105D01*
X0239502Y0285651D01*
X0239633Y0285193D01*
X0239752Y0284733D01*
X0239860Y0284270D01*
X0239957Y0283804D01*
X0240043Y0283336D01*
X0240117Y0282866D01*
X0240180Y0282395D01*
X0240232Y0281922D01*
X0240272Y0281448D01*
X0240301Y0280973D01*
X0240318Y0280498D01*
X0240324Y0280022D01*
X0240324Y0151282D01*
X0240318Y0150806D01*
X0240301Y0150331D01*
X0240272Y0149856D01*
X0240232Y0149382D01*
X0240180Y0148909D01*
X0240117Y0148438D01*
X0240043Y0147968D01*
X0239957Y0147500D01*
X0239860Y0147034D01*
X0239752Y0146571D01*
X0239633Y0146111D01*
X0239502Y0145653D01*
X0239361Y0145199D01*
X0239208Y0144748D01*
X0239045Y0144302D01*
X0238871Y0143859D01*
X0238686Y0143421D01*
X0238491Y0142987D01*
X0238285Y0142558D01*
X0238069Y0142134D01*
X0237843Y0141715D01*
X0237607Y0141302D01*
X0237361Y0140895D01*
X0237105Y0140494D01*
X0236839Y0140100D01*
X0236564Y0139711D01*
X0236280Y0139330D01*
X0235987Y0138956D01*
X0235685Y0138588D01*
X0235373Y0138228D01*
X0235054Y0137876D01*
X0234726Y0137532D01*
X0234389Y0137195D01*
X0234045Y0136867D01*
X0233693Y0136548D01*
X0233333Y0136236D01*
X0232965Y0135934D01*
X0232591Y0135641D01*
X0232210Y0135357D01*
X0231821Y0135082D01*
X0231427Y0134816D01*
X0231026Y0134560D01*
X0230619Y0134314D01*
X0230206Y0134078D01*
X0229787Y0133852D01*
X0229363Y0133636D01*
X0228934Y0133430D01*
X0228500Y0133235D01*
X0228062Y0133050D01*
X0227619Y0132876D01*
X0227173Y0132713D01*
X0226722Y0132560D01*
X0226268Y0132419D01*
X0225810Y0132288D01*
X0225350Y0132169D01*
X0224887Y0132061D01*
X0224421Y0131964D01*
X0223953Y0131878D01*
X0223483Y0131804D01*
X0223012Y0131741D01*
X0222539Y0131689D01*
X0222065Y0131649D01*
X0221590Y0131620D01*
X0221115Y0131603D01*
X0220639Y0131597D01*
X0134025Y0131597D01*
X0133549Y0131603D01*
X0133074Y0131620D01*
X0132599Y0131649D01*
X0132125Y0131689D01*
X0131652Y0131741D01*
X0131181Y0131804D01*
X0130711Y0131878D01*
X0130243Y0131964D01*
X0129777Y0132061D01*
X0129314Y0132169D01*
X0128854Y0132288D01*
X0128396Y0132419D01*
X0127942Y0132560D01*
X0127491Y0132713D01*
X0127045Y0132876D01*
X0126602Y0133050D01*
X0126164Y0133235D01*
X0125730Y0133430D01*
X0125301Y0133636D01*
X0124877Y0133852D01*
X0124458Y0134078D01*
X0124045Y0134314D01*
X0123638Y0134560D01*
X0123237Y0134816D01*
X0122843Y0135082D01*
X0122454Y0135357D01*
X0122073Y0135641D01*
X0121699Y0135934D01*
X0121331Y0136236D01*
X0120971Y0136548D01*
X0120619Y0136867D01*
X0120275Y0137195D01*
X0119938Y0137532D01*
X0119610Y0137876D01*
X0119291Y0138228D01*
X0118979Y0138588D01*
X0118677Y0138956D01*
X0118384Y0139330D01*
X0118100Y0139711D01*
X0117825Y0140100D01*
X0117559Y0140494D01*
X0117303Y0140895D01*
X0117057Y0141302D01*
X0116821Y0141715D01*
X0116595Y0142134D01*
X0116379Y0142558D01*
X0116173Y0142987D01*
X0115978Y0143421D01*
X0115793Y0143859D01*
X0115619Y0144302D01*
X0115456Y0144748D01*
X0115303Y0145199D01*
X0115162Y0145653D01*
X0115031Y0146111D01*
X0114912Y0146571D01*
X0114804Y0147034D01*
X0114707Y0147500D01*
X0114621Y0147968D01*
X0114547Y0148438D01*
X0114484Y0148909D01*
X0114432Y0149382D01*
X0114392Y0149856D01*
X0114363Y0150331D01*
X0114346Y0150806D01*
X0114340Y0151282D01*
X0127528Y0204038D02*
X0127530Y0204126D01*
X0127536Y0204214D01*
X0127546Y0204302D01*
X0127560Y0204390D01*
X0127577Y0204476D01*
X0127599Y0204562D01*
X0127624Y0204646D01*
X0127654Y0204730D01*
X0127686Y0204812D01*
X0127723Y0204892D01*
X0127763Y0204971D01*
X0127807Y0205048D01*
X0127854Y0205123D01*
X0127904Y0205195D01*
X0127958Y0205266D01*
X0128014Y0205333D01*
X0128074Y0205399D01*
X0128136Y0205461D01*
X0128202Y0205521D01*
X0128269Y0205577D01*
X0128340Y0205631D01*
X0128412Y0205681D01*
X0128487Y0205728D01*
X0128564Y0205772D01*
X0128643Y0205812D01*
X0128723Y0205849D01*
X0128805Y0205881D01*
X0128889Y0205911D01*
X0128973Y0205936D01*
X0129059Y0205958D01*
X0129145Y0205975D01*
X0129233Y0205989D01*
X0129321Y0205999D01*
X0129409Y0206005D01*
X0129497Y0206007D01*
X0129585Y0206005D01*
X0129673Y0205999D01*
X0129761Y0205989D01*
X0129849Y0205975D01*
X0129935Y0205958D01*
X0130021Y0205936D01*
X0130105Y0205911D01*
X0130189Y0205881D01*
X0130271Y0205849D01*
X0130351Y0205812D01*
X0130430Y0205772D01*
X0130507Y0205728D01*
X0130582Y0205681D01*
X0130654Y0205631D01*
X0130725Y0205577D01*
X0130792Y0205521D01*
X0130858Y0205461D01*
X0130920Y0205399D01*
X0130980Y0205333D01*
X0131036Y0205266D01*
X0131090Y0205195D01*
X0131140Y0205123D01*
X0131187Y0205048D01*
X0131231Y0204971D01*
X0131271Y0204892D01*
X0131308Y0204812D01*
X0131340Y0204730D01*
X0131370Y0204646D01*
X0131395Y0204562D01*
X0131417Y0204476D01*
X0131434Y0204390D01*
X0131448Y0204302D01*
X0131458Y0204214D01*
X0131464Y0204126D01*
X0131466Y0204038D01*
X0131464Y0203950D01*
X0131458Y0203862D01*
X0131448Y0203774D01*
X0131434Y0203686D01*
X0131417Y0203600D01*
X0131395Y0203514D01*
X0131370Y0203430D01*
X0131340Y0203346D01*
X0131308Y0203264D01*
X0131271Y0203184D01*
X0131231Y0203105D01*
X0131187Y0203028D01*
X0131140Y0202953D01*
X0131090Y0202881D01*
X0131036Y0202810D01*
X0130980Y0202743D01*
X0130920Y0202677D01*
X0130858Y0202615D01*
X0130792Y0202555D01*
X0130725Y0202499D01*
X0130654Y0202445D01*
X0130582Y0202395D01*
X0130507Y0202348D01*
X0130430Y0202304D01*
X0130351Y0202264D01*
X0130271Y0202227D01*
X0130189Y0202195D01*
X0130105Y0202165D01*
X0130021Y0202140D01*
X0129935Y0202118D01*
X0129849Y0202101D01*
X0129761Y0202087D01*
X0129673Y0202077D01*
X0129585Y0202071D01*
X0129497Y0202069D01*
X0129409Y0202071D01*
X0129321Y0202077D01*
X0129233Y0202087D01*
X0129145Y0202101D01*
X0129059Y0202118D01*
X0128973Y0202140D01*
X0128889Y0202165D01*
X0128805Y0202195D01*
X0128723Y0202227D01*
X0128643Y0202264D01*
X0128564Y0202304D01*
X0128487Y0202348D01*
X0128412Y0202395D01*
X0128340Y0202445D01*
X0128269Y0202499D01*
X0128202Y0202555D01*
X0128136Y0202615D01*
X0128074Y0202677D01*
X0128014Y0202743D01*
X0127958Y0202810D01*
X0127904Y0202881D01*
X0127854Y0202953D01*
X0127807Y0203028D01*
X0127763Y0203105D01*
X0127723Y0203184D01*
X0127686Y0203264D01*
X0127654Y0203346D01*
X0127624Y0203430D01*
X0127599Y0203514D01*
X0127577Y0203600D01*
X0127560Y0203686D01*
X0127546Y0203774D01*
X0127536Y0203862D01*
X0127530Y0203950D01*
X0127528Y0204038D01*
X0114340Y0212747D02*
X0114340Y0256747D01*
X0159576Y0217896D02*
X0159578Y0218011D01*
X0159584Y0218127D01*
X0159594Y0218242D01*
X0159608Y0218357D01*
X0159626Y0218471D01*
X0159648Y0218584D01*
X0159673Y0218697D01*
X0159703Y0218808D01*
X0159736Y0218919D01*
X0159773Y0219028D01*
X0159814Y0219136D01*
X0159859Y0219243D01*
X0159907Y0219348D01*
X0159959Y0219451D01*
X0160015Y0219552D01*
X0160074Y0219652D01*
X0160136Y0219749D01*
X0160202Y0219844D01*
X0160270Y0219937D01*
X0160342Y0220027D01*
X0160417Y0220115D01*
X0160496Y0220200D01*
X0160577Y0220282D01*
X0160660Y0220362D01*
X0160747Y0220438D01*
X0160836Y0220512D01*
X0160927Y0220582D01*
X0161021Y0220650D01*
X0161117Y0220714D01*
X0161216Y0220774D01*
X0161316Y0220831D01*
X0161418Y0220885D01*
X0161522Y0220935D01*
X0161628Y0220982D01*
X0161735Y0221025D01*
X0161844Y0221064D01*
X0161954Y0221099D01*
X0162065Y0221130D01*
X0162177Y0221158D01*
X0162290Y0221182D01*
X0162404Y0221202D01*
X0162519Y0221218D01*
X0162634Y0221230D01*
X0162749Y0221238D01*
X0162864Y0221242D01*
X0162980Y0221242D01*
X0163095Y0221238D01*
X0163210Y0221230D01*
X0163325Y0221218D01*
X0163440Y0221202D01*
X0163554Y0221182D01*
X0163667Y0221158D01*
X0163779Y0221130D01*
X0163890Y0221099D01*
X0164000Y0221064D01*
X0164109Y0221025D01*
X0164216Y0220982D01*
X0164322Y0220935D01*
X0164426Y0220885D01*
X0164528Y0220831D01*
X0164628Y0220774D01*
X0164727Y0220714D01*
X0164823Y0220650D01*
X0164917Y0220582D01*
X0165008Y0220512D01*
X0165097Y0220438D01*
X0165184Y0220362D01*
X0165267Y0220282D01*
X0165348Y0220200D01*
X0165427Y0220115D01*
X0165502Y0220027D01*
X0165574Y0219937D01*
X0165642Y0219844D01*
X0165708Y0219749D01*
X0165770Y0219652D01*
X0165829Y0219552D01*
X0165885Y0219451D01*
X0165937Y0219348D01*
X0165985Y0219243D01*
X0166030Y0219136D01*
X0166071Y0219028D01*
X0166108Y0218919D01*
X0166141Y0218808D01*
X0166171Y0218697D01*
X0166196Y0218584D01*
X0166218Y0218471D01*
X0166236Y0218357D01*
X0166250Y0218242D01*
X0166260Y0218127D01*
X0166266Y0218011D01*
X0166268Y0217896D01*
X0166266Y0217781D01*
X0166260Y0217665D01*
X0166250Y0217550D01*
X0166236Y0217435D01*
X0166218Y0217321D01*
X0166196Y0217208D01*
X0166171Y0217095D01*
X0166141Y0216984D01*
X0166108Y0216873D01*
X0166071Y0216764D01*
X0166030Y0216656D01*
X0165985Y0216549D01*
X0165937Y0216444D01*
X0165885Y0216341D01*
X0165829Y0216240D01*
X0165770Y0216140D01*
X0165708Y0216043D01*
X0165642Y0215948D01*
X0165574Y0215855D01*
X0165502Y0215765D01*
X0165427Y0215677D01*
X0165348Y0215592D01*
X0165267Y0215510D01*
X0165184Y0215430D01*
X0165097Y0215354D01*
X0165008Y0215280D01*
X0164917Y0215210D01*
X0164823Y0215142D01*
X0164727Y0215078D01*
X0164628Y0215018D01*
X0164528Y0214961D01*
X0164426Y0214907D01*
X0164322Y0214857D01*
X0164216Y0214810D01*
X0164109Y0214767D01*
X0164000Y0214728D01*
X0163890Y0214693D01*
X0163779Y0214662D01*
X0163667Y0214634D01*
X0163554Y0214610D01*
X0163440Y0214590D01*
X0163325Y0214574D01*
X0163210Y0214562D01*
X0163095Y0214554D01*
X0162980Y0214550D01*
X0162864Y0214550D01*
X0162749Y0214554D01*
X0162634Y0214562D01*
X0162519Y0214574D01*
X0162404Y0214590D01*
X0162290Y0214610D01*
X0162177Y0214634D01*
X0162065Y0214662D01*
X0161954Y0214693D01*
X0161844Y0214728D01*
X0161735Y0214767D01*
X0161628Y0214810D01*
X0161522Y0214857D01*
X0161418Y0214907D01*
X0161316Y0214961D01*
X0161216Y0215018D01*
X0161117Y0215078D01*
X0161021Y0215142D01*
X0160927Y0215210D01*
X0160836Y0215280D01*
X0160747Y0215354D01*
X0160660Y0215430D01*
X0160577Y0215510D01*
X0160496Y0215592D01*
X0160417Y0215677D01*
X0160342Y0215765D01*
X0160270Y0215855D01*
X0160202Y0215948D01*
X0160136Y0216043D01*
X0160074Y0216140D01*
X0160015Y0216240D01*
X0159959Y0216341D01*
X0159907Y0216444D01*
X0159859Y0216549D01*
X0159814Y0216656D01*
X0159773Y0216764D01*
X0159736Y0216873D01*
X0159703Y0216984D01*
X0159673Y0217095D01*
X0159648Y0217208D01*
X0159626Y0217321D01*
X0159608Y0217435D01*
X0159594Y0217550D01*
X0159584Y0217665D01*
X0159578Y0217781D01*
X0159576Y0217896D01*
X0171919Y0245219D02*
X0171921Y0245319D01*
X0171927Y0245419D01*
X0171937Y0245519D01*
X0171951Y0245619D01*
X0171968Y0245717D01*
X0171990Y0245815D01*
X0172016Y0245912D01*
X0172045Y0246008D01*
X0172078Y0246103D01*
X0172115Y0246196D01*
X0172155Y0246288D01*
X0172199Y0246378D01*
X0172247Y0246467D01*
X0172298Y0246553D01*
X0172352Y0246637D01*
X0172410Y0246719D01*
X0172471Y0246799D01*
X0172535Y0246877D01*
X0172602Y0246951D01*
X0172672Y0247023D01*
X0172744Y0247092D01*
X0172820Y0247159D01*
X0172897Y0247222D01*
X0172978Y0247282D01*
X0173060Y0247339D01*
X0173145Y0247392D01*
X0173232Y0247442D01*
X0173321Y0247489D01*
X0173412Y0247532D01*
X0173504Y0247572D01*
X0173597Y0247608D01*
X0173693Y0247640D01*
X0173789Y0247668D01*
X0173886Y0247693D01*
X0173984Y0247713D01*
X0174083Y0247730D01*
X0174183Y0247743D01*
X0174283Y0247752D01*
X0174383Y0247757D01*
X0174483Y0247758D01*
X0174583Y0247755D01*
X0174683Y0247748D01*
X0174783Y0247737D01*
X0174882Y0247722D01*
X0174981Y0247704D01*
X0175079Y0247681D01*
X0175176Y0247655D01*
X0175271Y0247624D01*
X0175366Y0247590D01*
X0175459Y0247553D01*
X0175550Y0247511D01*
X0175640Y0247466D01*
X0175728Y0247418D01*
X0175813Y0247366D01*
X0175897Y0247311D01*
X0175979Y0247252D01*
X0176058Y0247191D01*
X0176134Y0247126D01*
X0176208Y0247058D01*
X0176280Y0246988D01*
X0176348Y0246914D01*
X0176414Y0246838D01*
X0176476Y0246760D01*
X0176535Y0246679D01*
X0176591Y0246596D01*
X0176644Y0246510D01*
X0176693Y0246423D01*
X0176739Y0246334D01*
X0176782Y0246243D01*
X0176820Y0246150D01*
X0176855Y0246056D01*
X0176886Y0245961D01*
X0176914Y0245864D01*
X0176937Y0245766D01*
X0176957Y0245668D01*
X0176973Y0245569D01*
X0176985Y0245469D01*
X0176993Y0245369D01*
X0176997Y0245269D01*
X0176997Y0245169D01*
X0176993Y0245069D01*
X0176985Y0244969D01*
X0176973Y0244869D01*
X0176957Y0244770D01*
X0176937Y0244672D01*
X0176914Y0244574D01*
X0176886Y0244477D01*
X0176855Y0244382D01*
X0176820Y0244288D01*
X0176782Y0244195D01*
X0176739Y0244104D01*
X0176693Y0244015D01*
X0176644Y0243928D01*
X0176591Y0243842D01*
X0176535Y0243759D01*
X0176476Y0243678D01*
X0176414Y0243600D01*
X0176348Y0243524D01*
X0176280Y0243450D01*
X0176208Y0243380D01*
X0176134Y0243312D01*
X0176058Y0243247D01*
X0175979Y0243186D01*
X0175897Y0243127D01*
X0175813Y0243072D01*
X0175727Y0243020D01*
X0175640Y0242972D01*
X0175550Y0242927D01*
X0175459Y0242885D01*
X0175366Y0242848D01*
X0175271Y0242814D01*
X0175176Y0242783D01*
X0175079Y0242757D01*
X0174981Y0242734D01*
X0174882Y0242716D01*
X0174783Y0242701D01*
X0174683Y0242690D01*
X0174583Y0242683D01*
X0174483Y0242680D01*
X0174383Y0242681D01*
X0174283Y0242686D01*
X0174183Y0242695D01*
X0174083Y0242708D01*
X0173984Y0242725D01*
X0173886Y0242745D01*
X0173789Y0242770D01*
X0173693Y0242798D01*
X0173597Y0242830D01*
X0173504Y0242866D01*
X0173412Y0242906D01*
X0173321Y0242949D01*
X0173232Y0242996D01*
X0173145Y0243046D01*
X0173060Y0243099D01*
X0172978Y0243156D01*
X0172897Y0243216D01*
X0172820Y0243279D01*
X0172744Y0243346D01*
X0172672Y0243415D01*
X0172602Y0243487D01*
X0172535Y0243561D01*
X0172471Y0243639D01*
X0172410Y0243719D01*
X0172352Y0243801D01*
X0172298Y0243885D01*
X0172247Y0243971D01*
X0172199Y0244060D01*
X0172155Y0244150D01*
X0172115Y0244242D01*
X0172078Y0244335D01*
X0172045Y0244430D01*
X0172016Y0244526D01*
X0171990Y0244623D01*
X0171968Y0244721D01*
X0171951Y0244819D01*
X0171937Y0244919D01*
X0171927Y0245019D01*
X0171921Y0245119D01*
X0171919Y0245219D01*
X0201879Y0240967D02*
X0201881Y0241068D01*
X0201887Y0241169D01*
X0201897Y0241270D01*
X0201911Y0241370D01*
X0201929Y0241470D01*
X0201950Y0241569D01*
X0201976Y0241667D01*
X0202005Y0241764D01*
X0202038Y0241860D01*
X0202075Y0241954D01*
X0202116Y0242047D01*
X0202160Y0242138D01*
X0202208Y0242227D01*
X0202259Y0242315D01*
X0202314Y0242400D01*
X0202372Y0242483D01*
X0202433Y0242564D01*
X0202497Y0242642D01*
X0202564Y0242718D01*
X0202634Y0242791D01*
X0202707Y0242861D01*
X0202783Y0242928D01*
X0202861Y0242992D01*
X0202942Y0243053D01*
X0203025Y0243111D01*
X0203110Y0243166D01*
X0203198Y0243217D01*
X0203287Y0243265D01*
X0203378Y0243309D01*
X0203471Y0243350D01*
X0203565Y0243387D01*
X0203661Y0243420D01*
X0203758Y0243449D01*
X0203856Y0243475D01*
X0203955Y0243496D01*
X0204055Y0243514D01*
X0204155Y0243528D01*
X0204256Y0243538D01*
X0204357Y0243544D01*
X0204458Y0243546D01*
X0204559Y0243544D01*
X0204660Y0243538D01*
X0204761Y0243528D01*
X0204861Y0243514D01*
X0204961Y0243496D01*
X0205060Y0243475D01*
X0205158Y0243449D01*
X0205255Y0243420D01*
X0205351Y0243387D01*
X0205445Y0243350D01*
X0205538Y0243309D01*
X0205629Y0243265D01*
X0205718Y0243217D01*
X0205806Y0243166D01*
X0205891Y0243111D01*
X0205974Y0243053D01*
X0206055Y0242992D01*
X0206133Y0242928D01*
X0206209Y0242861D01*
X0206282Y0242791D01*
X0206352Y0242718D01*
X0206419Y0242642D01*
X0206483Y0242564D01*
X0206544Y0242483D01*
X0206602Y0242400D01*
X0206657Y0242315D01*
X0206708Y0242227D01*
X0206756Y0242138D01*
X0206800Y0242047D01*
X0206841Y0241954D01*
X0206878Y0241860D01*
X0206911Y0241764D01*
X0206940Y0241667D01*
X0206966Y0241569D01*
X0206987Y0241470D01*
X0207005Y0241370D01*
X0207019Y0241270D01*
X0207029Y0241169D01*
X0207035Y0241068D01*
X0207037Y0240967D01*
X0207035Y0240866D01*
X0207029Y0240765D01*
X0207019Y0240664D01*
X0207005Y0240564D01*
X0206987Y0240464D01*
X0206966Y0240365D01*
X0206940Y0240267D01*
X0206911Y0240170D01*
X0206878Y0240074D01*
X0206841Y0239980D01*
X0206800Y0239887D01*
X0206756Y0239796D01*
X0206708Y0239707D01*
X0206657Y0239619D01*
X0206602Y0239534D01*
X0206544Y0239451D01*
X0206483Y0239370D01*
X0206419Y0239292D01*
X0206352Y0239216D01*
X0206282Y0239143D01*
X0206209Y0239073D01*
X0206133Y0239006D01*
X0206055Y0238942D01*
X0205974Y0238881D01*
X0205891Y0238823D01*
X0205806Y0238768D01*
X0205718Y0238717D01*
X0205629Y0238669D01*
X0205538Y0238625D01*
X0205445Y0238584D01*
X0205351Y0238547D01*
X0205255Y0238514D01*
X0205158Y0238485D01*
X0205060Y0238459D01*
X0204961Y0238438D01*
X0204861Y0238420D01*
X0204761Y0238406D01*
X0204660Y0238396D01*
X0204559Y0238390D01*
X0204458Y0238388D01*
X0204357Y0238390D01*
X0204256Y0238396D01*
X0204155Y0238406D01*
X0204055Y0238420D01*
X0203955Y0238438D01*
X0203856Y0238459D01*
X0203758Y0238485D01*
X0203661Y0238514D01*
X0203565Y0238547D01*
X0203471Y0238584D01*
X0203378Y0238625D01*
X0203287Y0238669D01*
X0203198Y0238717D01*
X0203110Y0238768D01*
X0203025Y0238823D01*
X0202942Y0238881D01*
X0202861Y0238942D01*
X0202783Y0239006D01*
X0202707Y0239073D01*
X0202634Y0239143D01*
X0202564Y0239216D01*
X0202497Y0239292D01*
X0202433Y0239370D01*
X0202372Y0239451D01*
X0202314Y0239534D01*
X0202259Y0239619D01*
X0202208Y0239707D01*
X0202160Y0239796D01*
X0202116Y0239887D01*
X0202075Y0239980D01*
X0202038Y0240074D01*
X0202005Y0240170D01*
X0201976Y0240267D01*
X0201950Y0240365D01*
X0201929Y0240464D01*
X0201911Y0240564D01*
X0201897Y0240664D01*
X0201887Y0240765D01*
X0201881Y0240866D01*
X0201879Y0240967D01*
X0200442Y0207660D02*
X0200444Y0207765D01*
X0200450Y0207870D01*
X0200460Y0207974D01*
X0200474Y0208078D01*
X0200492Y0208182D01*
X0200514Y0208284D01*
X0200539Y0208386D01*
X0200569Y0208487D01*
X0200602Y0208586D01*
X0200639Y0208684D01*
X0200680Y0208781D01*
X0200725Y0208876D01*
X0200773Y0208969D01*
X0200824Y0209061D01*
X0200880Y0209150D01*
X0200938Y0209237D01*
X0201000Y0209322D01*
X0201064Y0209405D01*
X0201132Y0209485D01*
X0201203Y0209562D01*
X0201277Y0209636D01*
X0201354Y0209708D01*
X0201433Y0209777D01*
X0201515Y0209842D01*
X0201599Y0209905D01*
X0201686Y0209964D01*
X0201775Y0210020D01*
X0201866Y0210073D01*
X0201959Y0210122D01*
X0202053Y0210167D01*
X0202149Y0210209D01*
X0202247Y0210247D01*
X0202346Y0210281D01*
X0202447Y0210312D01*
X0202548Y0210338D01*
X0202651Y0210361D01*
X0202754Y0210380D01*
X0202858Y0210395D01*
X0202962Y0210406D01*
X0203067Y0210413D01*
X0203172Y0210416D01*
X0203277Y0210415D01*
X0203382Y0210410D01*
X0203486Y0210401D01*
X0203590Y0210388D01*
X0203694Y0210371D01*
X0203797Y0210350D01*
X0203899Y0210325D01*
X0204000Y0210297D01*
X0204099Y0210264D01*
X0204198Y0210228D01*
X0204295Y0210188D01*
X0204390Y0210145D01*
X0204484Y0210097D01*
X0204576Y0210047D01*
X0204666Y0209993D01*
X0204754Y0209935D01*
X0204839Y0209874D01*
X0204922Y0209810D01*
X0205003Y0209743D01*
X0205081Y0209673D01*
X0205156Y0209599D01*
X0205228Y0209524D01*
X0205298Y0209445D01*
X0205364Y0209364D01*
X0205428Y0209280D01*
X0205488Y0209194D01*
X0205544Y0209106D01*
X0205598Y0209015D01*
X0205648Y0208923D01*
X0205694Y0208829D01*
X0205737Y0208733D01*
X0205776Y0208635D01*
X0205811Y0208537D01*
X0205842Y0208436D01*
X0205870Y0208335D01*
X0205894Y0208233D01*
X0205914Y0208130D01*
X0205930Y0208026D01*
X0205942Y0207922D01*
X0205950Y0207817D01*
X0205954Y0207712D01*
X0205954Y0207608D01*
X0205950Y0207503D01*
X0205942Y0207398D01*
X0205930Y0207294D01*
X0205914Y0207190D01*
X0205894Y0207087D01*
X0205870Y0206985D01*
X0205842Y0206884D01*
X0205811Y0206783D01*
X0205776Y0206685D01*
X0205737Y0206587D01*
X0205694Y0206491D01*
X0205648Y0206397D01*
X0205598Y0206305D01*
X0205544Y0206214D01*
X0205488Y0206126D01*
X0205428Y0206040D01*
X0205364Y0205956D01*
X0205298Y0205875D01*
X0205228Y0205796D01*
X0205156Y0205721D01*
X0205081Y0205647D01*
X0205003Y0205577D01*
X0204922Y0205510D01*
X0204839Y0205446D01*
X0204754Y0205385D01*
X0204666Y0205327D01*
X0204576Y0205273D01*
X0204484Y0205223D01*
X0204390Y0205175D01*
X0204295Y0205132D01*
X0204198Y0205092D01*
X0204099Y0205056D01*
X0204000Y0205023D01*
X0203899Y0204995D01*
X0203797Y0204970D01*
X0203694Y0204949D01*
X0203590Y0204932D01*
X0203486Y0204919D01*
X0203382Y0204910D01*
X0203277Y0204905D01*
X0203172Y0204904D01*
X0203067Y0204907D01*
X0202962Y0204914D01*
X0202858Y0204925D01*
X0202754Y0204940D01*
X0202651Y0204959D01*
X0202548Y0204982D01*
X0202447Y0205008D01*
X0202346Y0205039D01*
X0202247Y0205073D01*
X0202149Y0205111D01*
X0202053Y0205153D01*
X0201959Y0205198D01*
X0201866Y0205247D01*
X0201775Y0205300D01*
X0201686Y0205356D01*
X0201599Y0205415D01*
X0201515Y0205478D01*
X0201433Y0205543D01*
X0201354Y0205612D01*
X0201277Y0205684D01*
X0201203Y0205758D01*
X0201132Y0205835D01*
X0201064Y0205915D01*
X0201000Y0205998D01*
X0200938Y0206083D01*
X0200880Y0206170D01*
X0200824Y0206259D01*
X0200773Y0206351D01*
X0200725Y0206444D01*
X0200680Y0206539D01*
X0200639Y0206636D01*
X0200602Y0206734D01*
X0200569Y0206833D01*
X0200539Y0206934D01*
X0200514Y0207036D01*
X0200492Y0207138D01*
X0200474Y0207242D01*
X0200460Y0207346D01*
X0200450Y0207450D01*
X0200444Y0207555D01*
X0200442Y0207660D01*
X0198395Y0202542D02*
X0198397Y0202640D01*
X0198403Y0202738D01*
X0198413Y0202836D01*
X0198427Y0202934D01*
X0198444Y0203030D01*
X0198466Y0203126D01*
X0198491Y0203221D01*
X0198521Y0203315D01*
X0198554Y0203408D01*
X0198590Y0203499D01*
X0198631Y0203588D01*
X0198675Y0203676D01*
X0198722Y0203762D01*
X0198773Y0203847D01*
X0198827Y0203929D01*
X0198885Y0204008D01*
X0198945Y0204086D01*
X0199009Y0204161D01*
X0199076Y0204233D01*
X0199145Y0204302D01*
X0199217Y0204369D01*
X0199292Y0204433D01*
X0199370Y0204493D01*
X0199449Y0204551D01*
X0199531Y0204605D01*
X0199615Y0204656D01*
X0199702Y0204703D01*
X0199790Y0204747D01*
X0199879Y0204788D01*
X0199970Y0204824D01*
X0200063Y0204857D01*
X0200157Y0204887D01*
X0200252Y0204912D01*
X0200348Y0204934D01*
X0200444Y0204951D01*
X0200542Y0204965D01*
X0200640Y0204975D01*
X0200738Y0204981D01*
X0200836Y0204983D01*
X0200934Y0204981D01*
X0201032Y0204975D01*
X0201130Y0204965D01*
X0201228Y0204951D01*
X0201324Y0204934D01*
X0201420Y0204912D01*
X0201515Y0204887D01*
X0201609Y0204857D01*
X0201702Y0204824D01*
X0201793Y0204788D01*
X0201882Y0204747D01*
X0201970Y0204703D01*
X0202056Y0204656D01*
X0202141Y0204605D01*
X0202223Y0204551D01*
X0202302Y0204493D01*
X0202380Y0204433D01*
X0202455Y0204369D01*
X0202527Y0204302D01*
X0202596Y0204233D01*
X0202663Y0204161D01*
X0202727Y0204086D01*
X0202787Y0204008D01*
X0202845Y0203929D01*
X0202899Y0203847D01*
X0202950Y0203763D01*
X0202997Y0203676D01*
X0203041Y0203588D01*
X0203082Y0203499D01*
X0203118Y0203408D01*
X0203151Y0203315D01*
X0203181Y0203221D01*
X0203206Y0203126D01*
X0203228Y0203030D01*
X0203245Y0202934D01*
X0203259Y0202836D01*
X0203269Y0202738D01*
X0203275Y0202640D01*
X0203277Y0202542D01*
X0203275Y0202444D01*
X0203269Y0202346D01*
X0203259Y0202248D01*
X0203245Y0202150D01*
X0203228Y0202054D01*
X0203206Y0201958D01*
X0203181Y0201863D01*
X0203151Y0201769D01*
X0203118Y0201676D01*
X0203082Y0201585D01*
X0203041Y0201496D01*
X0202997Y0201408D01*
X0202950Y0201322D01*
X0202899Y0201237D01*
X0202845Y0201155D01*
X0202787Y0201076D01*
X0202727Y0200998D01*
X0202663Y0200923D01*
X0202596Y0200851D01*
X0202527Y0200782D01*
X0202455Y0200715D01*
X0202380Y0200651D01*
X0202302Y0200591D01*
X0202223Y0200533D01*
X0202141Y0200479D01*
X0202057Y0200428D01*
X0201970Y0200381D01*
X0201882Y0200337D01*
X0201793Y0200296D01*
X0201702Y0200260D01*
X0201609Y0200227D01*
X0201515Y0200197D01*
X0201420Y0200172D01*
X0201324Y0200150D01*
X0201228Y0200133D01*
X0201130Y0200119D01*
X0201032Y0200109D01*
X0200934Y0200103D01*
X0200836Y0200101D01*
X0200738Y0200103D01*
X0200640Y0200109D01*
X0200542Y0200119D01*
X0200444Y0200133D01*
X0200348Y0200150D01*
X0200252Y0200172D01*
X0200157Y0200197D01*
X0200063Y0200227D01*
X0199970Y0200260D01*
X0199879Y0200296D01*
X0199790Y0200337D01*
X0199702Y0200381D01*
X0199616Y0200428D01*
X0199531Y0200479D01*
X0199449Y0200533D01*
X0199370Y0200591D01*
X0199292Y0200651D01*
X0199217Y0200715D01*
X0199145Y0200782D01*
X0199076Y0200851D01*
X0199009Y0200923D01*
X0198945Y0200998D01*
X0198885Y0201076D01*
X0198827Y0201155D01*
X0198773Y0201237D01*
X0198722Y0201321D01*
X0198675Y0201408D01*
X0198631Y0201496D01*
X0198590Y0201585D01*
X0198554Y0201676D01*
X0198521Y0201769D01*
X0198491Y0201863D01*
X0198466Y0201958D01*
X0198444Y0202054D01*
X0198427Y0202150D01*
X0198413Y0202248D01*
X0198403Y0202346D01*
X0198397Y0202444D01*
X0198395Y0202542D01*
X0160599Y0168605D02*
X0160601Y0168684D01*
X0160607Y0168763D01*
X0160617Y0168842D01*
X0160631Y0168920D01*
X0160648Y0168997D01*
X0160670Y0169073D01*
X0160695Y0169148D01*
X0160725Y0169221D01*
X0160757Y0169293D01*
X0160794Y0169364D01*
X0160834Y0169432D01*
X0160877Y0169498D01*
X0160923Y0169562D01*
X0160973Y0169624D01*
X0161026Y0169683D01*
X0161081Y0169739D01*
X0161140Y0169793D01*
X0161201Y0169843D01*
X0161264Y0169891D01*
X0161330Y0169935D01*
X0161398Y0169976D01*
X0161468Y0170013D01*
X0161539Y0170047D01*
X0161613Y0170077D01*
X0161687Y0170103D01*
X0161763Y0170125D01*
X0161840Y0170144D01*
X0161918Y0170159D01*
X0161996Y0170170D01*
X0162075Y0170177D01*
X0162154Y0170180D01*
X0162233Y0170179D01*
X0162312Y0170174D01*
X0162391Y0170165D01*
X0162469Y0170152D01*
X0162546Y0170135D01*
X0162623Y0170115D01*
X0162698Y0170090D01*
X0162772Y0170062D01*
X0162845Y0170030D01*
X0162915Y0169995D01*
X0162984Y0169956D01*
X0163051Y0169913D01*
X0163116Y0169867D01*
X0163178Y0169819D01*
X0163238Y0169767D01*
X0163295Y0169712D01*
X0163349Y0169654D01*
X0163400Y0169594D01*
X0163448Y0169531D01*
X0163493Y0169466D01*
X0163535Y0169398D01*
X0163573Y0169329D01*
X0163607Y0169258D01*
X0163638Y0169185D01*
X0163666Y0169110D01*
X0163689Y0169035D01*
X0163709Y0168958D01*
X0163725Y0168881D01*
X0163737Y0168802D01*
X0163745Y0168724D01*
X0163749Y0168645D01*
X0163749Y0168565D01*
X0163745Y0168486D01*
X0163737Y0168408D01*
X0163725Y0168329D01*
X0163709Y0168252D01*
X0163689Y0168175D01*
X0163666Y0168100D01*
X0163638Y0168025D01*
X0163607Y0167952D01*
X0163573Y0167881D01*
X0163535Y0167812D01*
X0163493Y0167744D01*
X0163448Y0167679D01*
X0163400Y0167616D01*
X0163349Y0167556D01*
X0163295Y0167498D01*
X0163238Y0167443D01*
X0163178Y0167391D01*
X0163116Y0167343D01*
X0163051Y0167297D01*
X0162984Y0167254D01*
X0162915Y0167215D01*
X0162845Y0167180D01*
X0162772Y0167148D01*
X0162698Y0167120D01*
X0162623Y0167095D01*
X0162546Y0167075D01*
X0162469Y0167058D01*
X0162391Y0167045D01*
X0162312Y0167036D01*
X0162233Y0167031D01*
X0162154Y0167030D01*
X0162075Y0167033D01*
X0161996Y0167040D01*
X0161918Y0167051D01*
X0161840Y0167066D01*
X0161763Y0167085D01*
X0161687Y0167107D01*
X0161613Y0167133D01*
X0161539Y0167163D01*
X0161468Y0167197D01*
X0161398Y0167234D01*
X0161330Y0167275D01*
X0161264Y0167319D01*
X0161201Y0167367D01*
X0161140Y0167417D01*
X0161081Y0167471D01*
X0161026Y0167527D01*
X0160973Y0167586D01*
X0160923Y0167648D01*
X0160877Y0167712D01*
X0160834Y0167778D01*
X0160794Y0167846D01*
X0160757Y0167917D01*
X0160725Y0167989D01*
X0160695Y0168062D01*
X0160670Y0168137D01*
X0160648Y0168213D01*
X0160631Y0168290D01*
X0160617Y0168368D01*
X0160607Y0168447D01*
X0160601Y0168526D01*
X0160599Y0168605D01*
D11*
X0124440Y0217347D03*
X0124440Y0252147D03*
D12*
X0129481Y0272837D02*
X0133450Y0272837D01*
X0133450Y0277758D02*
X0129481Y0277758D01*
X0191292Y0279333D02*
X0195261Y0279333D01*
X0195261Y0274412D02*
X0191292Y0274412D01*
X0132662Y0155514D02*
X0128694Y0155514D01*
X0128694Y0150593D02*
X0132662Y0150593D01*
X0132662Y0145672D02*
X0128694Y0145672D01*
X0128694Y0140750D02*
X0132662Y0140750D01*
D13*
X0143473Y0142817D03*
X0143473Y0157384D03*
X0167883Y0157384D03*
X0167883Y0142817D03*
D14*
X0174970Y0157384D03*
X0174970Y0164077D03*
X0169064Y0176715D03*
X0169064Y0186715D03*
X0169064Y0196715D03*
X0122607Y0196715D03*
X0122607Y0186715D03*
X0122607Y0176715D03*
X0152922Y0262502D03*
X0158828Y0262502D03*
X0158828Y0269195D03*
X0152922Y0269195D03*
X0141899Y0277857D03*
X0141899Y0284550D03*
X0169851Y0269195D03*
X0175757Y0269195D03*
X0175757Y0262502D03*
X0169851Y0262502D03*
X0227725Y0277463D03*
X0227725Y0284156D03*
X0224182Y0175101D03*
X0224182Y0168408D03*
D15*
X0223985Y0162306D03*
X0223985Y0156400D03*
X0230678Y0156400D03*
X0230678Y0162306D03*
X0211387Y0274117D03*
X0211387Y0280022D03*
X0204694Y0280022D03*
X0204694Y0274117D03*
X0215324Y0287109D03*
X0222017Y0287109D03*
X0148395Y0290652D03*
X0141702Y0290652D03*
D16*
X0215718Y0292227D03*
X0221623Y0292227D03*
X0232844Y0283762D03*
X0232844Y0277857D03*
X0230875Y0174707D03*
X0230875Y0168802D03*
D17*
X0233040Y0185140D03*
X0227135Y0185140D03*
X0221229Y0185140D03*
X0215324Y0185140D03*
X0209418Y0185140D03*
X0203513Y0185140D03*
X0197607Y0185140D03*
X0191702Y0185140D03*
X0185796Y0185140D03*
X0179891Y0185140D03*
X0179891Y0248132D03*
X0185796Y0248132D03*
X0191702Y0248132D03*
X0197607Y0248132D03*
X0203513Y0248132D03*
X0209418Y0248132D03*
X0215324Y0248132D03*
X0221229Y0248132D03*
X0227135Y0248132D03*
X0233040Y0248132D03*
D18*
X0171623Y0276302D03*
X0171623Y0278270D03*
X0171623Y0280239D03*
X0171623Y0282207D03*
X0171623Y0284176D03*
X0171623Y0286144D03*
X0171623Y0288113D03*
X0171623Y0290081D03*
X0171623Y0292050D03*
X0171623Y0294018D03*
X0171623Y0295987D03*
X0157056Y0295987D03*
X0157056Y0294018D03*
X0157056Y0292050D03*
X0157056Y0290081D03*
X0157056Y0288113D03*
X0157056Y0286144D03*
X0157056Y0284176D03*
X0157056Y0282207D03*
X0157056Y0280239D03*
X0157056Y0278270D03*
X0157056Y0276302D03*
D19*
X0159418Y0273939D03*
X0161387Y0273939D03*
X0163355Y0273939D03*
X0165324Y0273939D03*
X0167292Y0273939D03*
X0169261Y0273939D03*
D20*
X0167785Y0291065D03*
D21*
X0160895Y0291558D03*
D22*
X0164340Y0280554D03*
D23*
X0194753Y0173034D03*
X0197312Y0173034D03*
X0199871Y0173034D03*
X0202430Y0173034D03*
X0204989Y0173034D03*
X0207548Y0173034D03*
X0210107Y0173034D03*
X0212666Y0173034D03*
X0212666Y0150002D03*
X0210107Y0150002D03*
X0207548Y0150002D03*
X0204989Y0150002D03*
X0202430Y0150002D03*
X0199871Y0150002D03*
X0197312Y0150002D03*
X0194753Y0150002D03*
D24*
X0191800Y0150002D03*
X0191800Y0173034D03*
X0215619Y0173034D03*
X0215619Y0150002D03*
D25*
X0145836Y0165849D03*
X0145836Y0207581D03*
D26*
X0133237Y0197345D03*
X0121820Y0206794D03*
X0120639Y0230809D03*
X0124182Y0230809D03*
X0127725Y0230809D03*
X0131269Y0230809D03*
X0134812Y0230809D03*
X0138355Y0230809D03*
X0138355Y0238684D03*
X0134812Y0238684D03*
X0131269Y0238684D03*
X0127725Y0238684D03*
X0124182Y0238684D03*
X0120639Y0238684D03*
X0117096Y0238684D03*
X0117096Y0230809D03*
X0154103Y0274904D03*
X0152135Y0281991D03*
X0161977Y0282778D03*
X0161977Y0278447D03*
X0166702Y0278447D03*
X0166702Y0282778D03*
X0182844Y0294983D03*
X0191111Y0287502D03*
X0199773Y0294983D03*
X0221820Y0281203D03*
X0231662Y0290258D03*
X0224182Y0257187D03*
X0219851Y0257187D03*
X0215521Y0239077D03*
X0211584Y0227266D03*
X0217096Y0215061D03*
X0195442Y0226085D03*
X0195048Y0238290D03*
X0183631Y0238290D03*
X0179694Y0238290D03*
X0168277Y0246558D03*
X0163946Y0254825D03*
X0163552Y0230809D03*
X0163552Y0202463D03*
X0160796Y0186715D03*
X0156859Y0182778D03*
X0156859Y0178447D03*
X0156859Y0169786D03*
X0167489Y0163880D03*
X0170639Y0150495D03*
X0179300Y0150495D03*
X0189930Y0143014D03*
X0193867Y0143014D03*
X0197804Y0143014D03*
X0201741Y0143014D03*
X0205678Y0143014D03*
X0209615Y0143014D03*
X0217489Y0143014D03*
X0217883Y0136321D03*
X0213552Y0156400D03*
X0203710Y0157187D03*
X0201111Y0168172D03*
X0187174Y0173329D03*
X0185993Y0168211D03*
X0183237Y0173329D03*
X0179300Y0173329D03*
X0161190Y0150495D03*
X0167096Y0135534D03*
X0187962Y0135928D03*
X0140324Y0151282D03*
X0120245Y0164274D03*
X0192686Y0205219D03*
X0235206Y0159353D03*
X0235206Y0152463D03*
X0237568Y0254825D03*
X0201348Y0264274D03*
X0187174Y0258369D03*
X0132450Y0290652D03*
D27*
X0141899Y0284550D02*
X0143493Y0286144D01*
X0157056Y0286144D01*
X0157056Y0282207D02*
X0152351Y0282207D01*
X0152135Y0281991D01*
X0155107Y0280239D02*
X0152922Y0278054D01*
X0142096Y0278054D01*
X0141899Y0277857D01*
X0154103Y0274904D02*
X0155501Y0276302D01*
X0157056Y0276302D01*
X0157056Y0280239D02*
X0155107Y0280239D01*
X0179891Y0248132D02*
X0179891Y0238487D01*
X0179694Y0238290D01*
X0183631Y0238290D02*
X0185796Y0240455D01*
X0185796Y0248132D01*
X0187174Y0258369D02*
X0208828Y0258369D01*
X0210796Y0260337D01*
X0210796Y0273526D01*
X0211387Y0274117D01*
X0211387Y0280022D01*
X0215324Y0287109D02*
X0215324Y0291833D01*
X0215718Y0292227D01*
X0221820Y0286912D02*
X0221820Y0281203D01*
X0221820Y0286912D02*
X0222017Y0287109D01*
X0227725Y0284156D02*
X0232450Y0284156D01*
X0232844Y0283762D01*
X0227725Y0277463D02*
X0227725Y0272542D01*
X0209222Y0254038D01*
X0209222Y0248329D01*
X0209418Y0248132D01*
X0215324Y0248132D02*
X0215324Y0243211D01*
X0206072Y0233959D01*
X0199379Y0233959D01*
X0195048Y0238290D01*
X0215521Y0239077D02*
X0234418Y0239077D01*
X0236781Y0236715D01*
X0236781Y0179628D01*
X0235993Y0178841D01*
X0209615Y0178841D01*
X0207548Y0176774D01*
X0207548Y0173034D01*
X0204989Y0173034D02*
X0204989Y0164668D01*
X0197410Y0164668D01*
X0197410Y0173034D01*
X0197312Y0173034D01*
X0194753Y0173034D02*
X0194655Y0172935D01*
X0194655Y0168998D01*
X0193867Y0168211D01*
X0185993Y0168211D01*
X0183237Y0165061D02*
X0183237Y0173329D01*
X0179300Y0173329D02*
X0179300Y0165849D01*
X0184418Y0160731D01*
X0213552Y0160731D01*
X0215521Y0162699D01*
X0215521Y0172935D01*
X0215619Y0173034D01*
X0212666Y0173034D02*
X0212666Y0164569D01*
X0210796Y0162699D01*
X0185599Y0162699D01*
X0183237Y0165061D01*
X0187470Y0173034D02*
X0187174Y0173329D01*
X0187470Y0173034D02*
X0191800Y0173034D01*
X0197804Y0157187D02*
X0175166Y0157187D01*
X0174970Y0157384D01*
X0167883Y0157384D01*
X0174970Y0164077D02*
X0174970Y0179628D01*
X0174576Y0180022D01*
X0169064Y0186715D02*
X0165127Y0182778D01*
X0156859Y0182778D01*
X0157647Y0182778D01*
X0160403Y0180022D01*
X0160403Y0177266D01*
X0156859Y0173723D01*
X0125599Y0173723D01*
X0122607Y0176715D01*
X0118277Y0171754D02*
X0120245Y0169786D01*
X0156859Y0169786D01*
X0156859Y0178447D02*
X0130875Y0178447D01*
X0122607Y0186715D01*
X0118277Y0192384D02*
X0118277Y0171754D01*
X0118277Y0192384D02*
X0122607Y0196715D01*
X0160796Y0188447D02*
X0160796Y0186715D01*
X0160796Y0188447D02*
X0169064Y0196715D01*
X0197804Y0157187D02*
X0199871Y0155121D01*
X0199871Y0150002D01*
X0197312Y0150002D02*
X0197312Y0143506D01*
X0197804Y0143014D01*
X0194753Y0143900D02*
X0194753Y0150002D01*
X0191800Y0150002D02*
X0191800Y0144884D01*
X0189930Y0143014D01*
X0193867Y0143014D02*
X0194753Y0143900D01*
X0204989Y0143703D02*
X0205678Y0143014D01*
X0204989Y0143703D02*
X0204989Y0150002D01*
X0207548Y0150002D02*
X0207548Y0145081D01*
X0209615Y0143014D01*
X0212666Y0140947D02*
X0210796Y0139077D01*
X0132351Y0139077D01*
X0130678Y0140750D01*
X0210107Y0150002D02*
X0210107Y0152955D01*
X0213552Y0156400D01*
X0219458Y0162306D01*
X0223985Y0162306D01*
X0223985Y0156400D02*
X0223985Y0149510D01*
X0217489Y0143014D01*
X0215619Y0144884D01*
X0215619Y0150002D01*
X0212666Y0150002D02*
X0212666Y0140947D01*
X0230678Y0156400D02*
X0232253Y0156400D01*
X0235206Y0159353D01*
X0232253Y0162306D01*
X0230678Y0162306D01*
X0230481Y0168408D02*
X0230875Y0168802D01*
X0230481Y0168408D02*
X0224182Y0168408D01*
X0224182Y0175101D02*
X0222410Y0176872D01*
X0210403Y0176872D01*
X0210107Y0176577D01*
X0210107Y0173034D01*
X0204694Y0274117D02*
X0193572Y0274117D01*
X0193277Y0274412D01*
D28*
X0116944Y0144207D02*
X0119357Y0140027D01*
X0122770Y0136614D01*
X0126950Y0134201D01*
X0131611Y0132952D01*
X0134025Y0132794D01*
X0220639Y0132794D01*
X0223052Y0132952D01*
X0227714Y0134201D01*
X0231894Y0136614D01*
X0235307Y0140027D01*
X0237720Y0144207D01*
X0238969Y0148869D01*
X0239127Y0151282D01*
X0239127Y0280022D01*
X0238969Y0282435D01*
X0237720Y0287097D01*
X0235307Y0291277D01*
X0231894Y0294690D01*
X0227714Y0297103D01*
X0223052Y0298352D01*
X0220639Y0298510D01*
X0134025Y0298510D01*
X0131611Y0298352D01*
X0126950Y0297103D01*
X0122770Y0294690D01*
X0119357Y0291277D01*
X0116944Y0287097D01*
X0116944Y0287097D01*
X0115695Y0282435D01*
X0115536Y0280022D01*
X0115536Y0151282D01*
X0115695Y0148869D01*
X0116944Y0144207D01*
X0116978Y0144148D02*
X0126315Y0144148D01*
X0126336Y0144096D02*
X0127119Y0143314D01*
X0127367Y0143211D01*
X0127119Y0143108D01*
X0126336Y0142326D01*
X0125913Y0141304D01*
X0125913Y0140197D01*
X0126336Y0139175D01*
X0127119Y0138393D01*
X0128141Y0137969D01*
X0131625Y0137969D01*
X0131814Y0137780D01*
X0211333Y0137780D01*
X0212093Y0138540D01*
X0213963Y0140410D01*
X0213963Y0146693D01*
X0214108Y0146548D01*
X0214322Y0146548D01*
X0214322Y0144347D01*
X0215082Y0143587D01*
X0215305Y0143364D01*
X0215305Y0142109D01*
X0216584Y0140830D01*
X0218394Y0140830D01*
X0219673Y0142109D01*
X0219673Y0143364D01*
X0225282Y0148973D01*
X0225282Y0153438D01*
X0226284Y0153438D01*
X0226751Y0153905D01*
X0226751Y0158895D01*
X0226293Y0159353D01*
X0226751Y0159810D01*
X0226751Y0164801D01*
X0226284Y0165268D01*
X0221687Y0165268D01*
X0221220Y0164801D01*
X0221220Y0163602D01*
X0218921Y0163602D01*
X0213902Y0158584D01*
X0212647Y0158584D01*
X0211368Y0157305D01*
X0211368Y0156050D01*
X0208810Y0153492D01*
X0208810Y0153312D01*
X0208666Y0153457D01*
X0206431Y0153457D01*
X0206269Y0153295D01*
X0206107Y0153457D01*
X0203872Y0153457D01*
X0203710Y0153295D01*
X0203548Y0153457D01*
X0201313Y0153457D01*
X0201168Y0153312D01*
X0201168Y0155658D01*
X0199101Y0157725D01*
X0198341Y0158484D01*
X0177932Y0158484D01*
X0177932Y0159683D01*
X0177465Y0160150D01*
X0172474Y0160150D01*
X0172214Y0159889D01*
X0171756Y0160346D01*
X0164010Y0160346D01*
X0163543Y0159880D01*
X0163543Y0154889D01*
X0164010Y0154422D01*
X0171756Y0154422D01*
X0172214Y0154879D01*
X0172474Y0154619D01*
X0177465Y0154619D01*
X0177932Y0155086D01*
X0177932Y0155891D01*
X0197267Y0155891D01*
X0198574Y0154583D01*
X0198574Y0153312D01*
X0198430Y0153457D01*
X0196195Y0153457D01*
X0196033Y0153295D01*
X0195870Y0153457D01*
X0193636Y0153457D01*
X0193473Y0153295D01*
X0193311Y0153457D01*
X0190289Y0153457D01*
X0189822Y0152990D01*
X0189822Y0147015D01*
X0190289Y0146548D01*
X0190503Y0146548D01*
X0190503Y0145421D01*
X0190280Y0145198D01*
X0189025Y0145198D01*
X0187746Y0143919D01*
X0187746Y0142109D01*
X0189025Y0140830D01*
X0190835Y0140830D01*
X0191899Y0141894D01*
X0192962Y0140830D01*
X0194772Y0140830D01*
X0195836Y0141894D01*
X0196899Y0140830D01*
X0198709Y0140830D01*
X0199988Y0142109D01*
X0199988Y0143919D01*
X0198709Y0145198D01*
X0198609Y0145198D01*
X0198609Y0146693D01*
X0198754Y0146548D01*
X0200989Y0146548D01*
X0201151Y0146710D01*
X0201313Y0146548D01*
X0203548Y0146548D01*
X0203692Y0146693D01*
X0203692Y0144117D01*
X0203494Y0143919D01*
X0203494Y0142109D01*
X0204773Y0140830D01*
X0206583Y0140830D01*
X0207647Y0141894D01*
X0208710Y0140830D01*
X0210520Y0140830D01*
X0211370Y0141680D01*
X0211370Y0141484D01*
X0210259Y0140374D01*
X0147814Y0140374D01*
X0147814Y0145313D01*
X0147347Y0145780D01*
X0139600Y0145780D01*
X0139133Y0145313D01*
X0139133Y0140374D01*
X0135444Y0140374D01*
X0135444Y0141304D01*
X0135020Y0142326D01*
X0134238Y0143108D01*
X0133989Y0143211D01*
X0134238Y0143314D01*
X0135020Y0144096D01*
X0135444Y0145118D01*
X0135444Y0146225D01*
X0135020Y0147247D01*
X0134238Y0148029D01*
X0133989Y0148132D01*
X0134238Y0148235D01*
X0135020Y0149018D01*
X0135444Y0150040D01*
X0135444Y0151146D01*
X0135020Y0152168D01*
X0134238Y0152951D01*
X0133216Y0153374D01*
X0128141Y0153374D01*
X0127119Y0152951D01*
X0126336Y0152168D01*
X0125913Y0151146D01*
X0125913Y0150040D01*
X0126336Y0149018D01*
X0127119Y0148235D01*
X0127367Y0148132D01*
X0127119Y0148029D01*
X0126336Y0147247D01*
X0125913Y0146225D01*
X0125913Y0145118D01*
X0126336Y0144096D01*
X0126153Y0144540D02*
X0116855Y0144540D01*
X0116749Y0144932D02*
X0125990Y0144932D01*
X0125913Y0145324D02*
X0116644Y0145324D01*
X0116539Y0145717D02*
X0125913Y0145717D01*
X0125913Y0146109D02*
X0116434Y0146109D01*
X0116329Y0146501D02*
X0126027Y0146501D01*
X0126190Y0146893D02*
X0116224Y0146893D01*
X0116119Y0147285D02*
X0126375Y0147285D01*
X0126767Y0147678D02*
X0116014Y0147678D01*
X0115909Y0148070D02*
X0127216Y0148070D01*
X0126892Y0148462D02*
X0115804Y0148462D01*
X0115699Y0148854D02*
X0126500Y0148854D01*
X0126241Y0149246D02*
X0115670Y0149246D01*
X0115644Y0149639D02*
X0126079Y0149639D01*
X0125917Y0150031D02*
X0115618Y0150031D01*
X0115593Y0150423D02*
X0125913Y0150423D01*
X0125913Y0150815D02*
X0115567Y0150815D01*
X0115541Y0151208D02*
X0125938Y0151208D01*
X0126101Y0151600D02*
X0115536Y0151600D01*
X0115536Y0151992D02*
X0126263Y0151992D01*
X0126552Y0152384D02*
X0115536Y0152384D01*
X0115536Y0152776D02*
X0126944Y0152776D01*
X0127645Y0153169D02*
X0115536Y0153169D01*
X0115536Y0153561D02*
X0198574Y0153561D01*
X0198574Y0153953D02*
X0115536Y0153953D01*
X0115536Y0154345D02*
X0198574Y0154345D01*
X0198420Y0154737D02*
X0177583Y0154737D01*
X0177932Y0155130D02*
X0198028Y0155130D01*
X0197636Y0155522D02*
X0177932Y0155522D01*
X0177932Y0158660D02*
X0213978Y0158660D01*
X0214370Y0159052D02*
X0177932Y0159052D01*
X0177932Y0159444D02*
X0183871Y0159444D01*
X0183881Y0159434D02*
X0214089Y0159434D01*
X0216058Y0161402D01*
X0216818Y0162162D01*
X0216818Y0169580D01*
X0217130Y0169580D01*
X0217597Y0170046D01*
X0217597Y0175576D01*
X0221220Y0175576D01*
X0221220Y0172802D01*
X0221687Y0172335D01*
X0226678Y0172335D01*
X0227144Y0172802D01*
X0227144Y0177399D01*
X0227000Y0177544D01*
X0236530Y0177544D01*
X0237318Y0178332D01*
X0238077Y0179091D01*
X0238077Y0237252D01*
X0235715Y0239614D01*
X0234956Y0240374D01*
X0217313Y0240374D01*
X0216425Y0241261D01*
X0215208Y0241261D01*
X0216621Y0242674D01*
X0216621Y0243398D01*
X0217622Y0243398D01*
X0218089Y0243865D01*
X0218089Y0252399D01*
X0217622Y0252866D01*
X0213025Y0252866D01*
X0212559Y0252399D01*
X0212559Y0243865D01*
X0213025Y0243398D01*
X0213677Y0243398D01*
X0205535Y0235256D01*
X0199916Y0235256D01*
X0197233Y0237940D01*
X0197233Y0239195D01*
X0195953Y0240474D01*
X0194144Y0240474D01*
X0192864Y0239195D01*
X0192864Y0237385D01*
X0194144Y0236106D01*
X0195399Y0236106D01*
X0198842Y0232662D01*
X0206609Y0232662D01*
X0207369Y0233422D01*
X0213336Y0239390D01*
X0213336Y0238172D01*
X0214616Y0236893D01*
X0216425Y0236893D01*
X0217313Y0237780D01*
X0233881Y0237780D01*
X0235484Y0236178D01*
X0235484Y0189729D01*
X0235339Y0189874D01*
X0230742Y0189874D01*
X0230275Y0189407D01*
X0230275Y0180873D01*
X0230742Y0180406D01*
X0235339Y0180406D01*
X0235484Y0180551D01*
X0235484Y0180166D01*
X0235456Y0180138D01*
X0209078Y0180138D01*
X0208318Y0179378D01*
X0207688Y0178747D01*
X0207688Y0179004D01*
X0207262Y0180032D01*
X0206475Y0180818D01*
X0206278Y0180900D01*
X0206278Y0189407D01*
X0205811Y0189874D01*
X0201214Y0189874D01*
X0200748Y0189407D01*
X0200748Y0181244D01*
X0200373Y0181244D01*
X0200373Y0189407D01*
X0199906Y0189874D01*
X0195309Y0189874D01*
X0194842Y0189407D01*
X0194842Y0181244D01*
X0194467Y0181244D01*
X0194467Y0189407D01*
X0194000Y0189874D01*
X0189403Y0189874D01*
X0188936Y0189407D01*
X0188936Y0181244D01*
X0182656Y0181244D01*
X0182656Y0189407D01*
X0182189Y0189874D01*
X0177592Y0189874D01*
X0177373Y0189654D01*
X0177373Y0230283D01*
X0176947Y0231311D01*
X0176160Y0232098D01*
X0142222Y0266036D01*
X0161960Y0266036D01*
X0161968Y0266028D01*
X0161968Y0265679D01*
X0161762Y0265181D01*
X0161762Y0264155D01*
X0162154Y0263207D01*
X0162879Y0262482D01*
X0163827Y0262090D01*
X0164852Y0262090D01*
X0165800Y0262482D01*
X0166525Y0263207D01*
X0166918Y0264155D01*
X0166918Y0265181D01*
X0166711Y0265679D01*
X0166711Y0266028D01*
X0166720Y0266036D01*
X0198216Y0266036D01*
X0198798Y0266618D01*
X0198798Y0272820D01*
X0201929Y0272820D01*
X0201929Y0271621D01*
X0202395Y0271154D01*
X0206993Y0271154D01*
X0207459Y0271621D01*
X0207459Y0276612D01*
X0206993Y0277079D01*
X0202395Y0277079D01*
X0201929Y0276612D01*
X0201929Y0275413D01*
X0198798Y0275413D01*
X0198798Y0276890D01*
X0198216Y0277472D01*
X0173056Y0277472D01*
X0172937Y0277591D01*
X0170309Y0277591D01*
X0169842Y0277124D01*
X0169842Y0277087D01*
X0169645Y0276890D01*
X0169645Y0275740D01*
X0166566Y0275740D01*
X0166546Y0275721D01*
X0166470Y0275721D01*
X0166408Y0275658D01*
X0166326Y0275740D01*
X0162353Y0275740D01*
X0162271Y0275658D01*
X0162209Y0275721D01*
X0162133Y0275721D01*
X0162113Y0275740D01*
X0158837Y0275740D01*
X0158837Y0277124D01*
X0158370Y0277591D01*
X0157601Y0277591D01*
X0157593Y0277598D01*
X0154964Y0277598D01*
X0154454Y0277088D01*
X0153791Y0277088D01*
X0154219Y0277516D01*
X0155645Y0278942D01*
X0157593Y0278942D01*
X0157601Y0278950D01*
X0158370Y0278950D01*
X0158837Y0279416D01*
X0158837Y0281061D01*
X0158675Y0281223D01*
X0158837Y0281385D01*
X0158837Y0283029D01*
X0158370Y0283496D01*
X0157601Y0283496D01*
X0157593Y0283504D01*
X0153711Y0283504D01*
X0153040Y0284175D01*
X0151230Y0284175D01*
X0149951Y0282895D01*
X0149951Y0281086D01*
X0151230Y0279806D01*
X0152841Y0279806D01*
X0152385Y0279350D01*
X0144861Y0279350D01*
X0144861Y0280155D01*
X0144394Y0280622D01*
X0139403Y0280622D01*
X0138936Y0280155D01*
X0138936Y0275740D01*
X0125345Y0275740D01*
X0124763Y0275158D01*
X0124763Y0266618D01*
X0125345Y0266036D01*
X0134311Y0266036D01*
X0171779Y0228568D01*
X0171779Y0199261D01*
X0171559Y0199480D01*
X0166569Y0199480D01*
X0166102Y0199014D01*
X0166102Y0195587D01*
X0160259Y0189744D01*
X0159499Y0188984D01*
X0159499Y0188507D01*
X0158612Y0187620D01*
X0158612Y0185810D01*
X0159892Y0184531D01*
X0161701Y0184531D01*
X0162981Y0185810D01*
X0162981Y0187620D01*
X0162392Y0188209D01*
X0168133Y0193950D01*
X0171559Y0193950D01*
X0171779Y0194169D01*
X0171779Y0189261D01*
X0171559Y0189480D01*
X0166569Y0189480D01*
X0166102Y0189014D01*
X0166102Y0185587D01*
X0164590Y0184075D01*
X0158651Y0184075D01*
X0157764Y0184962D01*
X0155955Y0184962D01*
X0154675Y0183683D01*
X0154675Y0181873D01*
X0155936Y0180613D01*
X0155067Y0179744D01*
X0131412Y0179744D01*
X0125570Y0185587D01*
X0125570Y0189014D01*
X0125103Y0189480D01*
X0120112Y0189480D01*
X0119645Y0189014D01*
X0119645Y0184416D01*
X0120112Y0183950D01*
X0123539Y0183950D01*
X0129578Y0177910D01*
X0130338Y0177150D01*
X0155067Y0177150D01*
X0155955Y0176263D01*
X0157565Y0176263D01*
X0156322Y0175020D01*
X0126137Y0175020D01*
X0125570Y0175587D01*
X0125570Y0179014D01*
X0125103Y0179480D01*
X0120112Y0179480D01*
X0119645Y0179014D01*
X0119645Y0174416D01*
X0120112Y0173950D01*
X0123539Y0173950D01*
X0124303Y0173186D01*
X0125062Y0172426D01*
X0157396Y0172426D01*
X0160940Y0175969D01*
X0161699Y0176729D01*
X0161699Y0180559D01*
X0160778Y0181481D01*
X0165664Y0181481D01*
X0166424Y0182241D01*
X0168133Y0183950D01*
X0171559Y0183950D01*
X0171779Y0184169D01*
X0171779Y0177891D01*
X0172205Y0176863D01*
X0172992Y0176076D01*
X0173673Y0175794D01*
X0173673Y0166843D01*
X0172474Y0166843D01*
X0172007Y0166376D01*
X0172007Y0161779D01*
X0172474Y0161312D01*
X0177465Y0161312D01*
X0177932Y0161779D01*
X0177932Y0166376D01*
X0177465Y0166843D01*
X0176266Y0166843D01*
X0176266Y0175650D01*
X0189822Y0175650D01*
X0189822Y0174331D01*
X0189262Y0174331D01*
X0188079Y0175513D01*
X0186270Y0175513D01*
X0185206Y0174450D01*
X0184142Y0175513D01*
X0182333Y0175513D01*
X0181269Y0174450D01*
X0180205Y0175513D01*
X0178396Y0175513D01*
X0177116Y0174234D01*
X0177116Y0172424D01*
X0178003Y0171537D01*
X0178003Y0165312D01*
X0183122Y0160194D01*
X0183881Y0159434D01*
X0183479Y0159836D02*
X0177778Y0159836D01*
X0177558Y0161405D02*
X0181910Y0161405D01*
X0181518Y0161797D02*
X0177932Y0161797D01*
X0177932Y0162189D02*
X0181126Y0162189D01*
X0180733Y0162582D02*
X0177932Y0162582D01*
X0177932Y0162974D02*
X0180341Y0162974D01*
X0179949Y0163366D02*
X0177932Y0163366D01*
X0177932Y0163758D02*
X0179557Y0163758D01*
X0179165Y0164151D02*
X0177932Y0164151D01*
X0177932Y0164543D02*
X0178772Y0164543D01*
X0178380Y0164935D02*
X0177932Y0164935D01*
X0177932Y0165327D02*
X0178003Y0165327D01*
X0178003Y0165719D02*
X0177932Y0165719D01*
X0177932Y0166112D02*
X0178003Y0166112D01*
X0178003Y0166504D02*
X0177804Y0166504D01*
X0178003Y0166896D02*
X0176266Y0166896D01*
X0176266Y0167288D02*
X0178003Y0167288D01*
X0178003Y0167680D02*
X0176266Y0167680D01*
X0176266Y0168073D02*
X0178003Y0168073D01*
X0178003Y0168465D02*
X0176266Y0168465D01*
X0176266Y0168857D02*
X0178003Y0168857D01*
X0178003Y0169249D02*
X0176266Y0169249D01*
X0176266Y0169641D02*
X0178003Y0169641D01*
X0178003Y0170034D02*
X0176266Y0170034D01*
X0176266Y0170426D02*
X0178003Y0170426D01*
X0178003Y0170818D02*
X0176266Y0170818D01*
X0176266Y0171210D02*
X0178003Y0171210D01*
X0177938Y0171603D02*
X0176266Y0171603D01*
X0176266Y0171995D02*
X0177546Y0171995D01*
X0177153Y0172387D02*
X0176266Y0172387D01*
X0176266Y0172779D02*
X0177116Y0172779D01*
X0177116Y0173171D02*
X0176266Y0173171D01*
X0176266Y0173564D02*
X0177116Y0173564D01*
X0177116Y0173956D02*
X0176266Y0173956D01*
X0176266Y0174348D02*
X0177230Y0174348D01*
X0177622Y0174740D02*
X0176266Y0174740D01*
X0176266Y0175132D02*
X0178015Y0175132D01*
X0176266Y0175525D02*
X0189822Y0175525D01*
X0189822Y0175132D02*
X0188460Y0175132D01*
X0188852Y0174740D02*
X0189822Y0174740D01*
X0189822Y0174348D02*
X0189244Y0174348D01*
X0185889Y0175132D02*
X0184523Y0175132D01*
X0184915Y0174740D02*
X0185496Y0174740D01*
X0181952Y0175132D02*
X0180586Y0175132D01*
X0180978Y0174740D02*
X0181559Y0174740D01*
X0182656Y0181408D02*
X0188936Y0181408D01*
X0188936Y0181800D02*
X0182656Y0181800D01*
X0182656Y0182192D02*
X0188936Y0182192D01*
X0188936Y0182584D02*
X0182656Y0182584D01*
X0182656Y0182977D02*
X0188936Y0182977D01*
X0188936Y0183369D02*
X0182656Y0183369D01*
X0182656Y0183761D02*
X0188936Y0183761D01*
X0188936Y0184153D02*
X0182656Y0184153D01*
X0182656Y0184546D02*
X0188936Y0184546D01*
X0188936Y0184938D02*
X0182656Y0184938D01*
X0182656Y0185330D02*
X0188936Y0185330D01*
X0188936Y0185722D02*
X0182656Y0185722D01*
X0182656Y0186114D02*
X0188936Y0186114D01*
X0188936Y0186507D02*
X0182656Y0186507D01*
X0182656Y0186899D02*
X0188936Y0186899D01*
X0188936Y0187291D02*
X0182656Y0187291D01*
X0182656Y0187683D02*
X0188936Y0187683D01*
X0188936Y0188075D02*
X0182656Y0188075D01*
X0182656Y0188468D02*
X0188936Y0188468D01*
X0188936Y0188860D02*
X0182656Y0188860D01*
X0182656Y0189252D02*
X0188936Y0189252D01*
X0189173Y0189644D02*
X0182419Y0189644D01*
X0177373Y0190037D02*
X0235484Y0190037D01*
X0235484Y0190429D02*
X0177373Y0190429D01*
X0177373Y0190821D02*
X0235484Y0190821D01*
X0235484Y0191213D02*
X0177373Y0191213D01*
X0177373Y0191605D02*
X0235484Y0191605D01*
X0235484Y0191998D02*
X0177373Y0191998D01*
X0177373Y0192390D02*
X0235484Y0192390D01*
X0235484Y0192782D02*
X0177373Y0192782D01*
X0177373Y0193174D02*
X0235484Y0193174D01*
X0235484Y0193566D02*
X0177373Y0193566D01*
X0177373Y0193959D02*
X0235484Y0193959D01*
X0235484Y0194351D02*
X0177373Y0194351D01*
X0177373Y0194743D02*
X0235484Y0194743D01*
X0235484Y0195135D02*
X0177373Y0195135D01*
X0177373Y0195527D02*
X0235484Y0195527D01*
X0235484Y0195920D02*
X0177373Y0195920D01*
X0177373Y0196312D02*
X0235484Y0196312D01*
X0235484Y0196704D02*
X0177373Y0196704D01*
X0177373Y0197096D02*
X0235484Y0197096D01*
X0235484Y0197489D02*
X0177373Y0197489D01*
X0177373Y0197881D02*
X0235484Y0197881D01*
X0235484Y0198273D02*
X0177373Y0198273D01*
X0177373Y0198665D02*
X0235484Y0198665D01*
X0235484Y0199057D02*
X0201930Y0199057D01*
X0201559Y0198904D02*
X0202896Y0199458D01*
X0203920Y0200481D01*
X0204473Y0201818D01*
X0204473Y0203265D01*
X0204246Y0203815D01*
X0205437Y0204309D01*
X0206549Y0205421D01*
X0207151Y0206874D01*
X0207151Y0208446D01*
X0206549Y0209899D01*
X0205437Y0211011D01*
X0203984Y0211613D01*
X0202412Y0211613D01*
X0200959Y0211011D01*
X0199847Y0209899D01*
X0199245Y0208446D01*
X0199245Y0206874D01*
X0199617Y0205975D01*
X0198775Y0205626D01*
X0197752Y0204602D01*
X0197198Y0203265D01*
X0197198Y0201818D01*
X0197752Y0200481D01*
X0198775Y0199458D01*
X0200112Y0198904D01*
X0201559Y0198904D01*
X0202877Y0199450D02*
X0235484Y0199450D01*
X0235484Y0199842D02*
X0203280Y0199842D01*
X0203673Y0200234D02*
X0235484Y0200234D01*
X0235484Y0200626D02*
X0203980Y0200626D01*
X0204142Y0201018D02*
X0235484Y0201018D01*
X0235484Y0201411D02*
X0204305Y0201411D01*
X0204467Y0201803D02*
X0235484Y0201803D01*
X0235484Y0202195D02*
X0204473Y0202195D01*
X0204473Y0202587D02*
X0235484Y0202587D01*
X0235484Y0202980D02*
X0204473Y0202980D01*
X0204429Y0203372D02*
X0235484Y0203372D01*
X0235484Y0203764D02*
X0204267Y0203764D01*
X0205068Y0204156D02*
X0235484Y0204156D01*
X0235484Y0204548D02*
X0205676Y0204548D01*
X0206069Y0204941D02*
X0235484Y0204941D01*
X0235484Y0205333D02*
X0206461Y0205333D01*
X0206675Y0205725D02*
X0235484Y0205725D01*
X0235484Y0206117D02*
X0206837Y0206117D01*
X0207000Y0206509D02*
X0235484Y0206509D01*
X0235484Y0206902D02*
X0207151Y0206902D01*
X0207151Y0207294D02*
X0235484Y0207294D01*
X0235484Y0207686D02*
X0207151Y0207686D01*
X0207151Y0208078D02*
X0235484Y0208078D01*
X0235484Y0208470D02*
X0207141Y0208470D01*
X0206978Y0208863D02*
X0235484Y0208863D01*
X0235484Y0209255D02*
X0206816Y0209255D01*
X0206653Y0209647D02*
X0235484Y0209647D01*
X0235484Y0210039D02*
X0206408Y0210039D01*
X0206016Y0210432D02*
X0235484Y0210432D01*
X0235484Y0210824D02*
X0205624Y0210824D01*
X0204942Y0211216D02*
X0235484Y0211216D01*
X0235484Y0211608D02*
X0203995Y0211608D01*
X0202401Y0211608D02*
X0177373Y0211608D01*
X0177373Y0211216D02*
X0201454Y0211216D01*
X0200772Y0210824D02*
X0177373Y0210824D01*
X0177373Y0210432D02*
X0200380Y0210432D01*
X0199987Y0210039D02*
X0177373Y0210039D01*
X0177373Y0209647D02*
X0199743Y0209647D01*
X0199580Y0209255D02*
X0177373Y0209255D01*
X0177373Y0208863D02*
X0199418Y0208863D01*
X0199255Y0208470D02*
X0177373Y0208470D01*
X0177373Y0208078D02*
X0199245Y0208078D01*
X0199245Y0207686D02*
X0177373Y0207686D01*
X0177373Y0207294D02*
X0199245Y0207294D01*
X0199245Y0206902D02*
X0177373Y0206902D01*
X0177373Y0206509D02*
X0199396Y0206509D01*
X0199558Y0206117D02*
X0177373Y0206117D01*
X0177373Y0205725D02*
X0199015Y0205725D01*
X0198482Y0205333D02*
X0177373Y0205333D01*
X0177373Y0204941D02*
X0198090Y0204941D01*
X0197729Y0204548D02*
X0177373Y0204548D01*
X0177373Y0204156D02*
X0197567Y0204156D01*
X0197404Y0203764D02*
X0177373Y0203764D01*
X0177373Y0203372D02*
X0197242Y0203372D01*
X0197198Y0202980D02*
X0177373Y0202980D01*
X0177373Y0202587D02*
X0197198Y0202587D01*
X0197198Y0202195D02*
X0177373Y0202195D01*
X0177373Y0201803D02*
X0197204Y0201803D01*
X0197367Y0201411D02*
X0177373Y0201411D01*
X0177373Y0201018D02*
X0197529Y0201018D01*
X0197692Y0200626D02*
X0177373Y0200626D01*
X0177373Y0200234D02*
X0197999Y0200234D01*
X0198391Y0199842D02*
X0177373Y0199842D01*
X0177373Y0199450D02*
X0198795Y0199450D01*
X0199742Y0199057D02*
X0177373Y0199057D01*
X0171779Y0199450D02*
X0171590Y0199450D01*
X0171779Y0199842D02*
X0115536Y0199842D01*
X0115536Y0200234D02*
X0171779Y0200234D01*
X0171779Y0200626D02*
X0115536Y0200626D01*
X0115536Y0201018D02*
X0128515Y0201018D01*
X0128867Y0200872D02*
X0130127Y0200872D01*
X0131290Y0201354D01*
X0132181Y0202245D01*
X0132662Y0203408D01*
X0132662Y0204667D01*
X0132181Y0205831D01*
X0131290Y0206721D01*
X0130127Y0207203D01*
X0128867Y0207203D01*
X0127704Y0206721D01*
X0126814Y0205831D01*
X0126332Y0204667D01*
X0126332Y0203408D01*
X0126814Y0202245D01*
X0127704Y0201354D01*
X0128867Y0200872D01*
X0127648Y0201411D02*
X0115536Y0201411D01*
X0115536Y0201803D02*
X0127256Y0201803D01*
X0126863Y0202195D02*
X0115536Y0202195D01*
X0115536Y0202587D02*
X0126672Y0202587D01*
X0126509Y0202980D02*
X0115536Y0202980D01*
X0115536Y0203372D02*
X0126347Y0203372D01*
X0126332Y0203764D02*
X0115536Y0203764D01*
X0115536Y0204156D02*
X0126332Y0204156D01*
X0126332Y0204548D02*
X0115536Y0204548D01*
X0115536Y0204941D02*
X0126445Y0204941D01*
X0126607Y0205333D02*
X0115536Y0205333D01*
X0115536Y0205725D02*
X0126770Y0205725D01*
X0127100Y0206117D02*
X0115536Y0206117D01*
X0115536Y0206509D02*
X0127492Y0206509D01*
X0128139Y0206902D02*
X0115536Y0206902D01*
X0115536Y0207294D02*
X0171779Y0207294D01*
X0171779Y0207686D02*
X0115536Y0207686D01*
X0115536Y0208078D02*
X0171779Y0208078D01*
X0171779Y0208470D02*
X0115536Y0208470D01*
X0115536Y0208863D02*
X0171779Y0208863D01*
X0171779Y0209255D02*
X0115536Y0209255D01*
X0115536Y0209647D02*
X0171779Y0209647D01*
X0171779Y0210039D02*
X0115536Y0210039D01*
X0115536Y0210432D02*
X0171779Y0210432D01*
X0171779Y0210824D02*
X0115536Y0210824D01*
X0115536Y0211216D02*
X0171779Y0211216D01*
X0171779Y0211608D02*
X0115536Y0211608D01*
X0115536Y0212000D02*
X0171779Y0212000D01*
X0171779Y0212393D02*
X0115536Y0212393D01*
X0115536Y0212785D02*
X0171779Y0212785D01*
X0171779Y0213177D02*
X0115536Y0213177D01*
X0115536Y0213569D02*
X0161496Y0213569D01*
X0162019Y0213353D02*
X0163826Y0213353D01*
X0165496Y0214044D01*
X0166774Y0215323D01*
X0167466Y0216992D01*
X0167466Y0218800D01*
X0166774Y0220470D01*
X0165496Y0221748D01*
X0163826Y0222439D01*
X0162019Y0222439D01*
X0160349Y0221748D01*
X0159071Y0220470D01*
X0158379Y0218800D01*
X0158379Y0216992D01*
X0159071Y0215323D01*
X0160349Y0214044D01*
X0162019Y0213353D01*
X0160549Y0213961D02*
X0115536Y0213961D01*
X0115536Y0214354D02*
X0160040Y0214354D01*
X0159647Y0214746D02*
X0115536Y0214746D01*
X0115536Y0215138D02*
X0159255Y0215138D01*
X0158985Y0215530D02*
X0115536Y0215530D01*
X0115536Y0215923D02*
X0158822Y0215923D01*
X0158660Y0216315D02*
X0115536Y0216315D01*
X0115536Y0216707D02*
X0158497Y0216707D01*
X0158379Y0217099D02*
X0115536Y0217099D01*
X0115536Y0217491D02*
X0158379Y0217491D01*
X0158379Y0217884D02*
X0115536Y0217884D01*
X0115536Y0218276D02*
X0158379Y0218276D01*
X0158379Y0218668D02*
X0115536Y0218668D01*
X0115536Y0219060D02*
X0158487Y0219060D01*
X0158649Y0219452D02*
X0115536Y0219452D01*
X0115536Y0219845D02*
X0158812Y0219845D01*
X0158974Y0220237D02*
X0115536Y0220237D01*
X0115536Y0220629D02*
X0159230Y0220629D01*
X0159622Y0221021D02*
X0115536Y0221021D01*
X0115536Y0221413D02*
X0160014Y0221413D01*
X0160489Y0221806D02*
X0115536Y0221806D01*
X0115536Y0222198D02*
X0161436Y0222198D01*
X0164409Y0222198D02*
X0171779Y0222198D01*
X0171779Y0222590D02*
X0115536Y0222590D01*
X0115536Y0222982D02*
X0171779Y0222982D01*
X0171779Y0223375D02*
X0115536Y0223375D01*
X0115536Y0223767D02*
X0171779Y0223767D01*
X0171779Y0224159D02*
X0115536Y0224159D01*
X0115536Y0224551D02*
X0171779Y0224551D01*
X0171779Y0224943D02*
X0115536Y0224943D01*
X0115536Y0225336D02*
X0171779Y0225336D01*
X0171779Y0225728D02*
X0115536Y0225728D01*
X0115536Y0226120D02*
X0171779Y0226120D01*
X0171779Y0226512D02*
X0115536Y0226512D01*
X0115536Y0226904D02*
X0171779Y0226904D01*
X0171779Y0227297D02*
X0115536Y0227297D01*
X0115536Y0227689D02*
X0171779Y0227689D01*
X0171779Y0228081D02*
X0115536Y0228081D01*
X0115536Y0228473D02*
X0171779Y0228473D01*
X0171482Y0228866D02*
X0115536Y0228866D01*
X0115536Y0229258D02*
X0171090Y0229258D01*
X0170697Y0229650D02*
X0115536Y0229650D01*
X0115536Y0230042D02*
X0170305Y0230042D01*
X0169913Y0230434D02*
X0115536Y0230434D01*
X0115536Y0230827D02*
X0169521Y0230827D01*
X0169129Y0231219D02*
X0115536Y0231219D01*
X0115536Y0231611D02*
X0168736Y0231611D01*
X0168344Y0232003D02*
X0115536Y0232003D01*
X0115536Y0232395D02*
X0167952Y0232395D01*
X0167560Y0232788D02*
X0115536Y0232788D01*
X0115536Y0233180D02*
X0167167Y0233180D01*
X0166775Y0233572D02*
X0115536Y0233572D01*
X0115536Y0233964D02*
X0166383Y0233964D01*
X0165991Y0234356D02*
X0115536Y0234356D01*
X0115536Y0234749D02*
X0165599Y0234749D01*
X0165206Y0235141D02*
X0115536Y0235141D01*
X0115536Y0235533D02*
X0164814Y0235533D01*
X0164422Y0235925D02*
X0115536Y0235925D01*
X0115536Y0236318D02*
X0164030Y0236318D01*
X0163638Y0236710D02*
X0115536Y0236710D01*
X0115536Y0237102D02*
X0163245Y0237102D01*
X0162853Y0237494D02*
X0115536Y0237494D01*
X0115536Y0237886D02*
X0162461Y0237886D01*
X0162069Y0238279D02*
X0115536Y0238279D01*
X0115536Y0238671D02*
X0161677Y0238671D01*
X0161284Y0239063D02*
X0115536Y0239063D01*
X0115536Y0239455D02*
X0160892Y0239455D01*
X0160500Y0239847D02*
X0115536Y0239847D01*
X0115536Y0240240D02*
X0160108Y0240240D01*
X0159715Y0240632D02*
X0115536Y0240632D01*
X0115536Y0241024D02*
X0159323Y0241024D01*
X0158931Y0241416D02*
X0115536Y0241416D01*
X0115536Y0241809D02*
X0158539Y0241809D01*
X0158147Y0242201D02*
X0115536Y0242201D01*
X0115536Y0242593D02*
X0157754Y0242593D01*
X0157362Y0242985D02*
X0115536Y0242985D01*
X0115536Y0243377D02*
X0156970Y0243377D01*
X0156578Y0243770D02*
X0115536Y0243770D01*
X0115536Y0244162D02*
X0156186Y0244162D01*
X0155793Y0244554D02*
X0115536Y0244554D01*
X0115536Y0244946D02*
X0155401Y0244946D01*
X0155009Y0245338D02*
X0115536Y0245338D01*
X0115536Y0245731D02*
X0154617Y0245731D01*
X0154224Y0246123D02*
X0115536Y0246123D01*
X0115536Y0246515D02*
X0153832Y0246515D01*
X0153440Y0246907D02*
X0115536Y0246907D01*
X0115536Y0247299D02*
X0153048Y0247299D01*
X0152656Y0247692D02*
X0115536Y0247692D01*
X0115536Y0248084D02*
X0152263Y0248084D01*
X0151871Y0248476D02*
X0115536Y0248476D01*
X0115536Y0248868D02*
X0151479Y0248868D01*
X0151087Y0249261D02*
X0115536Y0249261D01*
X0115536Y0249653D02*
X0150695Y0249653D01*
X0150302Y0250045D02*
X0115536Y0250045D01*
X0115536Y0250437D02*
X0149910Y0250437D01*
X0149518Y0250829D02*
X0115536Y0250829D01*
X0115536Y0251222D02*
X0149126Y0251222D01*
X0148734Y0251614D02*
X0115536Y0251614D01*
X0115536Y0252006D02*
X0148341Y0252006D01*
X0147949Y0252398D02*
X0115536Y0252398D01*
X0115536Y0252790D02*
X0147557Y0252790D01*
X0147165Y0253183D02*
X0115536Y0253183D01*
X0115536Y0253575D02*
X0146772Y0253575D01*
X0146380Y0253967D02*
X0115536Y0253967D01*
X0115536Y0254359D02*
X0145988Y0254359D01*
X0145596Y0254752D02*
X0115536Y0254752D01*
X0115536Y0255144D02*
X0145204Y0255144D01*
X0144811Y0255536D02*
X0115536Y0255536D01*
X0115536Y0255928D02*
X0144419Y0255928D01*
X0144027Y0256320D02*
X0115536Y0256320D01*
X0115536Y0256713D02*
X0143635Y0256713D01*
X0143243Y0257105D02*
X0115536Y0257105D01*
X0115536Y0257497D02*
X0142850Y0257497D01*
X0142458Y0257889D02*
X0115536Y0257889D01*
X0115536Y0258281D02*
X0142066Y0258281D01*
X0141674Y0258674D02*
X0115536Y0258674D01*
X0115536Y0259066D02*
X0141281Y0259066D01*
X0140889Y0259458D02*
X0115536Y0259458D01*
X0115536Y0259850D02*
X0140497Y0259850D01*
X0140105Y0260242D02*
X0115536Y0260242D01*
X0115536Y0260635D02*
X0139713Y0260635D01*
X0139320Y0261027D02*
X0115536Y0261027D01*
X0115536Y0261419D02*
X0138928Y0261419D01*
X0138536Y0261811D02*
X0115536Y0261811D01*
X0115536Y0262204D02*
X0138144Y0262204D01*
X0137752Y0262596D02*
X0115536Y0262596D01*
X0115536Y0262988D02*
X0137359Y0262988D01*
X0136967Y0263380D02*
X0115536Y0263380D01*
X0115536Y0263772D02*
X0136575Y0263772D01*
X0136183Y0264165D02*
X0115536Y0264165D01*
X0115536Y0264557D02*
X0135791Y0264557D01*
X0135398Y0264949D02*
X0115536Y0264949D01*
X0115536Y0265341D02*
X0135006Y0265341D01*
X0134614Y0265733D02*
X0115536Y0265733D01*
X0115536Y0266126D02*
X0125256Y0266126D01*
X0124864Y0266518D02*
X0115536Y0266518D01*
X0115536Y0266910D02*
X0124763Y0266910D01*
X0124763Y0267302D02*
X0115536Y0267302D01*
X0115536Y0267695D02*
X0124763Y0267695D01*
X0124763Y0268087D02*
X0115536Y0268087D01*
X0115536Y0268479D02*
X0124763Y0268479D01*
X0124763Y0268871D02*
X0115536Y0268871D01*
X0115536Y0269263D02*
X0124763Y0269263D01*
X0124763Y0269656D02*
X0115536Y0269656D01*
X0115536Y0270048D02*
X0124763Y0270048D01*
X0124763Y0270440D02*
X0115536Y0270440D01*
X0115536Y0270832D02*
X0124763Y0270832D01*
X0124763Y0271224D02*
X0115536Y0271224D01*
X0115536Y0271617D02*
X0124763Y0271617D01*
X0124763Y0272009D02*
X0115536Y0272009D01*
X0115536Y0272401D02*
X0124763Y0272401D01*
X0124763Y0272793D02*
X0115536Y0272793D01*
X0115536Y0273185D02*
X0124763Y0273185D01*
X0124763Y0273578D02*
X0115536Y0273578D01*
X0115536Y0273970D02*
X0124763Y0273970D01*
X0124763Y0274362D02*
X0115536Y0274362D01*
X0115536Y0274754D02*
X0124763Y0274754D01*
X0124763Y0275147D02*
X0115536Y0275147D01*
X0115536Y0275539D02*
X0125144Y0275539D01*
X0125757Y0274747D02*
X0125757Y0267030D01*
X0161702Y0267030D01*
X0161702Y0274747D01*
X0156288Y0274747D01*
X0156288Y0273999D01*
X0155008Y0272720D01*
X0153199Y0272720D01*
X0151919Y0273999D01*
X0151919Y0274747D01*
X0125757Y0274747D01*
X0125757Y0274362D02*
X0151919Y0274362D01*
X0151948Y0273970D02*
X0125757Y0273970D01*
X0125757Y0273578D02*
X0152341Y0273578D01*
X0152733Y0273185D02*
X0125757Y0273185D01*
X0125757Y0272793D02*
X0153125Y0272793D01*
X0155082Y0272793D02*
X0161702Y0272793D01*
X0161702Y0272401D02*
X0125757Y0272401D01*
X0125757Y0272009D02*
X0161702Y0272009D01*
X0161702Y0271617D02*
X0125757Y0271617D01*
X0125757Y0271224D02*
X0161702Y0271224D01*
X0161702Y0270832D02*
X0125757Y0270832D01*
X0125757Y0270440D02*
X0161702Y0270440D01*
X0161702Y0270048D02*
X0125757Y0270048D01*
X0125757Y0269656D02*
X0161702Y0269656D01*
X0161702Y0269263D02*
X0125757Y0269263D01*
X0125757Y0268871D02*
X0161702Y0268871D01*
X0161702Y0268479D02*
X0125757Y0268479D01*
X0125757Y0268087D02*
X0161702Y0268087D01*
X0161702Y0267695D02*
X0125757Y0267695D01*
X0125757Y0267302D02*
X0161702Y0267302D01*
X0162765Y0267302D02*
X0165914Y0267302D01*
X0165914Y0266910D02*
X0162765Y0266910D01*
X0162765Y0266636D02*
X0162765Y0274747D01*
X0165914Y0274747D01*
X0165914Y0266636D01*
X0162765Y0266636D01*
X0162765Y0267695D02*
X0165914Y0267695D01*
X0165914Y0268087D02*
X0162765Y0268087D01*
X0162765Y0268479D02*
X0165914Y0268479D01*
X0165914Y0268871D02*
X0162765Y0268871D01*
X0162765Y0269263D02*
X0165914Y0269263D01*
X0165914Y0269656D02*
X0162765Y0269656D01*
X0162765Y0270048D02*
X0165914Y0270048D01*
X0165914Y0270440D02*
X0162765Y0270440D01*
X0162765Y0270832D02*
X0165914Y0270832D01*
X0165914Y0271224D02*
X0162765Y0271224D01*
X0162765Y0271617D02*
X0165914Y0271617D01*
X0165914Y0272009D02*
X0162765Y0272009D01*
X0162765Y0272401D02*
X0165914Y0272401D01*
X0165914Y0272793D02*
X0162765Y0272793D01*
X0162765Y0273185D02*
X0165914Y0273185D01*
X0165914Y0273578D02*
X0162765Y0273578D01*
X0162765Y0273970D02*
X0165914Y0273970D01*
X0165914Y0274362D02*
X0162765Y0274362D01*
X0161702Y0274362D02*
X0156288Y0274362D01*
X0156258Y0273970D02*
X0161702Y0273970D01*
X0161702Y0273578D02*
X0155866Y0273578D01*
X0155474Y0273185D02*
X0161702Y0273185D01*
X0159222Y0276085D02*
X0159222Y0277660D01*
X0156072Y0277660D01*
X0156072Y0278841D01*
X0159222Y0278841D01*
X0159222Y0283565D01*
X0156072Y0283565D01*
X0156072Y0284747D01*
X0172607Y0284747D01*
X0172607Y0277660D01*
X0169458Y0277660D01*
X0169458Y0276085D01*
X0159222Y0276085D01*
X0159222Y0276323D02*
X0169458Y0276323D01*
X0169645Y0276323D02*
X0158837Y0276323D01*
X0158837Y0275931D02*
X0169645Y0275931D01*
X0169645Y0276715D02*
X0158837Y0276715D01*
X0159222Y0276715D02*
X0169458Y0276715D01*
X0169458Y0277108D02*
X0159222Y0277108D01*
X0158837Y0277108D02*
X0169842Y0277108D01*
X0170218Y0277500D02*
X0158461Y0277500D01*
X0159222Y0277500D02*
X0169458Y0277500D01*
X0170639Y0276479D02*
X0197804Y0276479D01*
X0197804Y0267030D01*
X0166977Y0267030D01*
X0166977Y0274747D01*
X0170639Y0274747D01*
X0170639Y0276479D01*
X0170639Y0276323D02*
X0197804Y0276323D01*
X0197804Y0275931D02*
X0170639Y0275931D01*
X0170639Y0275539D02*
X0197804Y0275539D01*
X0197804Y0275147D02*
X0170639Y0275147D01*
X0170639Y0274754D02*
X0197804Y0274754D01*
X0197804Y0274362D02*
X0166977Y0274362D01*
X0166977Y0273970D02*
X0197804Y0273970D01*
X0197804Y0273578D02*
X0166977Y0273578D01*
X0166977Y0273185D02*
X0197804Y0273185D01*
X0197804Y0272793D02*
X0166977Y0272793D01*
X0166977Y0272401D02*
X0197804Y0272401D01*
X0197804Y0272009D02*
X0166977Y0272009D01*
X0166977Y0271617D02*
X0197804Y0271617D01*
X0197804Y0271224D02*
X0166977Y0271224D01*
X0166977Y0270832D02*
X0197804Y0270832D01*
X0197804Y0270440D02*
X0166977Y0270440D01*
X0166977Y0270048D02*
X0197804Y0270048D01*
X0197804Y0269656D02*
X0166977Y0269656D01*
X0166977Y0269263D02*
X0197804Y0269263D01*
X0197804Y0268871D02*
X0166977Y0268871D01*
X0166977Y0268479D02*
X0197804Y0268479D01*
X0197804Y0268087D02*
X0166977Y0268087D01*
X0166977Y0267695D02*
X0197804Y0267695D01*
X0197804Y0267302D02*
X0166977Y0267302D01*
X0166711Y0265733D02*
X0209499Y0265733D01*
X0209499Y0265341D02*
X0166851Y0265341D01*
X0166918Y0264949D02*
X0209499Y0264949D01*
X0209499Y0264557D02*
X0166918Y0264557D01*
X0166918Y0264165D02*
X0209499Y0264165D01*
X0209499Y0263772D02*
X0166759Y0263772D01*
X0166597Y0263380D02*
X0209499Y0263380D01*
X0209499Y0262988D02*
X0166306Y0262988D01*
X0165913Y0262596D02*
X0209499Y0262596D01*
X0209499Y0262204D02*
X0165127Y0262204D01*
X0163552Y0262204D02*
X0146054Y0262204D01*
X0145662Y0262596D02*
X0162766Y0262596D01*
X0162374Y0262988D02*
X0145270Y0262988D01*
X0144878Y0263380D02*
X0162083Y0263380D01*
X0161920Y0263772D02*
X0144486Y0263772D01*
X0144093Y0264165D02*
X0161762Y0264165D01*
X0161762Y0264557D02*
X0143701Y0264557D01*
X0143309Y0264949D02*
X0161762Y0264949D01*
X0161828Y0265341D02*
X0142917Y0265341D01*
X0142525Y0265733D02*
X0161968Y0265733D01*
X0152330Y0255928D02*
X0209278Y0255928D01*
X0209670Y0256320D02*
X0188215Y0256320D01*
X0188079Y0256184D02*
X0188966Y0257072D01*
X0209365Y0257072D01*
X0210125Y0257831D01*
X0212093Y0259800D01*
X0212093Y0271154D01*
X0213685Y0271154D01*
X0214152Y0271621D01*
X0214152Y0276612D01*
X0213695Y0277069D01*
X0214152Y0277527D01*
X0214152Y0282518D01*
X0213685Y0282984D01*
X0209088Y0282984D01*
X0208622Y0282518D01*
X0208622Y0277527D01*
X0209079Y0277069D01*
X0208622Y0276612D01*
X0208622Y0271621D01*
X0209088Y0271154D01*
X0209499Y0271154D01*
X0209499Y0260874D01*
X0208291Y0259665D01*
X0188966Y0259665D01*
X0188079Y0260553D01*
X0186270Y0260553D01*
X0184990Y0259273D01*
X0184990Y0257464D01*
X0186270Y0256184D01*
X0188079Y0256184D01*
X0188607Y0256713D02*
X0210062Y0256713D01*
X0210454Y0257105D02*
X0209398Y0257105D01*
X0209790Y0257497D02*
X0210847Y0257497D01*
X0211239Y0257889D02*
X0210182Y0257889D01*
X0210575Y0258281D02*
X0211631Y0258281D01*
X0212023Y0258674D02*
X0210967Y0258674D01*
X0211359Y0259066D02*
X0212415Y0259066D01*
X0212808Y0259458D02*
X0211751Y0259458D01*
X0212093Y0259850D02*
X0213200Y0259850D01*
X0213592Y0260242D02*
X0212093Y0260242D01*
X0212093Y0260635D02*
X0213984Y0260635D01*
X0214377Y0261027D02*
X0212093Y0261027D01*
X0212093Y0261419D02*
X0214769Y0261419D01*
X0215161Y0261811D02*
X0212093Y0261811D01*
X0212093Y0262204D02*
X0215553Y0262204D01*
X0215945Y0262596D02*
X0212093Y0262596D01*
X0212093Y0262988D02*
X0216338Y0262988D01*
X0216730Y0263380D02*
X0212093Y0263380D01*
X0212093Y0263772D02*
X0217122Y0263772D01*
X0217514Y0264165D02*
X0212093Y0264165D01*
X0212093Y0264557D02*
X0217906Y0264557D01*
X0218299Y0264949D02*
X0212093Y0264949D01*
X0212093Y0265341D02*
X0218691Y0265341D01*
X0219083Y0265733D02*
X0212093Y0265733D01*
X0212093Y0266126D02*
X0219475Y0266126D01*
X0219868Y0266518D02*
X0212093Y0266518D01*
X0212093Y0266910D02*
X0220260Y0266910D01*
X0220652Y0267302D02*
X0212093Y0267302D01*
X0212093Y0267695D02*
X0221044Y0267695D01*
X0221436Y0268087D02*
X0212093Y0268087D01*
X0212093Y0268479D02*
X0221829Y0268479D01*
X0222221Y0268871D02*
X0212093Y0268871D01*
X0212093Y0269263D02*
X0222613Y0269263D01*
X0223005Y0269656D02*
X0212093Y0269656D01*
X0212093Y0270048D02*
X0223397Y0270048D01*
X0223790Y0270440D02*
X0212093Y0270440D01*
X0212093Y0270832D02*
X0224182Y0270832D01*
X0224574Y0271224D02*
X0213755Y0271224D01*
X0214148Y0271617D02*
X0224966Y0271617D01*
X0225358Y0272009D02*
X0214152Y0272009D01*
X0214152Y0272401D02*
X0225751Y0272401D01*
X0226143Y0272793D02*
X0214152Y0272793D01*
X0214152Y0273185D02*
X0226429Y0273185D01*
X0226429Y0273079D02*
X0208684Y0255335D01*
X0207925Y0254575D01*
X0207925Y0252866D01*
X0207120Y0252866D01*
X0206653Y0252399D01*
X0206653Y0244111D01*
X0206596Y0244168D01*
X0206278Y0244300D01*
X0206278Y0252399D01*
X0205811Y0252866D01*
X0201214Y0252866D01*
X0200748Y0252399D01*
X0200748Y0243865D01*
X0201214Y0243398D01*
X0201550Y0243398D01*
X0201257Y0243106D01*
X0200682Y0241718D01*
X0200682Y0240216D01*
X0201257Y0238828D01*
X0202319Y0237766D01*
X0203707Y0237191D01*
X0205209Y0237191D01*
X0206596Y0237766D01*
X0207659Y0238828D01*
X0208233Y0240216D01*
X0208233Y0241718D01*
X0207659Y0243106D01*
X0207366Y0243398D01*
X0211717Y0243398D01*
X0212184Y0243865D01*
X0212184Y0252399D01*
X0211717Y0252866D01*
X0210518Y0252866D01*
X0210518Y0253501D01*
X0229022Y0272005D01*
X0229022Y0274698D01*
X0230221Y0274698D01*
X0230688Y0275164D01*
X0230688Y0279762D01*
X0230221Y0280228D01*
X0225230Y0280228D01*
X0224763Y0279762D01*
X0224763Y0275164D01*
X0225230Y0274698D01*
X0226429Y0274698D01*
X0226429Y0273079D01*
X0226429Y0273578D02*
X0214152Y0273578D01*
X0214152Y0273970D02*
X0226429Y0273970D01*
X0226429Y0274362D02*
X0214152Y0274362D01*
X0214152Y0274754D02*
X0225173Y0274754D01*
X0224781Y0275147D02*
X0214152Y0275147D01*
X0214152Y0275539D02*
X0224763Y0275539D01*
X0224763Y0275931D02*
X0214152Y0275931D01*
X0214152Y0276323D02*
X0224763Y0276323D01*
X0224763Y0276715D02*
X0214049Y0276715D01*
X0213733Y0277108D02*
X0224763Y0277108D01*
X0224763Y0277500D02*
X0214125Y0277500D01*
X0214152Y0277892D02*
X0224763Y0277892D01*
X0224763Y0278284D02*
X0214152Y0278284D01*
X0214152Y0278676D02*
X0224763Y0278676D01*
X0224763Y0279069D02*
X0222774Y0279069D01*
X0222725Y0279019D02*
X0224004Y0280298D01*
X0224004Y0282108D01*
X0223117Y0282995D01*
X0223117Y0284147D01*
X0224315Y0284147D01*
X0224763Y0284594D01*
X0224763Y0281857D01*
X0225230Y0281391D01*
X0230221Y0281391D01*
X0230580Y0281750D01*
X0230939Y0281391D01*
X0234748Y0281391D01*
X0235215Y0281857D01*
X0235215Y0285667D01*
X0234748Y0286134D01*
X0230939Y0286134D01*
X0230688Y0285883D01*
X0230688Y0286455D01*
X0230221Y0286921D01*
X0225230Y0286921D01*
X0224782Y0286473D01*
X0224782Y0289604D01*
X0224315Y0290071D01*
X0219718Y0290071D01*
X0219251Y0289604D01*
X0219251Y0284613D01*
X0219718Y0284147D01*
X0220523Y0284147D01*
X0220523Y0282995D01*
X0219636Y0282108D01*
X0219636Y0280298D01*
X0220915Y0279019D01*
X0222725Y0279019D01*
X0223167Y0279461D02*
X0224763Y0279461D01*
X0224855Y0279853D02*
X0223559Y0279853D01*
X0223951Y0280245D02*
X0239112Y0280245D01*
X0239127Y0279853D02*
X0230596Y0279853D01*
X0230688Y0279461D02*
X0239127Y0279461D01*
X0239127Y0279069D02*
X0230688Y0279069D01*
X0230688Y0278676D02*
X0239127Y0278676D01*
X0239127Y0278284D02*
X0230688Y0278284D01*
X0230688Y0277892D02*
X0239127Y0277892D01*
X0239127Y0277500D02*
X0230688Y0277500D01*
X0230688Y0277108D02*
X0239127Y0277108D01*
X0239127Y0276715D02*
X0230688Y0276715D01*
X0230688Y0276323D02*
X0239127Y0276323D01*
X0239127Y0275931D02*
X0230688Y0275931D01*
X0230688Y0275539D02*
X0239127Y0275539D01*
X0239127Y0275147D02*
X0230670Y0275147D01*
X0230277Y0274754D02*
X0239127Y0274754D01*
X0239127Y0274362D02*
X0234235Y0274362D01*
X0234304Y0274334D02*
X0233356Y0274726D01*
X0232331Y0274726D01*
X0231383Y0274334D01*
X0230658Y0273608D01*
X0230266Y0272661D01*
X0230266Y0271635D01*
X0230644Y0270723D01*
X0230644Y0252768D01*
X0230275Y0252399D01*
X0230275Y0250529D01*
X0229900Y0250529D01*
X0229900Y0252399D01*
X0229433Y0252866D01*
X0224836Y0252866D01*
X0224370Y0252399D01*
X0224370Y0243865D01*
X0224836Y0243398D01*
X0229433Y0243398D01*
X0229900Y0243865D01*
X0229900Y0245735D01*
X0230275Y0245735D01*
X0230275Y0243865D01*
X0230742Y0243398D01*
X0235339Y0243398D01*
X0235806Y0243865D01*
X0235806Y0252399D01*
X0235437Y0252768D01*
X0235437Y0272428D01*
X0235422Y0272466D01*
X0235422Y0272661D01*
X0235029Y0273608D01*
X0234304Y0274334D01*
X0234668Y0273970D02*
X0239127Y0273970D01*
X0239127Y0273578D02*
X0235042Y0273578D01*
X0235204Y0273185D02*
X0239127Y0273185D01*
X0239127Y0272793D02*
X0235367Y0272793D01*
X0235437Y0272401D02*
X0239127Y0272401D01*
X0239127Y0272009D02*
X0235437Y0272009D01*
X0235437Y0271617D02*
X0239127Y0271617D01*
X0239127Y0271224D02*
X0235437Y0271224D01*
X0235437Y0270832D02*
X0239127Y0270832D01*
X0239127Y0270440D02*
X0235437Y0270440D01*
X0235437Y0270048D02*
X0239127Y0270048D01*
X0239127Y0269656D02*
X0235437Y0269656D01*
X0235437Y0269263D02*
X0239127Y0269263D01*
X0239127Y0268871D02*
X0235437Y0268871D01*
X0235437Y0268479D02*
X0239127Y0268479D01*
X0239127Y0268087D02*
X0235437Y0268087D01*
X0235437Y0267695D02*
X0239127Y0267695D01*
X0239127Y0267302D02*
X0235437Y0267302D01*
X0235437Y0266910D02*
X0239127Y0266910D01*
X0239127Y0266518D02*
X0235437Y0266518D01*
X0235437Y0266126D02*
X0239127Y0266126D01*
X0239127Y0265733D02*
X0235437Y0265733D01*
X0235437Y0265341D02*
X0239127Y0265341D01*
X0239127Y0264949D02*
X0235437Y0264949D01*
X0235437Y0264557D02*
X0239127Y0264557D01*
X0239127Y0264165D02*
X0235437Y0264165D01*
X0235437Y0263772D02*
X0239127Y0263772D01*
X0239127Y0263380D02*
X0235437Y0263380D01*
X0235437Y0262988D02*
X0239127Y0262988D01*
X0239127Y0262596D02*
X0235437Y0262596D01*
X0235437Y0262204D02*
X0239127Y0262204D01*
X0239127Y0261811D02*
X0235437Y0261811D01*
X0235437Y0261419D02*
X0239127Y0261419D01*
X0239127Y0261027D02*
X0235437Y0261027D01*
X0235437Y0260635D02*
X0239127Y0260635D01*
X0239127Y0260242D02*
X0235437Y0260242D01*
X0235437Y0259850D02*
X0239127Y0259850D01*
X0239127Y0259458D02*
X0235437Y0259458D01*
X0235437Y0259066D02*
X0239127Y0259066D01*
X0239127Y0258674D02*
X0235437Y0258674D01*
X0235437Y0258281D02*
X0239127Y0258281D01*
X0239127Y0257889D02*
X0235437Y0257889D01*
X0235437Y0257497D02*
X0239127Y0257497D01*
X0239127Y0257105D02*
X0235437Y0257105D01*
X0235437Y0256713D02*
X0239127Y0256713D01*
X0239127Y0256320D02*
X0235437Y0256320D01*
X0235437Y0255928D02*
X0239127Y0255928D01*
X0239127Y0255536D02*
X0235437Y0255536D01*
X0235437Y0255144D02*
X0239127Y0255144D01*
X0239127Y0254752D02*
X0235437Y0254752D01*
X0235437Y0254359D02*
X0239127Y0254359D01*
X0239127Y0253967D02*
X0235437Y0253967D01*
X0235437Y0253575D02*
X0239127Y0253575D01*
X0239127Y0253183D02*
X0235437Y0253183D01*
X0235437Y0252790D02*
X0239127Y0252790D01*
X0239127Y0252398D02*
X0235806Y0252398D01*
X0235806Y0252006D02*
X0239127Y0252006D01*
X0239127Y0251614D02*
X0235806Y0251614D01*
X0235806Y0251222D02*
X0239127Y0251222D01*
X0239127Y0250829D02*
X0235806Y0250829D01*
X0235806Y0250437D02*
X0239127Y0250437D01*
X0239127Y0250045D02*
X0235806Y0250045D01*
X0235806Y0249653D02*
X0239127Y0249653D01*
X0239127Y0249261D02*
X0235806Y0249261D01*
X0235806Y0248868D02*
X0239127Y0248868D01*
X0239127Y0248476D02*
X0235806Y0248476D01*
X0235806Y0248084D02*
X0239127Y0248084D01*
X0239127Y0247692D02*
X0235806Y0247692D01*
X0235806Y0247299D02*
X0239127Y0247299D01*
X0239127Y0246907D02*
X0235806Y0246907D01*
X0235806Y0246515D02*
X0239127Y0246515D01*
X0239127Y0246123D02*
X0235806Y0246123D01*
X0235806Y0245731D02*
X0239127Y0245731D01*
X0239127Y0245338D02*
X0235806Y0245338D01*
X0235806Y0244946D02*
X0239127Y0244946D01*
X0239127Y0244554D02*
X0235806Y0244554D01*
X0235806Y0244162D02*
X0239127Y0244162D01*
X0239127Y0243770D02*
X0235710Y0243770D01*
X0239127Y0243377D02*
X0216621Y0243377D01*
X0216621Y0242985D02*
X0239127Y0242985D01*
X0239127Y0242593D02*
X0216540Y0242593D01*
X0216148Y0242201D02*
X0239127Y0242201D01*
X0239127Y0241809D02*
X0215755Y0241809D01*
X0215363Y0241416D02*
X0239127Y0241416D01*
X0239127Y0241024D02*
X0216663Y0241024D01*
X0217055Y0240632D02*
X0239127Y0240632D01*
X0239127Y0240240D02*
X0235090Y0240240D01*
X0235482Y0239847D02*
X0239127Y0239847D01*
X0239127Y0239455D02*
X0235874Y0239455D01*
X0236267Y0239063D02*
X0239127Y0239063D01*
X0239127Y0238671D02*
X0236659Y0238671D01*
X0237051Y0238279D02*
X0239127Y0238279D01*
X0239127Y0237886D02*
X0237443Y0237886D01*
X0237835Y0237494D02*
X0239127Y0237494D01*
X0239127Y0237102D02*
X0238077Y0237102D01*
X0238077Y0236710D02*
X0239127Y0236710D01*
X0239127Y0236318D02*
X0238077Y0236318D01*
X0238077Y0235925D02*
X0239127Y0235925D01*
X0239127Y0235533D02*
X0238077Y0235533D01*
X0238077Y0235141D02*
X0239127Y0235141D01*
X0239127Y0234749D02*
X0238077Y0234749D01*
X0238077Y0234356D02*
X0239127Y0234356D01*
X0239127Y0233964D02*
X0238077Y0233964D01*
X0238077Y0233572D02*
X0239127Y0233572D01*
X0239127Y0233180D02*
X0238077Y0233180D01*
X0238077Y0232788D02*
X0239127Y0232788D01*
X0239127Y0232395D02*
X0238077Y0232395D01*
X0238077Y0232003D02*
X0239127Y0232003D01*
X0239127Y0231611D02*
X0238077Y0231611D01*
X0238077Y0231219D02*
X0239127Y0231219D01*
X0239127Y0230827D02*
X0238077Y0230827D01*
X0238077Y0230434D02*
X0239127Y0230434D01*
X0239127Y0230042D02*
X0238077Y0230042D01*
X0238077Y0229650D02*
X0239127Y0229650D01*
X0239127Y0229258D02*
X0238077Y0229258D01*
X0238077Y0228866D02*
X0239127Y0228866D01*
X0239127Y0228473D02*
X0238077Y0228473D01*
X0238077Y0228081D02*
X0239127Y0228081D01*
X0239127Y0227689D02*
X0238077Y0227689D01*
X0238077Y0227297D02*
X0239127Y0227297D01*
X0239127Y0226904D02*
X0238077Y0226904D01*
X0238077Y0226512D02*
X0239127Y0226512D01*
X0239127Y0226120D02*
X0238077Y0226120D01*
X0238077Y0225728D02*
X0239127Y0225728D01*
X0239127Y0225336D02*
X0238077Y0225336D01*
X0238077Y0224943D02*
X0239127Y0224943D01*
X0239127Y0224551D02*
X0238077Y0224551D01*
X0238077Y0224159D02*
X0239127Y0224159D01*
X0239127Y0223767D02*
X0238077Y0223767D01*
X0238077Y0223375D02*
X0239127Y0223375D01*
X0239127Y0222982D02*
X0238077Y0222982D01*
X0238077Y0222590D02*
X0239127Y0222590D01*
X0239127Y0222198D02*
X0238077Y0222198D01*
X0238077Y0221806D02*
X0239127Y0221806D01*
X0239127Y0221413D02*
X0238077Y0221413D01*
X0238077Y0221021D02*
X0239127Y0221021D01*
X0239127Y0220629D02*
X0238077Y0220629D01*
X0238077Y0220237D02*
X0239127Y0220237D01*
X0239127Y0219845D02*
X0238077Y0219845D01*
X0238077Y0219452D02*
X0239127Y0219452D01*
X0239127Y0219060D02*
X0238077Y0219060D01*
X0238077Y0218668D02*
X0239127Y0218668D01*
X0239127Y0218276D02*
X0238077Y0218276D01*
X0238077Y0217884D02*
X0239127Y0217884D01*
X0239127Y0217491D02*
X0238077Y0217491D01*
X0238077Y0217099D02*
X0239127Y0217099D01*
X0239127Y0216707D02*
X0238077Y0216707D01*
X0238077Y0216315D02*
X0239127Y0216315D01*
X0239127Y0215923D02*
X0238077Y0215923D01*
X0238077Y0215530D02*
X0239127Y0215530D01*
X0239127Y0215138D02*
X0238077Y0215138D01*
X0238077Y0214746D02*
X0239127Y0214746D01*
X0239127Y0214354D02*
X0238077Y0214354D01*
X0238077Y0213961D02*
X0239127Y0213961D01*
X0239127Y0213569D02*
X0238077Y0213569D01*
X0238077Y0213177D02*
X0239127Y0213177D01*
X0239127Y0212785D02*
X0238077Y0212785D01*
X0238077Y0212393D02*
X0239127Y0212393D01*
X0239127Y0212000D02*
X0238077Y0212000D01*
X0238077Y0211608D02*
X0239127Y0211608D01*
X0239127Y0211216D02*
X0238077Y0211216D01*
X0238077Y0210824D02*
X0239127Y0210824D01*
X0239127Y0210432D02*
X0238077Y0210432D01*
X0238077Y0210039D02*
X0239127Y0210039D01*
X0239127Y0209647D02*
X0238077Y0209647D01*
X0238077Y0209255D02*
X0239127Y0209255D01*
X0239127Y0208863D02*
X0238077Y0208863D01*
X0238077Y0208470D02*
X0239127Y0208470D01*
X0239127Y0208078D02*
X0238077Y0208078D01*
X0238077Y0207686D02*
X0239127Y0207686D01*
X0239127Y0207294D02*
X0238077Y0207294D01*
X0238077Y0206902D02*
X0239127Y0206902D01*
X0239127Y0206509D02*
X0238077Y0206509D01*
X0238077Y0206117D02*
X0239127Y0206117D01*
X0239127Y0205725D02*
X0238077Y0205725D01*
X0238077Y0205333D02*
X0239127Y0205333D01*
X0239127Y0204941D02*
X0238077Y0204941D01*
X0238077Y0204548D02*
X0239127Y0204548D01*
X0239127Y0204156D02*
X0238077Y0204156D01*
X0238077Y0203764D02*
X0239127Y0203764D01*
X0239127Y0203372D02*
X0238077Y0203372D01*
X0238077Y0202980D02*
X0239127Y0202980D01*
X0239127Y0202587D02*
X0238077Y0202587D01*
X0238077Y0202195D02*
X0239127Y0202195D01*
X0239127Y0201803D02*
X0238077Y0201803D01*
X0238077Y0201411D02*
X0239127Y0201411D01*
X0239127Y0201018D02*
X0238077Y0201018D01*
X0238077Y0200626D02*
X0239127Y0200626D01*
X0239127Y0200234D02*
X0238077Y0200234D01*
X0238077Y0199842D02*
X0239127Y0199842D01*
X0239127Y0199450D02*
X0238077Y0199450D01*
X0238077Y0199057D02*
X0239127Y0199057D01*
X0239127Y0198665D02*
X0238077Y0198665D01*
X0238077Y0198273D02*
X0239127Y0198273D01*
X0239127Y0197881D02*
X0238077Y0197881D01*
X0238077Y0197489D02*
X0239127Y0197489D01*
X0239127Y0197096D02*
X0238077Y0197096D01*
X0238077Y0196704D02*
X0239127Y0196704D01*
X0239127Y0196312D02*
X0238077Y0196312D01*
X0238077Y0195920D02*
X0239127Y0195920D01*
X0239127Y0195527D02*
X0238077Y0195527D01*
X0238077Y0195135D02*
X0239127Y0195135D01*
X0239127Y0194743D02*
X0238077Y0194743D01*
X0238077Y0194351D02*
X0239127Y0194351D01*
X0239127Y0193959D02*
X0238077Y0193959D01*
X0238077Y0193566D02*
X0239127Y0193566D01*
X0239127Y0193174D02*
X0238077Y0193174D01*
X0238077Y0192782D02*
X0239127Y0192782D01*
X0239127Y0192390D02*
X0238077Y0192390D01*
X0238077Y0191998D02*
X0239127Y0191998D01*
X0239127Y0191605D02*
X0238077Y0191605D01*
X0238077Y0191213D02*
X0239127Y0191213D01*
X0239127Y0190821D02*
X0238077Y0190821D01*
X0238077Y0190429D02*
X0239127Y0190429D01*
X0239127Y0190037D02*
X0238077Y0190037D01*
X0238077Y0189644D02*
X0239127Y0189644D01*
X0239127Y0189252D02*
X0238077Y0189252D01*
X0238077Y0188860D02*
X0239127Y0188860D01*
X0239127Y0188468D02*
X0238077Y0188468D01*
X0238077Y0188075D02*
X0239127Y0188075D01*
X0239127Y0187683D02*
X0238077Y0187683D01*
X0238077Y0187291D02*
X0239127Y0187291D01*
X0239127Y0186899D02*
X0238077Y0186899D01*
X0238077Y0186507D02*
X0239127Y0186507D01*
X0239127Y0186114D02*
X0238077Y0186114D01*
X0238077Y0185722D02*
X0239127Y0185722D01*
X0239127Y0185330D02*
X0238077Y0185330D01*
X0238077Y0184938D02*
X0239127Y0184938D01*
X0239127Y0184546D02*
X0238077Y0184546D01*
X0238077Y0184153D02*
X0239127Y0184153D01*
X0239127Y0183761D02*
X0238077Y0183761D01*
X0238077Y0183369D02*
X0239127Y0183369D01*
X0239127Y0182977D02*
X0238077Y0182977D01*
X0238077Y0182584D02*
X0239127Y0182584D01*
X0239127Y0182192D02*
X0238077Y0182192D01*
X0238077Y0181800D02*
X0239127Y0181800D01*
X0239127Y0181408D02*
X0238077Y0181408D01*
X0238077Y0181016D02*
X0239127Y0181016D01*
X0239127Y0180623D02*
X0238077Y0180623D01*
X0238077Y0180231D02*
X0239127Y0180231D01*
X0239127Y0179839D02*
X0238077Y0179839D01*
X0238077Y0179447D02*
X0239127Y0179447D01*
X0239127Y0179055D02*
X0238041Y0179055D01*
X0237649Y0178662D02*
X0239127Y0178662D01*
X0239127Y0178270D02*
X0237256Y0178270D01*
X0236864Y0177878D02*
X0239127Y0177878D01*
X0239127Y0177486D02*
X0227058Y0177486D01*
X0227144Y0177094D02*
X0239127Y0177094D01*
X0239127Y0176701D02*
X0227144Y0176701D01*
X0227144Y0176309D02*
X0239127Y0176309D01*
X0239127Y0175917D02*
X0227144Y0175917D01*
X0227144Y0175525D02*
X0239127Y0175525D01*
X0239127Y0175132D02*
X0227144Y0175132D01*
X0227144Y0174740D02*
X0239127Y0174740D01*
X0239127Y0174348D02*
X0227144Y0174348D01*
X0227144Y0173956D02*
X0239127Y0173956D01*
X0239127Y0173564D02*
X0227144Y0173564D01*
X0227144Y0173171D02*
X0239127Y0173171D01*
X0239127Y0172779D02*
X0227121Y0172779D01*
X0226729Y0172387D02*
X0239127Y0172387D01*
X0239127Y0171995D02*
X0217597Y0171995D01*
X0217597Y0172387D02*
X0221635Y0172387D01*
X0221243Y0172779D02*
X0217597Y0172779D01*
X0217597Y0173171D02*
X0221220Y0173171D01*
X0221220Y0173564D02*
X0217597Y0173564D01*
X0217597Y0173956D02*
X0221220Y0173956D01*
X0221220Y0174348D02*
X0217597Y0174348D01*
X0217597Y0174740D02*
X0221220Y0174740D01*
X0221220Y0175132D02*
X0217597Y0175132D01*
X0217597Y0175525D02*
X0221220Y0175525D01*
X0221687Y0171173D02*
X0221220Y0170706D01*
X0221220Y0166109D01*
X0221687Y0165643D01*
X0226678Y0165643D01*
X0227144Y0166109D01*
X0227144Y0167111D01*
X0228503Y0167111D01*
X0228503Y0166897D01*
X0228970Y0166430D01*
X0232780Y0166430D01*
X0233247Y0166897D01*
X0233247Y0170706D01*
X0232780Y0171173D01*
X0228970Y0171173D01*
X0228503Y0170706D01*
X0228503Y0169705D01*
X0227144Y0169705D01*
X0227144Y0170706D01*
X0226678Y0171173D01*
X0221687Y0171173D01*
X0221332Y0170818D02*
X0217597Y0170818D01*
X0217597Y0170426D02*
X0221220Y0170426D01*
X0221220Y0170034D02*
X0217584Y0170034D01*
X0217192Y0169641D02*
X0221220Y0169641D01*
X0221220Y0169249D02*
X0216818Y0169249D01*
X0216818Y0168857D02*
X0221220Y0168857D01*
X0221220Y0168465D02*
X0216818Y0168465D01*
X0216818Y0168073D02*
X0221220Y0168073D01*
X0221220Y0167680D02*
X0216818Y0167680D01*
X0216818Y0167288D02*
X0221220Y0167288D01*
X0221220Y0166896D02*
X0216818Y0166896D01*
X0216818Y0166504D02*
X0221220Y0166504D01*
X0221220Y0166112D02*
X0216818Y0166112D01*
X0216818Y0165719D02*
X0221610Y0165719D01*
X0221354Y0164935D02*
X0216818Y0164935D01*
X0216818Y0165327D02*
X0239127Y0165327D01*
X0239127Y0164935D02*
X0233310Y0164935D01*
X0233444Y0164801D02*
X0232977Y0165268D01*
X0228380Y0165268D01*
X0227913Y0164801D01*
X0227913Y0159810D01*
X0228370Y0159353D01*
X0227913Y0158895D01*
X0227913Y0153905D01*
X0228380Y0153438D01*
X0232977Y0153438D01*
X0233444Y0153905D01*
X0233444Y0155757D01*
X0234856Y0157169D01*
X0236111Y0157169D01*
X0237390Y0158448D01*
X0237390Y0160258D01*
X0236111Y0161537D01*
X0234856Y0161537D01*
X0233444Y0162949D01*
X0233444Y0164801D01*
X0233444Y0164543D02*
X0239127Y0164543D01*
X0239127Y0164151D02*
X0233444Y0164151D01*
X0233444Y0163758D02*
X0239127Y0163758D01*
X0239127Y0163366D02*
X0233444Y0163366D01*
X0233444Y0162974D02*
X0239127Y0162974D01*
X0239127Y0162582D02*
X0233811Y0162582D01*
X0234203Y0162189D02*
X0239127Y0162189D01*
X0239127Y0161797D02*
X0234595Y0161797D01*
X0236243Y0161405D02*
X0239127Y0161405D01*
X0239127Y0161013D02*
X0236635Y0161013D01*
X0237027Y0160621D02*
X0239127Y0160621D01*
X0239127Y0160228D02*
X0237390Y0160228D01*
X0237390Y0159836D02*
X0239127Y0159836D01*
X0239127Y0159444D02*
X0237390Y0159444D01*
X0237390Y0159052D02*
X0239127Y0159052D01*
X0239127Y0158660D02*
X0237390Y0158660D01*
X0237209Y0158267D02*
X0239127Y0158267D01*
X0239127Y0157875D02*
X0236817Y0157875D01*
X0236425Y0157483D02*
X0239127Y0157483D01*
X0239127Y0157091D02*
X0234778Y0157091D01*
X0234385Y0156698D02*
X0239127Y0156698D01*
X0239127Y0156306D02*
X0233993Y0156306D01*
X0233601Y0155914D02*
X0239127Y0155914D01*
X0239127Y0155522D02*
X0233444Y0155522D01*
X0233444Y0155130D02*
X0239127Y0155130D01*
X0239127Y0154737D02*
X0233444Y0154737D01*
X0233444Y0154345D02*
X0239127Y0154345D01*
X0239127Y0153953D02*
X0233444Y0153953D01*
X0233100Y0153561D02*
X0239127Y0153561D01*
X0239127Y0153169D02*
X0225282Y0153169D01*
X0225282Y0152776D02*
X0239127Y0152776D01*
X0239127Y0152384D02*
X0225282Y0152384D01*
X0225282Y0151992D02*
X0239127Y0151992D01*
X0239127Y0151600D02*
X0225282Y0151600D01*
X0225282Y0151208D02*
X0239122Y0151208D01*
X0239096Y0150815D02*
X0225282Y0150815D01*
X0225282Y0150423D02*
X0239071Y0150423D01*
X0239045Y0150031D02*
X0225282Y0150031D01*
X0225282Y0149639D02*
X0239019Y0149639D01*
X0238994Y0149246D02*
X0225282Y0149246D01*
X0225163Y0148854D02*
X0238965Y0148854D01*
X0238860Y0148462D02*
X0224771Y0148462D01*
X0224379Y0148070D02*
X0238755Y0148070D01*
X0238650Y0147678D02*
X0223987Y0147678D01*
X0223594Y0147285D02*
X0238545Y0147285D01*
X0238440Y0146893D02*
X0223202Y0146893D01*
X0222810Y0146501D02*
X0238334Y0146501D01*
X0238229Y0146109D02*
X0222418Y0146109D01*
X0222026Y0145717D02*
X0238124Y0145717D01*
X0238019Y0145324D02*
X0221633Y0145324D01*
X0221241Y0144932D02*
X0237914Y0144932D01*
X0237809Y0144540D02*
X0220849Y0144540D01*
X0220457Y0144148D02*
X0237686Y0144148D01*
X0237459Y0143755D02*
X0220065Y0143755D01*
X0219673Y0143363D02*
X0237233Y0143363D01*
X0237006Y0142971D02*
X0219673Y0142971D01*
X0219673Y0142579D02*
X0236780Y0142579D01*
X0236553Y0142187D02*
X0219673Y0142187D01*
X0219358Y0141794D02*
X0236327Y0141794D01*
X0236100Y0141402D02*
X0218966Y0141402D01*
X0218574Y0141010D02*
X0235874Y0141010D01*
X0235648Y0140618D02*
X0213963Y0140618D01*
X0213963Y0141010D02*
X0216404Y0141010D01*
X0216012Y0141402D02*
X0213963Y0141402D01*
X0213963Y0141794D02*
X0215620Y0141794D01*
X0215305Y0142187D02*
X0213963Y0142187D01*
X0213963Y0142579D02*
X0215305Y0142579D01*
X0215305Y0142971D02*
X0213963Y0142971D01*
X0213963Y0143363D02*
X0215305Y0143363D01*
X0214914Y0143755D02*
X0213963Y0143755D01*
X0213963Y0144148D02*
X0214522Y0144148D01*
X0214322Y0144540D02*
X0213963Y0144540D01*
X0213963Y0144932D02*
X0214322Y0144932D01*
X0214322Y0145324D02*
X0213963Y0145324D01*
X0213963Y0145717D02*
X0214322Y0145717D01*
X0214322Y0146109D02*
X0213963Y0146109D01*
X0213963Y0146501D02*
X0214322Y0146501D01*
X0211287Y0141402D02*
X0211092Y0141402D01*
X0210895Y0141010D02*
X0210700Y0141010D01*
X0210503Y0140618D02*
X0147814Y0140618D01*
X0147814Y0141010D02*
X0188845Y0141010D01*
X0188453Y0141402D02*
X0147814Y0141402D01*
X0147814Y0141794D02*
X0188061Y0141794D01*
X0187746Y0142187D02*
X0147814Y0142187D01*
X0147814Y0142579D02*
X0187746Y0142579D01*
X0187746Y0142971D02*
X0147814Y0142971D01*
X0147814Y0143363D02*
X0187746Y0143363D01*
X0187746Y0143755D02*
X0147814Y0143755D01*
X0147814Y0144148D02*
X0187975Y0144148D01*
X0188367Y0144540D02*
X0147814Y0144540D01*
X0147814Y0144932D02*
X0188759Y0144932D01*
X0190406Y0145324D02*
X0147802Y0145324D01*
X0147410Y0145717D02*
X0190503Y0145717D01*
X0190503Y0146109D02*
X0135444Y0146109D01*
X0135444Y0145717D02*
X0139537Y0145717D01*
X0139145Y0145324D02*
X0135444Y0145324D01*
X0135366Y0144932D02*
X0139133Y0144932D01*
X0139133Y0144540D02*
X0135204Y0144540D01*
X0135041Y0144148D02*
X0139133Y0144148D01*
X0139133Y0143755D02*
X0134679Y0143755D01*
X0134287Y0143363D02*
X0139133Y0143363D01*
X0139133Y0142971D02*
X0134375Y0142971D01*
X0134767Y0142579D02*
X0139133Y0142579D01*
X0139133Y0142187D02*
X0135078Y0142187D01*
X0135240Y0141794D02*
X0139133Y0141794D01*
X0139133Y0141402D02*
X0135403Y0141402D01*
X0135444Y0141010D02*
X0139133Y0141010D01*
X0139133Y0140618D02*
X0135444Y0140618D01*
X0131722Y0137872D02*
X0121512Y0137872D01*
X0121904Y0137480D02*
X0232760Y0137480D01*
X0233152Y0137872D02*
X0211425Y0137872D01*
X0211818Y0138265D02*
X0233544Y0138265D01*
X0233936Y0138657D02*
X0212210Y0138657D01*
X0212602Y0139049D02*
X0234328Y0139049D01*
X0234721Y0139441D02*
X0212994Y0139441D01*
X0213386Y0139833D02*
X0235113Y0139833D01*
X0235421Y0140226D02*
X0213779Y0140226D01*
X0208530Y0141010D02*
X0206763Y0141010D01*
X0207155Y0141402D02*
X0208138Y0141402D01*
X0207746Y0141794D02*
X0207547Y0141794D01*
X0204593Y0141010D02*
X0198889Y0141010D01*
X0199281Y0141402D02*
X0204201Y0141402D01*
X0203809Y0141794D02*
X0199673Y0141794D01*
X0199988Y0142187D02*
X0203494Y0142187D01*
X0203494Y0142579D02*
X0199988Y0142579D01*
X0199988Y0142971D02*
X0203494Y0142971D01*
X0203494Y0143363D02*
X0199988Y0143363D01*
X0199988Y0143755D02*
X0203494Y0143755D01*
X0203692Y0144148D02*
X0199760Y0144148D01*
X0199367Y0144540D02*
X0203692Y0144540D01*
X0203692Y0144932D02*
X0198975Y0144932D01*
X0198609Y0145324D02*
X0203692Y0145324D01*
X0203692Y0145717D02*
X0198609Y0145717D01*
X0198609Y0146109D02*
X0203692Y0146109D01*
X0203692Y0146501D02*
X0198609Y0146501D01*
X0195935Y0141794D02*
X0195736Y0141794D01*
X0195344Y0141402D02*
X0196327Y0141402D01*
X0196719Y0141010D02*
X0194952Y0141010D01*
X0192782Y0141010D02*
X0191015Y0141010D01*
X0191407Y0141402D02*
X0192390Y0141402D01*
X0191998Y0141794D02*
X0191799Y0141794D01*
X0190503Y0146501D02*
X0135329Y0146501D01*
X0135167Y0146893D02*
X0189944Y0146893D01*
X0189822Y0147285D02*
X0134982Y0147285D01*
X0134590Y0147678D02*
X0189822Y0147678D01*
X0189822Y0148070D02*
X0134140Y0148070D01*
X0134465Y0148462D02*
X0189822Y0148462D01*
X0189822Y0148854D02*
X0134857Y0148854D01*
X0135115Y0149246D02*
X0189822Y0149246D01*
X0189822Y0149639D02*
X0135277Y0149639D01*
X0135440Y0150031D02*
X0189822Y0150031D01*
X0189822Y0150423D02*
X0135444Y0150423D01*
X0135444Y0150815D02*
X0189822Y0150815D01*
X0189822Y0151208D02*
X0135418Y0151208D01*
X0135256Y0151600D02*
X0189822Y0151600D01*
X0189822Y0151992D02*
X0135093Y0151992D01*
X0134804Y0152384D02*
X0189822Y0152384D01*
X0189822Y0152776D02*
X0134412Y0152776D01*
X0133712Y0153169D02*
X0190001Y0153169D01*
X0183087Y0160228D02*
X0171874Y0160228D01*
X0172381Y0161405D02*
X0115536Y0161405D01*
X0115536Y0161013D02*
X0182302Y0161013D01*
X0182695Y0160621D02*
X0115536Y0160621D01*
X0115536Y0160228D02*
X0139482Y0160228D01*
X0139600Y0160346D02*
X0139133Y0159880D01*
X0139133Y0154889D01*
X0139600Y0154422D01*
X0147347Y0154422D01*
X0147814Y0154889D01*
X0147814Y0159880D01*
X0147347Y0160346D01*
X0139600Y0160346D01*
X0139133Y0159836D02*
X0115536Y0159836D01*
X0115536Y0159444D02*
X0139133Y0159444D01*
X0139133Y0159052D02*
X0115536Y0159052D01*
X0115536Y0158660D02*
X0139133Y0158660D01*
X0139133Y0158267D02*
X0115536Y0158267D01*
X0115536Y0157875D02*
X0139133Y0157875D01*
X0139133Y0157483D02*
X0115536Y0157483D01*
X0115536Y0157091D02*
X0139133Y0157091D01*
X0139133Y0156698D02*
X0115536Y0156698D01*
X0115536Y0156306D02*
X0139133Y0156306D01*
X0139133Y0155914D02*
X0115536Y0155914D01*
X0115536Y0155522D02*
X0139133Y0155522D01*
X0139133Y0155130D02*
X0115536Y0155130D01*
X0115536Y0154737D02*
X0139285Y0154737D01*
X0147662Y0154737D02*
X0163694Y0154737D01*
X0163543Y0155130D02*
X0147814Y0155130D01*
X0147814Y0155522D02*
X0163543Y0155522D01*
X0163543Y0155914D02*
X0147814Y0155914D01*
X0147814Y0156306D02*
X0163543Y0156306D01*
X0163543Y0156698D02*
X0147814Y0156698D01*
X0147814Y0157091D02*
X0163543Y0157091D01*
X0163543Y0157483D02*
X0147814Y0157483D01*
X0147814Y0157875D02*
X0163543Y0157875D01*
X0163543Y0158267D02*
X0147814Y0158267D01*
X0147814Y0158660D02*
X0163543Y0158660D01*
X0163543Y0159052D02*
X0147814Y0159052D01*
X0147814Y0159444D02*
X0163543Y0159444D01*
X0163543Y0159836D02*
X0147814Y0159836D01*
X0147465Y0160228D02*
X0163891Y0160228D01*
X0162726Y0165833D02*
X0161623Y0165833D01*
X0160604Y0166255D01*
X0159825Y0167035D01*
X0159403Y0168053D01*
X0159403Y0169156D01*
X0159825Y0170175D01*
X0160604Y0170954D01*
X0161623Y0171376D01*
X0162726Y0171376D01*
X0163744Y0170954D01*
X0164524Y0170175D01*
X0164946Y0169156D01*
X0164946Y0168053D01*
X0164524Y0167035D01*
X0163744Y0166255D01*
X0162726Y0165833D01*
X0163398Y0166112D02*
X0172007Y0166112D01*
X0172007Y0165719D02*
X0115536Y0165719D01*
X0115536Y0165327D02*
X0172007Y0165327D01*
X0172007Y0164935D02*
X0115536Y0164935D01*
X0115536Y0164543D02*
X0172007Y0164543D01*
X0172007Y0164151D02*
X0115536Y0164151D01*
X0115536Y0163758D02*
X0172007Y0163758D01*
X0172007Y0163366D02*
X0115536Y0163366D01*
X0115536Y0162974D02*
X0172007Y0162974D01*
X0172007Y0162582D02*
X0115536Y0162582D01*
X0115536Y0162189D02*
X0172007Y0162189D01*
X0172007Y0161797D02*
X0115536Y0161797D01*
X0115536Y0166112D02*
X0160951Y0166112D01*
X0160356Y0166504D02*
X0115536Y0166504D01*
X0115536Y0166896D02*
X0159963Y0166896D01*
X0159720Y0167288D02*
X0115536Y0167288D01*
X0115536Y0167680D02*
X0155876Y0167680D01*
X0155955Y0167602D02*
X0157764Y0167602D01*
X0159044Y0168881D01*
X0159044Y0170691D01*
X0157764Y0171970D01*
X0155955Y0171970D01*
X0155067Y0171083D01*
X0120782Y0171083D01*
X0119573Y0172292D01*
X0119573Y0191847D01*
X0121676Y0193950D01*
X0125103Y0193950D01*
X0125570Y0194416D01*
X0125570Y0199014D01*
X0125103Y0199480D01*
X0120112Y0199480D01*
X0119645Y0199014D01*
X0119645Y0195587D01*
X0117739Y0193681D01*
X0116980Y0192921D01*
X0116980Y0171217D01*
X0118948Y0169249D01*
X0115536Y0169249D01*
X0115536Y0168857D02*
X0119340Y0168857D01*
X0119708Y0168489D02*
X0155067Y0168489D01*
X0155955Y0167602D01*
X0155484Y0168073D02*
X0115536Y0168073D01*
X0115536Y0168465D02*
X0155091Y0168465D01*
X0155195Y0171210D02*
X0120655Y0171210D01*
X0120262Y0171603D02*
X0155587Y0171603D01*
X0157750Y0172779D02*
X0173673Y0172779D01*
X0173673Y0172387D02*
X0119573Y0172387D01*
X0119573Y0172779D02*
X0124709Y0172779D01*
X0124317Y0173171D02*
X0119573Y0173171D01*
X0119573Y0173564D02*
X0123925Y0173564D01*
X0125632Y0175525D02*
X0156827Y0175525D01*
X0157219Y0175917D02*
X0125570Y0175917D01*
X0125570Y0176309D02*
X0155909Y0176309D01*
X0155516Y0176701D02*
X0125570Y0176701D01*
X0125570Y0177094D02*
X0155124Y0177094D01*
X0156435Y0175132D02*
X0126024Y0175132D01*
X0125570Y0177486D02*
X0130003Y0177486D01*
X0129610Y0177878D02*
X0125570Y0177878D01*
X0125570Y0178270D02*
X0129218Y0178270D01*
X0128826Y0178662D02*
X0125570Y0178662D01*
X0125529Y0179055D02*
X0128434Y0179055D01*
X0128042Y0179447D02*
X0125136Y0179447D01*
X0126473Y0181016D02*
X0119573Y0181016D01*
X0119573Y0181408D02*
X0126080Y0181408D01*
X0125688Y0181800D02*
X0119573Y0181800D01*
X0119573Y0182192D02*
X0125296Y0182192D01*
X0124904Y0182584D02*
X0119573Y0182584D01*
X0119573Y0182977D02*
X0124512Y0182977D01*
X0124119Y0183369D02*
X0119573Y0183369D01*
X0119573Y0183761D02*
X0123727Y0183761D01*
X0125826Y0185330D02*
X0159092Y0185330D01*
X0158700Y0185722D02*
X0125570Y0185722D01*
X0125570Y0186114D02*
X0158612Y0186114D01*
X0158612Y0186507D02*
X0125570Y0186507D01*
X0125570Y0186899D02*
X0158612Y0186899D01*
X0158612Y0187291D02*
X0125570Y0187291D01*
X0125570Y0187683D02*
X0158676Y0187683D01*
X0159068Y0188075D02*
X0125570Y0188075D01*
X0125570Y0188468D02*
X0159460Y0188468D01*
X0159499Y0188860D02*
X0125570Y0188860D01*
X0125331Y0189252D02*
X0159767Y0189252D01*
X0160159Y0189644D02*
X0119573Y0189644D01*
X0119573Y0189252D02*
X0119884Y0189252D01*
X0119645Y0188860D02*
X0119573Y0188860D01*
X0119573Y0188468D02*
X0119645Y0188468D01*
X0119645Y0188075D02*
X0119573Y0188075D01*
X0119573Y0187683D02*
X0119645Y0187683D01*
X0119645Y0187291D02*
X0119573Y0187291D01*
X0119573Y0186899D02*
X0119645Y0186899D01*
X0119645Y0186507D02*
X0119573Y0186507D01*
X0119573Y0186114D02*
X0119645Y0186114D01*
X0119645Y0185722D02*
X0119573Y0185722D01*
X0119573Y0185330D02*
X0119645Y0185330D01*
X0119645Y0184938D02*
X0119573Y0184938D01*
X0119573Y0184546D02*
X0119645Y0184546D01*
X0119573Y0184153D02*
X0119908Y0184153D01*
X0119573Y0180623D02*
X0126865Y0180623D01*
X0127257Y0180231D02*
X0119573Y0180231D01*
X0119573Y0179839D02*
X0127649Y0179839D01*
X0129356Y0181800D02*
X0154748Y0181800D01*
X0154675Y0182192D02*
X0128964Y0182192D01*
X0128572Y0182584D02*
X0154675Y0182584D01*
X0154675Y0182977D02*
X0128180Y0182977D01*
X0127787Y0183369D02*
X0154675Y0183369D01*
X0154753Y0183761D02*
X0127395Y0183761D01*
X0127003Y0184153D02*
X0155146Y0184153D01*
X0155538Y0184546D02*
X0126611Y0184546D01*
X0126219Y0184938D02*
X0155930Y0184938D01*
X0157789Y0184938D02*
X0159485Y0184938D01*
X0159877Y0184546D02*
X0158181Y0184546D01*
X0158573Y0184153D02*
X0164668Y0184153D01*
X0165061Y0184546D02*
X0161716Y0184546D01*
X0162108Y0184938D02*
X0165453Y0184938D01*
X0165845Y0185330D02*
X0162500Y0185330D01*
X0162892Y0185722D02*
X0166102Y0185722D01*
X0166102Y0186114D02*
X0162981Y0186114D01*
X0162981Y0186507D02*
X0166102Y0186507D01*
X0166102Y0186899D02*
X0162981Y0186899D01*
X0162981Y0187291D02*
X0166102Y0187291D01*
X0166102Y0187683D02*
X0162917Y0187683D01*
X0162525Y0188075D02*
X0166102Y0188075D01*
X0166102Y0188468D02*
X0162651Y0188468D01*
X0163043Y0188860D02*
X0166102Y0188860D01*
X0166340Y0189252D02*
X0163435Y0189252D01*
X0163827Y0189644D02*
X0171779Y0189644D01*
X0171779Y0190037D02*
X0164220Y0190037D01*
X0164612Y0190429D02*
X0171779Y0190429D01*
X0171779Y0190821D02*
X0165004Y0190821D01*
X0165396Y0191213D02*
X0171779Y0191213D01*
X0171779Y0191605D02*
X0165788Y0191605D01*
X0166181Y0191998D02*
X0171779Y0191998D01*
X0171779Y0192390D02*
X0166573Y0192390D01*
X0166965Y0192782D02*
X0171779Y0192782D01*
X0171779Y0193174D02*
X0167357Y0193174D01*
X0167749Y0193566D02*
X0171779Y0193566D01*
X0171779Y0193959D02*
X0171568Y0193959D01*
X0166042Y0195527D02*
X0125570Y0195527D01*
X0125570Y0195135D02*
X0165650Y0195135D01*
X0165258Y0194743D02*
X0125570Y0194743D01*
X0125504Y0194351D02*
X0164866Y0194351D01*
X0164474Y0193959D02*
X0125112Y0193959D01*
X0125570Y0195920D02*
X0166102Y0195920D01*
X0166102Y0196312D02*
X0125570Y0196312D01*
X0125570Y0196704D02*
X0166102Y0196704D01*
X0166102Y0197096D02*
X0125570Y0197096D01*
X0125570Y0197489D02*
X0166102Y0197489D01*
X0166102Y0197881D02*
X0125570Y0197881D01*
X0125570Y0198273D02*
X0166102Y0198273D01*
X0166102Y0198665D02*
X0125570Y0198665D01*
X0125526Y0199057D02*
X0166146Y0199057D01*
X0166538Y0199450D02*
X0125134Y0199450D01*
X0120081Y0199450D02*
X0115536Y0199450D01*
X0115536Y0199057D02*
X0119689Y0199057D01*
X0119645Y0198665D02*
X0115536Y0198665D01*
X0115536Y0198273D02*
X0119645Y0198273D01*
X0119645Y0197881D02*
X0115536Y0197881D01*
X0115536Y0197489D02*
X0119645Y0197489D01*
X0119645Y0197096D02*
X0115536Y0197096D01*
X0115536Y0196704D02*
X0119645Y0196704D01*
X0119645Y0196312D02*
X0115536Y0196312D01*
X0115536Y0195920D02*
X0119645Y0195920D01*
X0119586Y0195527D02*
X0115536Y0195527D01*
X0115536Y0195135D02*
X0119194Y0195135D01*
X0118801Y0194743D02*
X0115536Y0194743D01*
X0115536Y0194351D02*
X0118409Y0194351D01*
X0118017Y0193959D02*
X0115536Y0193959D01*
X0115536Y0193566D02*
X0117625Y0193566D01*
X0117233Y0193174D02*
X0115536Y0193174D01*
X0115536Y0192782D02*
X0116980Y0192782D01*
X0116980Y0192390D02*
X0115536Y0192390D01*
X0115536Y0191998D02*
X0116980Y0191998D01*
X0116980Y0191605D02*
X0115536Y0191605D01*
X0115536Y0191213D02*
X0116980Y0191213D01*
X0116980Y0190821D02*
X0115536Y0190821D01*
X0115536Y0190429D02*
X0116980Y0190429D01*
X0116980Y0190037D02*
X0115536Y0190037D01*
X0115536Y0189644D02*
X0116980Y0189644D01*
X0116980Y0189252D02*
X0115536Y0189252D01*
X0115536Y0188860D02*
X0116980Y0188860D01*
X0116980Y0188468D02*
X0115536Y0188468D01*
X0115536Y0188075D02*
X0116980Y0188075D01*
X0116980Y0187683D02*
X0115536Y0187683D01*
X0115536Y0187291D02*
X0116980Y0187291D01*
X0116980Y0186899D02*
X0115536Y0186899D01*
X0115536Y0186507D02*
X0116980Y0186507D01*
X0116980Y0186114D02*
X0115536Y0186114D01*
X0115536Y0185722D02*
X0116980Y0185722D01*
X0116980Y0185330D02*
X0115536Y0185330D01*
X0115536Y0184938D02*
X0116980Y0184938D01*
X0116980Y0184546D02*
X0115536Y0184546D01*
X0115536Y0184153D02*
X0116980Y0184153D01*
X0116980Y0183761D02*
X0115536Y0183761D01*
X0115536Y0183369D02*
X0116980Y0183369D01*
X0116980Y0182977D02*
X0115536Y0182977D01*
X0115536Y0182584D02*
X0116980Y0182584D01*
X0116980Y0182192D02*
X0115536Y0182192D01*
X0115536Y0181800D02*
X0116980Y0181800D01*
X0116980Y0181408D02*
X0115536Y0181408D01*
X0115536Y0181016D02*
X0116980Y0181016D01*
X0116980Y0180623D02*
X0115536Y0180623D01*
X0115536Y0180231D02*
X0116980Y0180231D01*
X0116980Y0179839D02*
X0115536Y0179839D01*
X0115536Y0179447D02*
X0116980Y0179447D01*
X0116980Y0179055D02*
X0115536Y0179055D01*
X0115536Y0178662D02*
X0116980Y0178662D01*
X0116980Y0178270D02*
X0115536Y0178270D01*
X0115536Y0177878D02*
X0116980Y0177878D01*
X0116980Y0177486D02*
X0115536Y0177486D01*
X0115536Y0177094D02*
X0116980Y0177094D01*
X0116980Y0176701D02*
X0115536Y0176701D01*
X0115536Y0176309D02*
X0116980Y0176309D01*
X0116980Y0175917D02*
X0115536Y0175917D01*
X0115536Y0175525D02*
X0116980Y0175525D01*
X0116980Y0175132D02*
X0115536Y0175132D01*
X0115536Y0174740D02*
X0116980Y0174740D01*
X0116980Y0174348D02*
X0115536Y0174348D01*
X0115536Y0173956D02*
X0116980Y0173956D01*
X0116980Y0173564D02*
X0115536Y0173564D01*
X0115536Y0173171D02*
X0116980Y0173171D01*
X0116980Y0172779D02*
X0115536Y0172779D01*
X0115536Y0172387D02*
X0116980Y0172387D01*
X0116980Y0171995D02*
X0115536Y0171995D01*
X0115536Y0171603D02*
X0116980Y0171603D01*
X0116987Y0171210D02*
X0115536Y0171210D01*
X0115536Y0170818D02*
X0117379Y0170818D01*
X0117771Y0170426D02*
X0115536Y0170426D01*
X0115536Y0170034D02*
X0118163Y0170034D01*
X0118556Y0169641D02*
X0115536Y0169641D01*
X0118948Y0169249D02*
X0119708Y0168489D01*
X0119870Y0171995D02*
X0173673Y0171995D01*
X0173673Y0171603D02*
X0158132Y0171603D01*
X0158524Y0171210D02*
X0161222Y0171210D01*
X0160468Y0170818D02*
X0158916Y0170818D01*
X0159044Y0170426D02*
X0160076Y0170426D01*
X0159766Y0170034D02*
X0159044Y0170034D01*
X0159044Y0169641D02*
X0159604Y0169641D01*
X0159441Y0169249D02*
X0159044Y0169249D01*
X0159019Y0168857D02*
X0159403Y0168857D01*
X0159403Y0168465D02*
X0158627Y0168465D01*
X0158235Y0168073D02*
X0159403Y0168073D01*
X0159557Y0167680D02*
X0157843Y0167680D01*
X0158142Y0173171D02*
X0173673Y0173171D01*
X0173673Y0173564D02*
X0158534Y0173564D01*
X0158926Y0173956D02*
X0173673Y0173956D01*
X0173673Y0174348D02*
X0159318Y0174348D01*
X0159711Y0174740D02*
X0173673Y0174740D01*
X0173673Y0175132D02*
X0160103Y0175132D01*
X0160495Y0175525D02*
X0173673Y0175525D01*
X0173376Y0175917D02*
X0160887Y0175917D01*
X0161280Y0176309D02*
X0172759Y0176309D01*
X0172366Y0176701D02*
X0161672Y0176701D01*
X0161699Y0177094D02*
X0172109Y0177094D01*
X0171947Y0177486D02*
X0161699Y0177486D01*
X0161699Y0177878D02*
X0171784Y0177878D01*
X0171779Y0178270D02*
X0161699Y0178270D01*
X0161699Y0178662D02*
X0171779Y0178662D01*
X0171779Y0179055D02*
X0161699Y0179055D01*
X0161699Y0179447D02*
X0171779Y0179447D01*
X0171779Y0179839D02*
X0161699Y0179839D01*
X0161699Y0180231D02*
X0171779Y0180231D01*
X0171779Y0180623D02*
X0161635Y0180623D01*
X0161243Y0181016D02*
X0171779Y0181016D01*
X0171779Y0181408D02*
X0160851Y0181408D01*
X0155925Y0180623D02*
X0130533Y0180623D01*
X0130925Y0180231D02*
X0155554Y0180231D01*
X0155162Y0179839D02*
X0131317Y0179839D01*
X0130141Y0181016D02*
X0155533Y0181016D01*
X0155140Y0181408D02*
X0129749Y0181408D01*
X0120078Y0179447D02*
X0119573Y0179447D01*
X0119573Y0179055D02*
X0119686Y0179055D01*
X0119645Y0178662D02*
X0119573Y0178662D01*
X0119573Y0178270D02*
X0119645Y0178270D01*
X0119645Y0177878D02*
X0119573Y0177878D01*
X0119573Y0177486D02*
X0119645Y0177486D01*
X0119645Y0177094D02*
X0119573Y0177094D01*
X0119573Y0176701D02*
X0119645Y0176701D01*
X0119645Y0176309D02*
X0119573Y0176309D01*
X0119573Y0175917D02*
X0119645Y0175917D01*
X0119645Y0175525D02*
X0119573Y0175525D01*
X0119573Y0175132D02*
X0119645Y0175132D01*
X0119645Y0174740D02*
X0119573Y0174740D01*
X0119573Y0174348D02*
X0119714Y0174348D01*
X0119573Y0173956D02*
X0120106Y0173956D01*
X0119573Y0190037D02*
X0160552Y0190037D01*
X0160944Y0190429D02*
X0119573Y0190429D01*
X0119573Y0190821D02*
X0161336Y0190821D01*
X0161728Y0191213D02*
X0119573Y0191213D01*
X0119573Y0191605D02*
X0162120Y0191605D01*
X0162513Y0191998D02*
X0119724Y0191998D01*
X0120116Y0192390D02*
X0162905Y0192390D01*
X0163297Y0192782D02*
X0120508Y0192782D01*
X0120901Y0193174D02*
X0163689Y0193174D01*
X0164081Y0193566D02*
X0121293Y0193566D01*
X0130479Y0201018D02*
X0171779Y0201018D01*
X0171779Y0201411D02*
X0131346Y0201411D01*
X0131739Y0201803D02*
X0171779Y0201803D01*
X0171779Y0202195D02*
X0132131Y0202195D01*
X0132322Y0202587D02*
X0171779Y0202587D01*
X0171779Y0202980D02*
X0132485Y0202980D01*
X0132647Y0203372D02*
X0171779Y0203372D01*
X0171779Y0203764D02*
X0132662Y0203764D01*
X0132662Y0204156D02*
X0171779Y0204156D01*
X0171779Y0204548D02*
X0132662Y0204548D01*
X0132549Y0204941D02*
X0171779Y0204941D01*
X0171779Y0205333D02*
X0132387Y0205333D01*
X0132224Y0205725D02*
X0171779Y0205725D01*
X0171779Y0206117D02*
X0131894Y0206117D01*
X0131502Y0206509D02*
X0171779Y0206509D01*
X0171779Y0206902D02*
X0130855Y0206902D01*
X0164349Y0213569D02*
X0171779Y0213569D01*
X0171779Y0213961D02*
X0165295Y0213961D01*
X0165805Y0214354D02*
X0171779Y0214354D01*
X0171779Y0214746D02*
X0166197Y0214746D01*
X0166589Y0215138D02*
X0171779Y0215138D01*
X0171779Y0215530D02*
X0166860Y0215530D01*
X0167022Y0215923D02*
X0171779Y0215923D01*
X0171779Y0216315D02*
X0167185Y0216315D01*
X0167347Y0216707D02*
X0171779Y0216707D01*
X0171779Y0217099D02*
X0167466Y0217099D01*
X0167466Y0217491D02*
X0171779Y0217491D01*
X0171779Y0217884D02*
X0167466Y0217884D01*
X0167466Y0218276D02*
X0171779Y0218276D01*
X0171779Y0218668D02*
X0167466Y0218668D01*
X0167358Y0219060D02*
X0171779Y0219060D01*
X0171779Y0219452D02*
X0167195Y0219452D01*
X0167033Y0219845D02*
X0171779Y0219845D01*
X0171779Y0220237D02*
X0166870Y0220237D01*
X0166615Y0220629D02*
X0171779Y0220629D01*
X0171779Y0221021D02*
X0166222Y0221021D01*
X0165830Y0221413D02*
X0171779Y0221413D01*
X0171779Y0221806D02*
X0165356Y0221806D01*
X0177148Y0230827D02*
X0235484Y0230827D01*
X0235484Y0231219D02*
X0176985Y0231219D01*
X0176647Y0231611D02*
X0235484Y0231611D01*
X0235484Y0232003D02*
X0176255Y0232003D01*
X0175863Y0232395D02*
X0235484Y0232395D01*
X0235484Y0232788D02*
X0206734Y0232788D01*
X0207127Y0233180D02*
X0235484Y0233180D01*
X0235484Y0233572D02*
X0207519Y0233572D01*
X0207911Y0233964D02*
X0235484Y0233964D01*
X0235484Y0234356D02*
X0208303Y0234356D01*
X0208695Y0234749D02*
X0235484Y0234749D01*
X0235484Y0235141D02*
X0209088Y0235141D01*
X0209480Y0235533D02*
X0235484Y0235533D01*
X0235484Y0235925D02*
X0209872Y0235925D01*
X0210264Y0236318D02*
X0235344Y0236318D01*
X0234952Y0236710D02*
X0210657Y0236710D01*
X0211049Y0237102D02*
X0214407Y0237102D01*
X0214015Y0237494D02*
X0211441Y0237494D01*
X0211833Y0237886D02*
X0213623Y0237886D01*
X0213336Y0238279D02*
X0212225Y0238279D01*
X0212618Y0238671D02*
X0213336Y0238671D01*
X0213336Y0239063D02*
X0213010Y0239063D01*
X0211303Y0241024D02*
X0208233Y0241024D01*
X0208233Y0240632D02*
X0210911Y0240632D01*
X0210518Y0240240D02*
X0208233Y0240240D01*
X0208081Y0239847D02*
X0210126Y0239847D01*
X0209734Y0239455D02*
X0207918Y0239455D01*
X0207756Y0239063D02*
X0209342Y0239063D01*
X0208950Y0238671D02*
X0207501Y0238671D01*
X0207109Y0238279D02*
X0208557Y0238279D01*
X0208165Y0237886D02*
X0206717Y0237886D01*
X0205940Y0237494D02*
X0207773Y0237494D01*
X0207381Y0237102D02*
X0198070Y0237102D01*
X0197678Y0237494D02*
X0202976Y0237494D01*
X0202199Y0237886D02*
X0197286Y0237886D01*
X0197233Y0238279D02*
X0201807Y0238279D01*
X0201414Y0238671D02*
X0197233Y0238671D01*
X0197233Y0239063D02*
X0201160Y0239063D01*
X0200997Y0239455D02*
X0196972Y0239455D01*
X0196580Y0239847D02*
X0200835Y0239847D01*
X0200682Y0240240D02*
X0196187Y0240240D01*
X0193909Y0240240D02*
X0187093Y0240240D01*
X0187093Y0239918D02*
X0187093Y0243398D01*
X0188095Y0243398D01*
X0188562Y0243865D01*
X0188562Y0252399D01*
X0188095Y0252866D01*
X0183498Y0252866D01*
X0183031Y0252399D01*
X0183031Y0243865D01*
X0183498Y0243398D01*
X0184499Y0243398D01*
X0184499Y0240992D01*
X0183981Y0240474D01*
X0182726Y0240474D01*
X0181662Y0239410D01*
X0181188Y0239885D01*
X0181188Y0243398D01*
X0182189Y0243398D01*
X0182656Y0243865D01*
X0182656Y0252399D01*
X0182189Y0252866D01*
X0177592Y0252866D01*
X0177125Y0252399D01*
X0177125Y0247835D01*
X0176574Y0248386D01*
X0175201Y0248955D01*
X0173715Y0248955D01*
X0172341Y0248386D01*
X0171290Y0247335D01*
X0170722Y0245962D01*
X0170722Y0244476D01*
X0171290Y0243103D01*
X0172341Y0242052D01*
X0173715Y0241483D01*
X0175201Y0241483D01*
X0176574Y0242052D01*
X0177625Y0243103D01*
X0177748Y0243398D01*
X0178594Y0243398D01*
X0178594Y0240279D01*
X0177510Y0239195D01*
X0177510Y0237385D01*
X0178789Y0236106D01*
X0180599Y0236106D01*
X0181662Y0237169D01*
X0182726Y0236106D01*
X0184536Y0236106D01*
X0185815Y0237385D01*
X0185815Y0238640D01*
X0187093Y0239918D01*
X0187023Y0239847D02*
X0193517Y0239847D01*
X0193125Y0239455D02*
X0186630Y0239455D01*
X0186238Y0239063D02*
X0192864Y0239063D01*
X0192864Y0238671D02*
X0185846Y0238671D01*
X0185815Y0238279D02*
X0192864Y0238279D01*
X0192864Y0237886D02*
X0185815Y0237886D01*
X0185815Y0237494D02*
X0192864Y0237494D01*
X0193147Y0237102D02*
X0185532Y0237102D01*
X0185140Y0236710D02*
X0193539Y0236710D01*
X0193932Y0236318D02*
X0184748Y0236318D01*
X0182514Y0236318D02*
X0180811Y0236318D01*
X0181203Y0236710D02*
X0182122Y0236710D01*
X0181730Y0237102D02*
X0181595Y0237102D01*
X0181618Y0239455D02*
X0181707Y0239455D01*
X0182100Y0239847D02*
X0181225Y0239847D01*
X0181188Y0240240D02*
X0182492Y0240240D01*
X0181188Y0240632D02*
X0184139Y0240632D01*
X0184499Y0241024D02*
X0181188Y0241024D01*
X0181188Y0241416D02*
X0184499Y0241416D01*
X0184499Y0241809D02*
X0181188Y0241809D01*
X0181188Y0242201D02*
X0184499Y0242201D01*
X0184499Y0242593D02*
X0181188Y0242593D01*
X0181188Y0242985D02*
X0184499Y0242985D01*
X0184499Y0243377D02*
X0181188Y0243377D01*
X0182560Y0243770D02*
X0183127Y0243770D01*
X0183031Y0244162D02*
X0182656Y0244162D01*
X0182656Y0244554D02*
X0183031Y0244554D01*
X0183031Y0244946D02*
X0182656Y0244946D01*
X0182656Y0245338D02*
X0183031Y0245338D01*
X0183031Y0245731D02*
X0182656Y0245731D01*
X0182656Y0246123D02*
X0183031Y0246123D01*
X0183031Y0246515D02*
X0182656Y0246515D01*
X0182656Y0246907D02*
X0183031Y0246907D01*
X0183031Y0247299D02*
X0182656Y0247299D01*
X0182656Y0247692D02*
X0183031Y0247692D01*
X0183031Y0248084D02*
X0182656Y0248084D01*
X0182656Y0248476D02*
X0183031Y0248476D01*
X0183031Y0248868D02*
X0182656Y0248868D01*
X0182656Y0249261D02*
X0183031Y0249261D01*
X0183031Y0249653D02*
X0182656Y0249653D01*
X0182656Y0250045D02*
X0183031Y0250045D01*
X0183031Y0250437D02*
X0182656Y0250437D01*
X0182656Y0250829D02*
X0183031Y0250829D01*
X0183031Y0251222D02*
X0182656Y0251222D01*
X0182656Y0251614D02*
X0183031Y0251614D01*
X0183031Y0252006D02*
X0182656Y0252006D01*
X0182656Y0252398D02*
X0183031Y0252398D01*
X0183422Y0252790D02*
X0182265Y0252790D01*
X0186133Y0256320D02*
X0151938Y0256320D01*
X0151545Y0256713D02*
X0185741Y0256713D01*
X0185349Y0257105D02*
X0151153Y0257105D01*
X0150761Y0257497D02*
X0184990Y0257497D01*
X0184990Y0257889D02*
X0150369Y0257889D01*
X0149977Y0258281D02*
X0184990Y0258281D01*
X0184990Y0258674D02*
X0149584Y0258674D01*
X0149192Y0259066D02*
X0184990Y0259066D01*
X0185175Y0259458D02*
X0148800Y0259458D01*
X0148408Y0259850D02*
X0185567Y0259850D01*
X0185959Y0260242D02*
X0148016Y0260242D01*
X0147623Y0260635D02*
X0209260Y0260635D01*
X0209499Y0261027D02*
X0147231Y0261027D01*
X0146839Y0261419D02*
X0209499Y0261419D01*
X0209499Y0261811D02*
X0146447Y0261811D01*
X0152722Y0255536D02*
X0208886Y0255536D01*
X0208493Y0255144D02*
X0153114Y0255144D01*
X0153506Y0254752D02*
X0208101Y0254752D01*
X0207925Y0254359D02*
X0153899Y0254359D01*
X0154291Y0253967D02*
X0207925Y0253967D01*
X0207925Y0253575D02*
X0154683Y0253575D01*
X0155075Y0253183D02*
X0207925Y0253183D01*
X0207044Y0252790D02*
X0205887Y0252790D01*
X0206278Y0252398D02*
X0206653Y0252398D01*
X0206653Y0252006D02*
X0206278Y0252006D01*
X0206278Y0251614D02*
X0206653Y0251614D01*
X0206653Y0251222D02*
X0206278Y0251222D01*
X0206278Y0250829D02*
X0206653Y0250829D01*
X0206653Y0250437D02*
X0206278Y0250437D01*
X0206278Y0250045D02*
X0206653Y0250045D01*
X0206653Y0249653D02*
X0206278Y0249653D01*
X0206278Y0249261D02*
X0206653Y0249261D01*
X0206653Y0248868D02*
X0206278Y0248868D01*
X0206278Y0248476D02*
X0206653Y0248476D01*
X0206653Y0248084D02*
X0206278Y0248084D01*
X0206278Y0247692D02*
X0206653Y0247692D01*
X0206653Y0247299D02*
X0206278Y0247299D01*
X0206278Y0246907D02*
X0206653Y0246907D01*
X0206653Y0246515D02*
X0206278Y0246515D01*
X0206278Y0246123D02*
X0206653Y0246123D01*
X0206653Y0245731D02*
X0206278Y0245731D01*
X0206278Y0245338D02*
X0206653Y0245338D01*
X0206653Y0244946D02*
X0206278Y0244946D01*
X0206278Y0244554D02*
X0206653Y0244554D01*
X0206653Y0244162D02*
X0206602Y0244162D01*
X0207387Y0243377D02*
X0213656Y0243377D01*
X0213264Y0242985D02*
X0207708Y0242985D01*
X0207871Y0242593D02*
X0212872Y0242593D01*
X0212480Y0242201D02*
X0208033Y0242201D01*
X0208196Y0241809D02*
X0212087Y0241809D01*
X0211695Y0241416D02*
X0208233Y0241416D01*
X0212088Y0243770D02*
X0212654Y0243770D01*
X0212559Y0244162D02*
X0212184Y0244162D01*
X0212184Y0244554D02*
X0212559Y0244554D01*
X0212559Y0244946D02*
X0212184Y0244946D01*
X0212184Y0245338D02*
X0212559Y0245338D01*
X0212559Y0245731D02*
X0212184Y0245731D01*
X0212184Y0246123D02*
X0212559Y0246123D01*
X0212559Y0246515D02*
X0212184Y0246515D01*
X0212184Y0246907D02*
X0212559Y0246907D01*
X0212559Y0247299D02*
X0212184Y0247299D01*
X0212184Y0247692D02*
X0212559Y0247692D01*
X0212559Y0248084D02*
X0212184Y0248084D01*
X0212184Y0248476D02*
X0212559Y0248476D01*
X0212559Y0248868D02*
X0212184Y0248868D01*
X0212184Y0249261D02*
X0212559Y0249261D01*
X0212559Y0249653D02*
X0212184Y0249653D01*
X0212184Y0250045D02*
X0212559Y0250045D01*
X0212559Y0250437D02*
X0212184Y0250437D01*
X0212184Y0250829D02*
X0212559Y0250829D01*
X0212559Y0251222D02*
X0212184Y0251222D01*
X0212184Y0251614D02*
X0212559Y0251614D01*
X0212559Y0252006D02*
X0212184Y0252006D01*
X0212184Y0252398D02*
X0212559Y0252398D01*
X0212950Y0252790D02*
X0211793Y0252790D01*
X0210518Y0253183D02*
X0230644Y0253183D01*
X0230644Y0253575D02*
X0210593Y0253575D01*
X0210985Y0253967D02*
X0230644Y0253967D01*
X0230644Y0254359D02*
X0211377Y0254359D01*
X0211769Y0254752D02*
X0230644Y0254752D01*
X0230644Y0255144D02*
X0212161Y0255144D01*
X0212554Y0255536D02*
X0230644Y0255536D01*
X0230644Y0255928D02*
X0212946Y0255928D01*
X0213338Y0256320D02*
X0230644Y0256320D01*
X0230644Y0256713D02*
X0213730Y0256713D01*
X0214122Y0257105D02*
X0230644Y0257105D01*
X0230644Y0257497D02*
X0214515Y0257497D01*
X0214907Y0257889D02*
X0230644Y0257889D01*
X0230644Y0258281D02*
X0215299Y0258281D01*
X0215691Y0258674D02*
X0230644Y0258674D01*
X0230644Y0259066D02*
X0216084Y0259066D01*
X0216476Y0259458D02*
X0230644Y0259458D01*
X0230644Y0259850D02*
X0216868Y0259850D01*
X0217260Y0260242D02*
X0230644Y0260242D01*
X0230644Y0260635D02*
X0217652Y0260635D01*
X0218045Y0261027D02*
X0230644Y0261027D01*
X0230644Y0261419D02*
X0218437Y0261419D01*
X0218829Y0261811D02*
X0230644Y0261811D01*
X0230644Y0262204D02*
X0219221Y0262204D01*
X0219613Y0262596D02*
X0230644Y0262596D01*
X0230644Y0262988D02*
X0220006Y0262988D01*
X0220398Y0263380D02*
X0230644Y0263380D01*
X0230644Y0263772D02*
X0220790Y0263772D01*
X0221182Y0264165D02*
X0230644Y0264165D01*
X0230644Y0264557D02*
X0221574Y0264557D01*
X0221967Y0264949D02*
X0230644Y0264949D01*
X0230644Y0265341D02*
X0222359Y0265341D01*
X0222751Y0265733D02*
X0230644Y0265733D01*
X0230644Y0266126D02*
X0223143Y0266126D01*
X0223536Y0266518D02*
X0230644Y0266518D01*
X0230644Y0266910D02*
X0223928Y0266910D01*
X0224320Y0267302D02*
X0230644Y0267302D01*
X0230644Y0267695D02*
X0224712Y0267695D01*
X0225104Y0268087D02*
X0230644Y0268087D01*
X0230644Y0268479D02*
X0225497Y0268479D01*
X0225889Y0268871D02*
X0230644Y0268871D01*
X0230644Y0269263D02*
X0226281Y0269263D01*
X0226673Y0269656D02*
X0230644Y0269656D01*
X0230644Y0270048D02*
X0227065Y0270048D01*
X0227458Y0270440D02*
X0230644Y0270440D01*
X0230598Y0270832D02*
X0227850Y0270832D01*
X0228242Y0271224D02*
X0230436Y0271224D01*
X0230273Y0271617D02*
X0228634Y0271617D01*
X0229022Y0272009D02*
X0230266Y0272009D01*
X0230266Y0272401D02*
X0229022Y0272401D01*
X0229022Y0272793D02*
X0230320Y0272793D01*
X0230483Y0273185D02*
X0229022Y0273185D01*
X0229022Y0273578D02*
X0230645Y0273578D01*
X0231020Y0273970D02*
X0229022Y0273970D01*
X0229022Y0274362D02*
X0231452Y0274362D01*
X0230907Y0281422D02*
X0230252Y0281422D01*
X0234780Y0281422D02*
X0239035Y0281422D01*
X0239010Y0281814D02*
X0235172Y0281814D01*
X0235215Y0282206D02*
X0238984Y0282206D01*
X0238925Y0282599D02*
X0235215Y0282599D01*
X0235215Y0282991D02*
X0238820Y0282991D01*
X0238715Y0283383D02*
X0235215Y0283383D01*
X0235215Y0283775D02*
X0238610Y0283775D01*
X0238505Y0284167D02*
X0235215Y0284167D01*
X0235215Y0284560D02*
X0238400Y0284560D01*
X0238295Y0284952D02*
X0235215Y0284952D01*
X0235215Y0285344D02*
X0238189Y0285344D01*
X0238084Y0285736D02*
X0235146Y0285736D01*
X0234754Y0286128D02*
X0237979Y0286128D01*
X0237874Y0286521D02*
X0230621Y0286521D01*
X0230688Y0286128D02*
X0230933Y0286128D01*
X0230229Y0286913D02*
X0237769Y0286913D01*
X0237600Y0287305D02*
X0224782Y0287305D01*
X0224782Y0286913D02*
X0225222Y0286913D01*
X0224829Y0286521D02*
X0224782Y0286521D01*
X0224782Y0287697D02*
X0237373Y0287697D01*
X0237147Y0288090D02*
X0224782Y0288090D01*
X0224782Y0288482D02*
X0236920Y0288482D01*
X0236694Y0288874D02*
X0224782Y0288874D01*
X0224782Y0289266D02*
X0236467Y0289266D01*
X0236241Y0289658D02*
X0224728Y0289658D01*
X0224336Y0290051D02*
X0236015Y0290051D01*
X0235788Y0290443D02*
X0218089Y0290443D01*
X0218089Y0290322D02*
X0217730Y0289963D01*
X0218089Y0289604D01*
X0218089Y0284613D01*
X0217622Y0284147D01*
X0213025Y0284147D01*
X0212559Y0284613D01*
X0212559Y0289604D01*
X0213025Y0290071D01*
X0213597Y0290071D01*
X0213346Y0290322D01*
X0213346Y0294132D01*
X0213813Y0294598D01*
X0217622Y0294598D01*
X0218089Y0294132D01*
X0218089Y0290322D01*
X0217818Y0290051D02*
X0219698Y0290051D01*
X0219306Y0289658D02*
X0218035Y0289658D01*
X0218089Y0289266D02*
X0219251Y0289266D01*
X0219251Y0288874D02*
X0218089Y0288874D01*
X0218089Y0288482D02*
X0219251Y0288482D01*
X0219251Y0288090D02*
X0218089Y0288090D01*
X0218089Y0287697D02*
X0219251Y0287697D01*
X0219251Y0287305D02*
X0218089Y0287305D01*
X0218089Y0286913D02*
X0219251Y0286913D01*
X0219251Y0286521D02*
X0218089Y0286521D01*
X0218089Y0286128D02*
X0219251Y0286128D01*
X0219251Y0285736D02*
X0218089Y0285736D01*
X0218089Y0285344D02*
X0219251Y0285344D01*
X0219251Y0284952D02*
X0218089Y0284952D01*
X0218036Y0284560D02*
X0219305Y0284560D01*
X0219697Y0284167D02*
X0217643Y0284167D01*
X0219734Y0282206D02*
X0214152Y0282206D01*
X0214152Y0281814D02*
X0219636Y0281814D01*
X0219636Y0281422D02*
X0214152Y0281422D01*
X0214152Y0281030D02*
X0219636Y0281030D01*
X0219636Y0280638D02*
X0214152Y0280638D01*
X0214152Y0280245D02*
X0219689Y0280245D01*
X0220081Y0279853D02*
X0214152Y0279853D01*
X0214152Y0279461D02*
X0220473Y0279461D01*
X0220865Y0279069D02*
X0214152Y0279069D01*
X0214071Y0282599D02*
X0220126Y0282599D01*
X0220519Y0282991D02*
X0158837Y0282991D01*
X0159222Y0282991D02*
X0172607Y0282991D01*
X0172607Y0283383D02*
X0159222Y0283383D01*
X0158484Y0283383D02*
X0220523Y0283383D01*
X0220523Y0283775D02*
X0153439Y0283775D01*
X0153047Y0284167D02*
X0213004Y0284167D01*
X0212612Y0284560D02*
X0144861Y0284560D01*
X0144861Y0284847D02*
X0155629Y0284847D01*
X0155660Y0284816D01*
X0173019Y0284816D01*
X0173601Y0285398D01*
X0173601Y0296969D01*
X0173019Y0297551D01*
X0164940Y0297551D01*
X0164940Y0297757D01*
X0164358Y0298339D01*
X0145818Y0298339D01*
X0145236Y0297757D01*
X0145236Y0287441D01*
X0144030Y0287441D01*
X0142956Y0287441D01*
X0142830Y0287315D01*
X0139403Y0287315D01*
X0138936Y0286848D01*
X0138936Y0282251D01*
X0139403Y0281784D01*
X0144394Y0281784D01*
X0144861Y0282251D01*
X0144861Y0284847D01*
X0144861Y0284167D02*
X0151223Y0284167D01*
X0150831Y0283775D02*
X0144861Y0283775D01*
X0144861Y0283383D02*
X0150438Y0283383D01*
X0150046Y0282991D02*
X0144861Y0282991D01*
X0144861Y0282599D02*
X0149951Y0282599D01*
X0149951Y0282206D02*
X0144816Y0282206D01*
X0144424Y0281814D02*
X0149951Y0281814D01*
X0149951Y0281422D02*
X0115628Y0281422D01*
X0115654Y0281814D02*
X0139373Y0281814D01*
X0138981Y0282206D02*
X0115680Y0282206D01*
X0115738Y0282599D02*
X0138936Y0282599D01*
X0138936Y0282991D02*
X0115843Y0282991D01*
X0115949Y0283383D02*
X0138936Y0283383D01*
X0138936Y0283775D02*
X0116054Y0283775D01*
X0116159Y0284167D02*
X0138936Y0284167D01*
X0138936Y0284560D02*
X0116264Y0284560D01*
X0116369Y0284952D02*
X0138936Y0284952D01*
X0138936Y0285344D02*
X0116474Y0285344D01*
X0116579Y0285736D02*
X0138936Y0285736D01*
X0138936Y0286128D02*
X0116684Y0286128D01*
X0116789Y0286521D02*
X0138936Y0286521D01*
X0139001Y0286913D02*
X0116894Y0286913D01*
X0117064Y0287305D02*
X0139393Y0287305D01*
X0139026Y0280245D02*
X0115551Y0280245D01*
X0115536Y0279853D02*
X0138936Y0279853D01*
X0138936Y0279461D02*
X0115536Y0279461D01*
X0115536Y0279069D02*
X0138936Y0279069D01*
X0138936Y0278676D02*
X0115536Y0278676D01*
X0115536Y0278284D02*
X0138936Y0278284D01*
X0138936Y0277892D02*
X0115536Y0277892D01*
X0115536Y0277500D02*
X0138936Y0277500D01*
X0138936Y0277108D02*
X0115536Y0277108D01*
X0115536Y0276715D02*
X0138936Y0276715D01*
X0138936Y0276323D02*
X0115536Y0276323D01*
X0115536Y0275931D02*
X0138936Y0275931D01*
X0144861Y0279461D02*
X0152496Y0279461D01*
X0151183Y0279853D02*
X0144861Y0279853D01*
X0144771Y0280245D02*
X0150791Y0280245D01*
X0150399Y0280638D02*
X0115577Y0280638D01*
X0115602Y0281030D02*
X0150007Y0281030D01*
X0153810Y0277108D02*
X0154473Y0277108D01*
X0154203Y0277500D02*
X0154865Y0277500D01*
X0154595Y0277892D02*
X0208622Y0277892D01*
X0208622Y0278284D02*
X0154987Y0278284D01*
X0155379Y0278676D02*
X0208622Y0278676D01*
X0208622Y0279069D02*
X0158489Y0279069D01*
X0158837Y0279461D02*
X0208622Y0279461D01*
X0208622Y0279853D02*
X0158837Y0279853D01*
X0159222Y0279853D02*
X0172607Y0279853D01*
X0172607Y0279461D02*
X0159222Y0279461D01*
X0159222Y0279069D02*
X0172607Y0279069D01*
X0172607Y0278676D02*
X0156072Y0278676D01*
X0156072Y0278284D02*
X0172607Y0278284D01*
X0172607Y0277892D02*
X0156072Y0277892D01*
X0158837Y0280245D02*
X0208622Y0280245D01*
X0208622Y0280638D02*
X0158837Y0280638D01*
X0159222Y0280638D02*
X0172607Y0280638D01*
X0172607Y0281030D02*
X0159222Y0281030D01*
X0158837Y0281030D02*
X0208622Y0281030D01*
X0208622Y0281422D02*
X0158837Y0281422D01*
X0159222Y0281422D02*
X0172607Y0281422D01*
X0172607Y0281814D02*
X0159222Y0281814D01*
X0158837Y0281814D02*
X0208622Y0281814D01*
X0208622Y0282206D02*
X0158837Y0282206D01*
X0159222Y0282206D02*
X0172607Y0282206D01*
X0172607Y0282599D02*
X0159222Y0282599D01*
X0158837Y0282599D02*
X0208703Y0282599D01*
X0208648Y0277500D02*
X0173028Y0277500D01*
X0172607Y0280245D02*
X0159222Y0280245D01*
X0156072Y0283775D02*
X0172607Y0283775D01*
X0172607Y0284167D02*
X0156072Y0284167D01*
X0156072Y0284560D02*
X0172607Y0284560D01*
X0173155Y0284952D02*
X0212559Y0284952D01*
X0212559Y0285344D02*
X0173547Y0285344D01*
X0173601Y0285736D02*
X0212559Y0285736D01*
X0212559Y0286128D02*
X0173601Y0286128D01*
X0173601Y0286521D02*
X0212559Y0286521D01*
X0212559Y0286913D02*
X0173601Y0286913D01*
X0173601Y0287305D02*
X0212559Y0287305D01*
X0212559Y0287697D02*
X0173601Y0287697D01*
X0173601Y0288090D02*
X0212559Y0288090D01*
X0212559Y0288482D02*
X0173601Y0288482D01*
X0173601Y0288874D02*
X0212559Y0288874D01*
X0212559Y0289266D02*
X0173601Y0289266D01*
X0173601Y0289658D02*
X0212613Y0289658D01*
X0213005Y0290051D02*
X0173601Y0290051D01*
X0173601Y0290443D02*
X0213346Y0290443D01*
X0213346Y0290835D02*
X0173601Y0290835D01*
X0173601Y0291227D02*
X0213346Y0291227D01*
X0213346Y0291619D02*
X0173601Y0291619D01*
X0173601Y0292012D02*
X0213346Y0292012D01*
X0213346Y0292404D02*
X0173601Y0292404D01*
X0173601Y0292796D02*
X0213346Y0292796D01*
X0213346Y0293188D02*
X0173601Y0293188D01*
X0173601Y0293580D02*
X0213346Y0293580D01*
X0213346Y0293973D02*
X0173601Y0293973D01*
X0173601Y0294365D02*
X0213579Y0294365D01*
X0217856Y0294365D02*
X0232219Y0294365D01*
X0232611Y0293973D02*
X0218089Y0293973D01*
X0218089Y0293580D02*
X0233003Y0293580D01*
X0233395Y0293188D02*
X0218089Y0293188D01*
X0218089Y0292796D02*
X0233787Y0292796D01*
X0234180Y0292404D02*
X0218089Y0292404D01*
X0218089Y0292012D02*
X0234572Y0292012D01*
X0234964Y0291619D02*
X0218089Y0291619D01*
X0218089Y0291227D02*
X0235335Y0291227D01*
X0235562Y0290835D02*
X0218089Y0290835D01*
X0223117Y0283775D02*
X0224763Y0283775D01*
X0224763Y0283383D02*
X0223117Y0283383D01*
X0223121Y0282991D02*
X0224763Y0282991D01*
X0224763Y0282599D02*
X0223514Y0282599D01*
X0223906Y0282206D02*
X0224763Y0282206D01*
X0224806Y0281814D02*
X0224004Y0281814D01*
X0224004Y0281422D02*
X0225199Y0281422D01*
X0224004Y0281030D02*
X0239061Y0281030D01*
X0239087Y0280638D02*
X0224004Y0280638D01*
X0224336Y0284167D02*
X0224763Y0284167D01*
X0224763Y0284560D02*
X0224728Y0284560D01*
X0231098Y0295149D02*
X0173601Y0295149D01*
X0173601Y0294757D02*
X0231777Y0294757D01*
X0230418Y0295542D02*
X0173601Y0295542D01*
X0173601Y0295934D02*
X0229739Y0295934D01*
X0229060Y0296326D02*
X0173601Y0296326D01*
X0173601Y0296718D02*
X0228380Y0296718D01*
X0227686Y0297110D02*
X0173460Y0297110D01*
X0173068Y0297503D02*
X0226222Y0297503D01*
X0224759Y0297895D02*
X0164801Y0297895D01*
X0164409Y0298287D02*
X0223295Y0298287D01*
X0209041Y0277108D02*
X0198581Y0277108D01*
X0198798Y0276715D02*
X0202032Y0276715D01*
X0201929Y0276323D02*
X0198798Y0276323D01*
X0198798Y0275931D02*
X0201929Y0275931D01*
X0201929Y0275539D02*
X0198798Y0275539D01*
X0198798Y0272793D02*
X0201929Y0272793D01*
X0201929Y0272401D02*
X0198798Y0272401D01*
X0198798Y0272009D02*
X0201929Y0272009D01*
X0201933Y0271617D02*
X0198798Y0271617D01*
X0198798Y0271224D02*
X0202325Y0271224D01*
X0207063Y0271224D02*
X0209018Y0271224D01*
X0208626Y0271617D02*
X0207455Y0271617D01*
X0207459Y0272009D02*
X0208622Y0272009D01*
X0208622Y0272401D02*
X0207459Y0272401D01*
X0207459Y0272793D02*
X0208622Y0272793D01*
X0208622Y0273185D02*
X0207459Y0273185D01*
X0207459Y0273578D02*
X0208622Y0273578D01*
X0208622Y0273970D02*
X0207459Y0273970D01*
X0207459Y0274362D02*
X0208622Y0274362D01*
X0208622Y0274754D02*
X0207459Y0274754D01*
X0207459Y0275147D02*
X0208622Y0275147D01*
X0208622Y0275539D02*
X0207459Y0275539D01*
X0207459Y0275931D02*
X0208622Y0275931D01*
X0208622Y0276323D02*
X0207459Y0276323D01*
X0207356Y0276715D02*
X0208725Y0276715D01*
X0209499Y0270832D02*
X0198798Y0270832D01*
X0198798Y0270440D02*
X0209499Y0270440D01*
X0209499Y0270048D02*
X0198798Y0270048D01*
X0198798Y0269656D02*
X0209499Y0269656D01*
X0209499Y0269263D02*
X0198798Y0269263D01*
X0198798Y0268871D02*
X0209499Y0268871D01*
X0209499Y0268479D02*
X0198798Y0268479D01*
X0198798Y0268087D02*
X0209499Y0268087D01*
X0209499Y0267695D02*
X0198798Y0267695D01*
X0198798Y0267302D02*
X0209499Y0267302D01*
X0209499Y0266910D02*
X0198798Y0266910D01*
X0198697Y0266518D02*
X0209499Y0266518D01*
X0209499Y0266126D02*
X0198305Y0266126D01*
X0188782Y0259850D02*
X0208476Y0259850D01*
X0208868Y0260242D02*
X0188389Y0260242D01*
X0188171Y0252790D02*
X0195233Y0252790D01*
X0195309Y0252866D02*
X0194842Y0252399D01*
X0194842Y0243865D01*
X0195309Y0243398D01*
X0199906Y0243398D01*
X0200373Y0243865D01*
X0200373Y0252399D01*
X0199906Y0252866D01*
X0195309Y0252866D01*
X0194842Y0252398D02*
X0188562Y0252398D01*
X0188562Y0252006D02*
X0194842Y0252006D01*
X0194842Y0251614D02*
X0188562Y0251614D01*
X0188562Y0251222D02*
X0194842Y0251222D01*
X0194842Y0250829D02*
X0188562Y0250829D01*
X0188562Y0250437D02*
X0194842Y0250437D01*
X0194842Y0250045D02*
X0188562Y0250045D01*
X0188562Y0249653D02*
X0194842Y0249653D01*
X0194842Y0249261D02*
X0188562Y0249261D01*
X0188562Y0248868D02*
X0194842Y0248868D01*
X0194842Y0248476D02*
X0188562Y0248476D01*
X0188562Y0248084D02*
X0194842Y0248084D01*
X0194842Y0247692D02*
X0188562Y0247692D01*
X0188562Y0247299D02*
X0194842Y0247299D01*
X0194842Y0246907D02*
X0188562Y0246907D01*
X0188562Y0246515D02*
X0194842Y0246515D01*
X0194842Y0246123D02*
X0188562Y0246123D01*
X0188562Y0245731D02*
X0194842Y0245731D01*
X0194842Y0245338D02*
X0188562Y0245338D01*
X0188562Y0244946D02*
X0194842Y0244946D01*
X0194842Y0244554D02*
X0188562Y0244554D01*
X0188562Y0244162D02*
X0194842Y0244162D01*
X0194938Y0243770D02*
X0188466Y0243770D01*
X0187093Y0243377D02*
X0201529Y0243377D01*
X0201207Y0242985D02*
X0187093Y0242985D01*
X0187093Y0242593D02*
X0201045Y0242593D01*
X0200882Y0242201D02*
X0187093Y0242201D01*
X0187093Y0241809D02*
X0200720Y0241809D01*
X0200682Y0241416D02*
X0187093Y0241416D01*
X0187093Y0241024D02*
X0200682Y0241024D01*
X0200682Y0240632D02*
X0187093Y0240632D01*
X0178594Y0240632D02*
X0167626Y0240632D01*
X0167234Y0241024D02*
X0178594Y0241024D01*
X0178594Y0241416D02*
X0166842Y0241416D01*
X0166449Y0241809D02*
X0172928Y0241809D01*
X0172192Y0242201D02*
X0166057Y0242201D01*
X0165665Y0242593D02*
X0171800Y0242593D01*
X0171408Y0242985D02*
X0165273Y0242985D01*
X0164881Y0243377D02*
X0171176Y0243377D01*
X0171014Y0243770D02*
X0164488Y0243770D01*
X0164096Y0244162D02*
X0170852Y0244162D01*
X0170722Y0244554D02*
X0163704Y0244554D01*
X0163312Y0244946D02*
X0170722Y0244946D01*
X0170722Y0245338D02*
X0162920Y0245338D01*
X0162527Y0245731D02*
X0170722Y0245731D01*
X0170788Y0246123D02*
X0162135Y0246123D01*
X0161743Y0246515D02*
X0170951Y0246515D01*
X0171113Y0246907D02*
X0161351Y0246907D01*
X0160959Y0247299D02*
X0171275Y0247299D01*
X0171647Y0247692D02*
X0160566Y0247692D01*
X0160174Y0248084D02*
X0172039Y0248084D01*
X0172558Y0248476D02*
X0159782Y0248476D01*
X0159390Y0248868D02*
X0173505Y0248868D01*
X0175411Y0248868D02*
X0177125Y0248868D01*
X0177125Y0248476D02*
X0176357Y0248476D01*
X0176877Y0248084D02*
X0177125Y0248084D01*
X0177125Y0249261D02*
X0158997Y0249261D01*
X0158605Y0249653D02*
X0177125Y0249653D01*
X0177125Y0250045D02*
X0158213Y0250045D01*
X0157821Y0250437D02*
X0177125Y0250437D01*
X0177125Y0250829D02*
X0157429Y0250829D01*
X0157036Y0251222D02*
X0177125Y0251222D01*
X0177125Y0251614D02*
X0156644Y0251614D01*
X0156252Y0252006D02*
X0177125Y0252006D01*
X0177125Y0252398D02*
X0155860Y0252398D01*
X0155468Y0252790D02*
X0177516Y0252790D01*
X0177739Y0243377D02*
X0178594Y0243377D01*
X0178594Y0242985D02*
X0177508Y0242985D01*
X0177116Y0242593D02*
X0178594Y0242593D01*
X0178594Y0242201D02*
X0176723Y0242201D01*
X0175987Y0241809D02*
X0178594Y0241809D01*
X0178555Y0240240D02*
X0168018Y0240240D01*
X0168411Y0239847D02*
X0178163Y0239847D01*
X0177770Y0239455D02*
X0168803Y0239455D01*
X0169195Y0239063D02*
X0177510Y0239063D01*
X0177510Y0238671D02*
X0169587Y0238671D01*
X0169979Y0238279D02*
X0177510Y0238279D01*
X0177510Y0237886D02*
X0170372Y0237886D01*
X0170764Y0237494D02*
X0177510Y0237494D01*
X0177793Y0237102D02*
X0171156Y0237102D01*
X0171548Y0236710D02*
X0178185Y0236710D01*
X0178577Y0236318D02*
X0171940Y0236318D01*
X0172333Y0235925D02*
X0195579Y0235925D01*
X0195971Y0235533D02*
X0172725Y0235533D01*
X0173117Y0235141D02*
X0196363Y0235141D01*
X0196755Y0234749D02*
X0173509Y0234749D01*
X0173902Y0234356D02*
X0197148Y0234356D01*
X0197540Y0233964D02*
X0174294Y0233964D01*
X0174686Y0233572D02*
X0197932Y0233572D01*
X0198324Y0233180D02*
X0175078Y0233180D01*
X0175470Y0232788D02*
X0198716Y0232788D01*
X0199639Y0235533D02*
X0205812Y0235533D01*
X0206204Y0235925D02*
X0199247Y0235925D01*
X0198855Y0236318D02*
X0206596Y0236318D01*
X0206989Y0236710D02*
X0198462Y0236710D01*
X0200277Y0243770D02*
X0200843Y0243770D01*
X0200748Y0244162D02*
X0200373Y0244162D01*
X0200373Y0244554D02*
X0200748Y0244554D01*
X0200748Y0244946D02*
X0200373Y0244946D01*
X0200373Y0245338D02*
X0200748Y0245338D01*
X0200748Y0245731D02*
X0200373Y0245731D01*
X0200373Y0246123D02*
X0200748Y0246123D01*
X0200748Y0246515D02*
X0200373Y0246515D01*
X0200373Y0246907D02*
X0200748Y0246907D01*
X0200748Y0247299D02*
X0200373Y0247299D01*
X0200373Y0247692D02*
X0200748Y0247692D01*
X0200748Y0248084D02*
X0200373Y0248084D01*
X0200373Y0248476D02*
X0200748Y0248476D01*
X0200748Y0248868D02*
X0200373Y0248868D01*
X0200373Y0249261D02*
X0200748Y0249261D01*
X0200748Y0249653D02*
X0200373Y0249653D01*
X0200373Y0250045D02*
X0200748Y0250045D01*
X0200748Y0250437D02*
X0200373Y0250437D01*
X0200373Y0250829D02*
X0200748Y0250829D01*
X0200748Y0251222D02*
X0200373Y0251222D01*
X0200373Y0251614D02*
X0200748Y0251614D01*
X0200748Y0252006D02*
X0200373Y0252006D01*
X0200373Y0252398D02*
X0200748Y0252398D01*
X0201139Y0252790D02*
X0199982Y0252790D01*
X0216634Y0237102D02*
X0234560Y0237102D01*
X0234167Y0237494D02*
X0217027Y0237494D01*
X0217994Y0243770D02*
X0224465Y0243770D01*
X0224370Y0244162D02*
X0218089Y0244162D01*
X0218089Y0244554D02*
X0224370Y0244554D01*
X0224370Y0244946D02*
X0218089Y0244946D01*
X0218089Y0245338D02*
X0224370Y0245338D01*
X0224370Y0245731D02*
X0218089Y0245731D01*
X0218089Y0246123D02*
X0224370Y0246123D01*
X0224370Y0246515D02*
X0218089Y0246515D01*
X0218089Y0246907D02*
X0224370Y0246907D01*
X0224370Y0247299D02*
X0218089Y0247299D01*
X0218089Y0247692D02*
X0224370Y0247692D01*
X0224370Y0248084D02*
X0218089Y0248084D01*
X0218089Y0248476D02*
X0224370Y0248476D01*
X0224370Y0248868D02*
X0218089Y0248868D01*
X0218089Y0249261D02*
X0224370Y0249261D01*
X0224370Y0249653D02*
X0218089Y0249653D01*
X0218089Y0250045D02*
X0224370Y0250045D01*
X0224370Y0250437D02*
X0218089Y0250437D01*
X0218089Y0250829D02*
X0224370Y0250829D01*
X0224370Y0251222D02*
X0218089Y0251222D01*
X0218089Y0251614D02*
X0224370Y0251614D01*
X0224370Y0252006D02*
X0218089Y0252006D01*
X0218089Y0252398D02*
X0224370Y0252398D01*
X0224761Y0252790D02*
X0217698Y0252790D01*
X0229509Y0252790D02*
X0230644Y0252790D01*
X0230275Y0252398D02*
X0229900Y0252398D01*
X0229900Y0252006D02*
X0230275Y0252006D01*
X0230275Y0251614D02*
X0229900Y0251614D01*
X0229900Y0251222D02*
X0230275Y0251222D01*
X0230275Y0250829D02*
X0229900Y0250829D01*
X0229900Y0245731D02*
X0230275Y0245731D01*
X0230275Y0245338D02*
X0229900Y0245338D01*
X0229900Y0244946D02*
X0230275Y0244946D01*
X0230275Y0244554D02*
X0229900Y0244554D01*
X0229900Y0244162D02*
X0230275Y0244162D01*
X0230371Y0243770D02*
X0229805Y0243770D01*
X0235484Y0230434D02*
X0177310Y0230434D01*
X0177373Y0230042D02*
X0235484Y0230042D01*
X0235484Y0229650D02*
X0177373Y0229650D01*
X0177373Y0229258D02*
X0235484Y0229258D01*
X0235484Y0228866D02*
X0177373Y0228866D01*
X0177373Y0228473D02*
X0235484Y0228473D01*
X0235484Y0228081D02*
X0177373Y0228081D01*
X0177373Y0227689D02*
X0235484Y0227689D01*
X0235484Y0227297D02*
X0177373Y0227297D01*
X0177373Y0226904D02*
X0235484Y0226904D01*
X0235484Y0226512D02*
X0177373Y0226512D01*
X0177373Y0226120D02*
X0235484Y0226120D01*
X0235484Y0225728D02*
X0177373Y0225728D01*
X0177373Y0225336D02*
X0235484Y0225336D01*
X0235484Y0224943D02*
X0177373Y0224943D01*
X0177373Y0224551D02*
X0235484Y0224551D01*
X0235484Y0224159D02*
X0177373Y0224159D01*
X0177373Y0223767D02*
X0235484Y0223767D01*
X0235484Y0223375D02*
X0177373Y0223375D01*
X0177373Y0222982D02*
X0235484Y0222982D01*
X0235484Y0222590D02*
X0177373Y0222590D01*
X0177373Y0222198D02*
X0235484Y0222198D01*
X0235484Y0221806D02*
X0177373Y0221806D01*
X0177373Y0221413D02*
X0235484Y0221413D01*
X0235484Y0221021D02*
X0177373Y0221021D01*
X0177373Y0220629D02*
X0235484Y0220629D01*
X0235484Y0220237D02*
X0177373Y0220237D01*
X0177373Y0219845D02*
X0235484Y0219845D01*
X0235484Y0219452D02*
X0177373Y0219452D01*
X0177373Y0219060D02*
X0235484Y0219060D01*
X0235484Y0218668D02*
X0177373Y0218668D01*
X0177373Y0218276D02*
X0235484Y0218276D01*
X0235484Y0217884D02*
X0177373Y0217884D01*
X0177373Y0217491D02*
X0235484Y0217491D01*
X0235484Y0217099D02*
X0177373Y0217099D01*
X0177373Y0216707D02*
X0235484Y0216707D01*
X0235484Y0216315D02*
X0177373Y0216315D01*
X0177373Y0215923D02*
X0235484Y0215923D01*
X0235484Y0215530D02*
X0177373Y0215530D01*
X0177373Y0215138D02*
X0235484Y0215138D01*
X0235484Y0214746D02*
X0177373Y0214746D01*
X0177373Y0214354D02*
X0235484Y0214354D01*
X0235484Y0213961D02*
X0177373Y0213961D01*
X0177373Y0213569D02*
X0235484Y0213569D01*
X0235484Y0213177D02*
X0177373Y0213177D01*
X0177373Y0212785D02*
X0235484Y0212785D01*
X0235484Y0212393D02*
X0177373Y0212393D01*
X0177373Y0212000D02*
X0235484Y0212000D01*
X0223528Y0189874D02*
X0218931Y0189874D01*
X0218464Y0189407D01*
X0218464Y0180873D01*
X0218931Y0180406D01*
X0223528Y0180406D01*
X0223995Y0180873D01*
X0223995Y0189407D01*
X0223528Y0189874D01*
X0223758Y0189644D02*
X0230512Y0189644D01*
X0230275Y0189252D02*
X0223995Y0189252D01*
X0223995Y0188860D02*
X0230275Y0188860D01*
X0230275Y0188468D02*
X0223995Y0188468D01*
X0223995Y0188075D02*
X0230275Y0188075D01*
X0230275Y0187683D02*
X0223995Y0187683D01*
X0223995Y0187291D02*
X0230275Y0187291D01*
X0230275Y0186899D02*
X0223995Y0186899D01*
X0223995Y0186507D02*
X0230275Y0186507D01*
X0230275Y0186114D02*
X0223995Y0186114D01*
X0223995Y0185722D02*
X0230275Y0185722D01*
X0230275Y0185330D02*
X0223995Y0185330D01*
X0223995Y0184938D02*
X0230275Y0184938D01*
X0230275Y0184546D02*
X0223995Y0184546D01*
X0223995Y0184153D02*
X0230275Y0184153D01*
X0230275Y0183761D02*
X0223995Y0183761D01*
X0223995Y0183369D02*
X0230275Y0183369D01*
X0230275Y0182977D02*
X0223995Y0182977D01*
X0223995Y0182584D02*
X0230275Y0182584D01*
X0230275Y0182192D02*
X0223995Y0182192D01*
X0223995Y0181800D02*
X0230275Y0181800D01*
X0230275Y0181408D02*
X0223995Y0181408D01*
X0223995Y0181016D02*
X0230275Y0181016D01*
X0230525Y0180623D02*
X0223745Y0180623D01*
X0218714Y0180623D02*
X0217840Y0180623D01*
X0217622Y0180406D02*
X0218089Y0180873D01*
X0218089Y0189407D01*
X0217622Y0189874D01*
X0213025Y0189874D01*
X0212559Y0189407D01*
X0212559Y0180873D01*
X0213025Y0180406D01*
X0217622Y0180406D01*
X0218089Y0181016D02*
X0218464Y0181016D01*
X0218464Y0181408D02*
X0218089Y0181408D01*
X0218089Y0181800D02*
X0218464Y0181800D01*
X0218464Y0182192D02*
X0218089Y0182192D01*
X0218089Y0182584D02*
X0218464Y0182584D01*
X0218464Y0182977D02*
X0218089Y0182977D01*
X0218089Y0183369D02*
X0218464Y0183369D01*
X0218464Y0183761D02*
X0218089Y0183761D01*
X0218089Y0184153D02*
X0218464Y0184153D01*
X0218464Y0184546D02*
X0218089Y0184546D01*
X0218089Y0184938D02*
X0218464Y0184938D01*
X0218464Y0185330D02*
X0218089Y0185330D01*
X0218089Y0185722D02*
X0218464Y0185722D01*
X0218464Y0186114D02*
X0218089Y0186114D01*
X0218089Y0186507D02*
X0218464Y0186507D01*
X0218464Y0186899D02*
X0218089Y0186899D01*
X0218089Y0187291D02*
X0218464Y0187291D01*
X0218464Y0187683D02*
X0218089Y0187683D01*
X0218089Y0188075D02*
X0218464Y0188075D01*
X0218464Y0188468D02*
X0218089Y0188468D01*
X0218089Y0188860D02*
X0218464Y0188860D01*
X0218464Y0189252D02*
X0218089Y0189252D01*
X0217852Y0189644D02*
X0218701Y0189644D01*
X0212796Y0189644D02*
X0211947Y0189644D01*
X0211717Y0189874D02*
X0207120Y0189874D01*
X0206653Y0189407D01*
X0206653Y0180873D01*
X0207120Y0180406D01*
X0211717Y0180406D01*
X0212184Y0180873D01*
X0212184Y0189407D01*
X0211717Y0189874D01*
X0212184Y0189252D02*
X0212559Y0189252D01*
X0212559Y0188860D02*
X0212184Y0188860D01*
X0212184Y0188468D02*
X0212559Y0188468D01*
X0212559Y0188075D02*
X0212184Y0188075D01*
X0212184Y0187683D02*
X0212559Y0187683D01*
X0212559Y0187291D02*
X0212184Y0187291D01*
X0212184Y0186899D02*
X0212559Y0186899D01*
X0212559Y0186507D02*
X0212184Y0186507D01*
X0212184Y0186114D02*
X0212559Y0186114D01*
X0212559Y0185722D02*
X0212184Y0185722D01*
X0212184Y0185330D02*
X0212559Y0185330D01*
X0212559Y0184938D02*
X0212184Y0184938D01*
X0212184Y0184546D02*
X0212559Y0184546D01*
X0212559Y0184153D02*
X0212184Y0184153D01*
X0212184Y0183761D02*
X0212559Y0183761D01*
X0212559Y0183369D02*
X0212184Y0183369D01*
X0212184Y0182977D02*
X0212559Y0182977D01*
X0212559Y0182584D02*
X0212184Y0182584D01*
X0212184Y0182192D02*
X0212559Y0182192D01*
X0212559Y0181800D02*
X0212184Y0181800D01*
X0212184Y0181408D02*
X0212559Y0181408D01*
X0212559Y0181016D02*
X0212184Y0181016D01*
X0211934Y0180623D02*
X0212808Y0180623D01*
X0208779Y0179839D02*
X0207342Y0179839D01*
X0207504Y0179447D02*
X0208387Y0179447D01*
X0207995Y0179055D02*
X0207667Y0179055D01*
X0207062Y0180231D02*
X0235484Y0180231D01*
X0239127Y0171603D02*
X0217597Y0171603D01*
X0217597Y0171210D02*
X0239127Y0171210D01*
X0239127Y0170818D02*
X0233135Y0170818D01*
X0233247Y0170426D02*
X0239127Y0170426D01*
X0239127Y0170034D02*
X0233247Y0170034D01*
X0233247Y0169641D02*
X0239127Y0169641D01*
X0239127Y0169249D02*
X0233247Y0169249D01*
X0233247Y0168857D02*
X0239127Y0168857D01*
X0239127Y0168465D02*
X0233247Y0168465D01*
X0233247Y0168073D02*
X0239127Y0168073D01*
X0239127Y0167680D02*
X0233247Y0167680D01*
X0233247Y0167288D02*
X0239127Y0167288D01*
X0239127Y0166896D02*
X0233246Y0166896D01*
X0232854Y0166504D02*
X0239127Y0166504D01*
X0239127Y0166112D02*
X0227144Y0166112D01*
X0227144Y0166504D02*
X0228896Y0166504D01*
X0228504Y0166896D02*
X0227144Y0166896D01*
X0226754Y0165719D02*
X0239127Y0165719D01*
X0228047Y0164935D02*
X0226617Y0164935D01*
X0226751Y0164543D02*
X0227913Y0164543D01*
X0227913Y0164151D02*
X0226751Y0164151D01*
X0226751Y0163758D02*
X0227913Y0163758D01*
X0227913Y0163366D02*
X0226751Y0163366D01*
X0226751Y0162974D02*
X0227913Y0162974D01*
X0227913Y0162582D02*
X0226751Y0162582D01*
X0226751Y0162189D02*
X0227913Y0162189D01*
X0227913Y0161797D02*
X0226751Y0161797D01*
X0226751Y0161405D02*
X0227913Y0161405D01*
X0227913Y0161013D02*
X0226751Y0161013D01*
X0226751Y0160621D02*
X0227913Y0160621D01*
X0227913Y0160228D02*
X0226751Y0160228D01*
X0226751Y0159836D02*
X0227913Y0159836D01*
X0228279Y0159444D02*
X0226384Y0159444D01*
X0226594Y0159052D02*
X0228069Y0159052D01*
X0227913Y0158660D02*
X0226751Y0158660D01*
X0226751Y0158267D02*
X0227913Y0158267D01*
X0227913Y0157875D02*
X0226751Y0157875D01*
X0226751Y0157483D02*
X0227913Y0157483D01*
X0227913Y0157091D02*
X0226751Y0157091D01*
X0226751Y0156698D02*
X0227913Y0156698D01*
X0227913Y0156306D02*
X0226751Y0156306D01*
X0226751Y0155914D02*
X0227913Y0155914D01*
X0227913Y0155522D02*
X0226751Y0155522D01*
X0226751Y0155130D02*
X0227913Y0155130D01*
X0227913Y0154737D02*
X0226751Y0154737D01*
X0226751Y0154345D02*
X0227913Y0154345D01*
X0227913Y0153953D02*
X0226751Y0153953D01*
X0226407Y0153561D02*
X0228257Y0153561D01*
X0221220Y0163758D02*
X0216818Y0163758D01*
X0216818Y0163366D02*
X0218684Y0163366D01*
X0218292Y0162974D02*
X0216818Y0162974D01*
X0216818Y0162582D02*
X0217900Y0162582D01*
X0217508Y0162189D02*
X0216818Y0162189D01*
X0217115Y0161797D02*
X0216453Y0161797D01*
X0216723Y0161405D02*
X0216061Y0161405D01*
X0216331Y0161013D02*
X0215668Y0161013D01*
X0215939Y0160621D02*
X0215276Y0160621D01*
X0215547Y0160228D02*
X0214884Y0160228D01*
X0215154Y0159836D02*
X0214492Y0159836D01*
X0214762Y0159444D02*
X0214099Y0159444D01*
X0212331Y0158267D02*
X0198558Y0158267D01*
X0198951Y0157875D02*
X0211938Y0157875D01*
X0211546Y0157483D02*
X0199343Y0157483D01*
X0199735Y0157091D02*
X0211368Y0157091D01*
X0211368Y0156698D02*
X0200127Y0156698D01*
X0200519Y0156306D02*
X0211368Y0156306D01*
X0211232Y0155914D02*
X0200912Y0155914D01*
X0201168Y0155522D02*
X0210840Y0155522D01*
X0210448Y0155130D02*
X0201168Y0155130D01*
X0201168Y0154737D02*
X0210056Y0154737D01*
X0209663Y0154345D02*
X0201168Y0154345D01*
X0201168Y0153953D02*
X0209271Y0153953D01*
X0208879Y0153561D02*
X0201168Y0153561D01*
X0198707Y0165965D02*
X0198707Y0169857D01*
X0198896Y0170046D01*
X0198896Y0175650D01*
X0203392Y0175650D01*
X0203392Y0172372D01*
X0203405Y0172360D01*
X0203405Y0170046D01*
X0203692Y0169759D01*
X0203692Y0165965D01*
X0198707Y0165965D01*
X0198707Y0166112D02*
X0203692Y0166112D01*
X0203692Y0166504D02*
X0198707Y0166504D01*
X0198985Y0166636D02*
X0198985Y0175650D01*
X0203316Y0175650D01*
X0203316Y0166636D01*
X0202922Y0166243D01*
X0199379Y0166243D01*
X0198985Y0166636D01*
X0199118Y0166504D02*
X0203184Y0166504D01*
X0203316Y0166896D02*
X0198985Y0166896D01*
X0198707Y0166896D02*
X0203692Y0166896D01*
X0203692Y0167288D02*
X0198707Y0167288D01*
X0198985Y0167288D02*
X0203316Y0167288D01*
X0203316Y0167680D02*
X0198985Y0167680D01*
X0198707Y0167680D02*
X0203692Y0167680D01*
X0203692Y0168073D02*
X0198707Y0168073D01*
X0198985Y0168073D02*
X0203316Y0168073D01*
X0203316Y0168465D02*
X0198985Y0168465D01*
X0198707Y0168465D02*
X0203692Y0168465D01*
X0203692Y0168857D02*
X0198707Y0168857D01*
X0198985Y0168857D02*
X0203316Y0168857D01*
X0203316Y0169249D02*
X0198985Y0169249D01*
X0198707Y0169249D02*
X0203692Y0169249D01*
X0203692Y0169641D02*
X0198707Y0169641D01*
X0198985Y0169641D02*
X0203316Y0169641D01*
X0203316Y0170034D02*
X0198985Y0170034D01*
X0198884Y0170034D02*
X0203418Y0170034D01*
X0203405Y0170426D02*
X0198896Y0170426D01*
X0198985Y0170426D02*
X0203316Y0170426D01*
X0203316Y0170818D02*
X0198985Y0170818D01*
X0198896Y0170818D02*
X0203405Y0170818D01*
X0203405Y0171210D02*
X0198896Y0171210D01*
X0198985Y0171210D02*
X0203316Y0171210D01*
X0203316Y0171603D02*
X0198985Y0171603D01*
X0198896Y0171603D02*
X0203405Y0171603D01*
X0203405Y0171995D02*
X0198896Y0171995D01*
X0198985Y0171995D02*
X0203316Y0171995D01*
X0203316Y0172387D02*
X0198985Y0172387D01*
X0198896Y0172387D02*
X0203392Y0172387D01*
X0203392Y0172779D02*
X0198896Y0172779D01*
X0198985Y0172779D02*
X0203316Y0172779D01*
X0203316Y0173171D02*
X0198985Y0173171D01*
X0198896Y0173171D02*
X0203392Y0173171D01*
X0203392Y0173564D02*
X0198896Y0173564D01*
X0198985Y0173564D02*
X0203316Y0173564D01*
X0203316Y0173956D02*
X0198985Y0173956D01*
X0198896Y0173956D02*
X0203392Y0173956D01*
X0203392Y0174348D02*
X0198896Y0174348D01*
X0198985Y0174348D02*
X0203316Y0174348D01*
X0203316Y0174740D02*
X0198985Y0174740D01*
X0198896Y0174740D02*
X0203392Y0174740D01*
X0203392Y0175132D02*
X0198896Y0175132D01*
X0198985Y0175132D02*
X0203316Y0175132D01*
X0203316Y0175525D02*
X0198985Y0175525D01*
X0198896Y0175525D02*
X0203392Y0175525D01*
X0206670Y0180623D02*
X0206903Y0180623D01*
X0206653Y0181016D02*
X0206278Y0181016D01*
X0206278Y0181408D02*
X0206653Y0181408D01*
X0206653Y0181800D02*
X0206278Y0181800D01*
X0206278Y0182192D02*
X0206653Y0182192D01*
X0206653Y0182584D02*
X0206278Y0182584D01*
X0206278Y0182977D02*
X0206653Y0182977D01*
X0206653Y0183369D02*
X0206278Y0183369D01*
X0206278Y0183761D02*
X0206653Y0183761D01*
X0206653Y0184153D02*
X0206278Y0184153D01*
X0206278Y0184546D02*
X0206653Y0184546D01*
X0206653Y0184938D02*
X0206278Y0184938D01*
X0206278Y0185330D02*
X0206653Y0185330D01*
X0206653Y0185722D02*
X0206278Y0185722D01*
X0206278Y0186114D02*
X0206653Y0186114D01*
X0206653Y0186507D02*
X0206278Y0186507D01*
X0206278Y0186899D02*
X0206653Y0186899D01*
X0206653Y0187291D02*
X0206278Y0187291D01*
X0206278Y0187683D02*
X0206653Y0187683D01*
X0206653Y0188075D02*
X0206278Y0188075D01*
X0206278Y0188468D02*
X0206653Y0188468D01*
X0206653Y0188860D02*
X0206278Y0188860D01*
X0206278Y0189252D02*
X0206653Y0189252D01*
X0206890Y0189644D02*
X0206041Y0189644D01*
X0200985Y0189644D02*
X0200136Y0189644D01*
X0200373Y0189252D02*
X0200748Y0189252D01*
X0200748Y0188860D02*
X0200373Y0188860D01*
X0200373Y0188468D02*
X0200748Y0188468D01*
X0200748Y0188075D02*
X0200373Y0188075D01*
X0200373Y0187683D02*
X0200748Y0187683D01*
X0200748Y0187291D02*
X0200373Y0187291D01*
X0200373Y0186899D02*
X0200748Y0186899D01*
X0200748Y0186507D02*
X0200373Y0186507D01*
X0200373Y0186114D02*
X0200748Y0186114D01*
X0200748Y0185722D02*
X0200373Y0185722D01*
X0200373Y0185330D02*
X0200748Y0185330D01*
X0200748Y0184938D02*
X0200373Y0184938D01*
X0200373Y0184546D02*
X0200748Y0184546D01*
X0200748Y0184153D02*
X0200373Y0184153D01*
X0200373Y0183761D02*
X0200748Y0183761D01*
X0200748Y0183369D02*
X0200373Y0183369D01*
X0200373Y0182977D02*
X0200748Y0182977D01*
X0200748Y0182584D02*
X0200373Y0182584D01*
X0200373Y0182192D02*
X0200748Y0182192D01*
X0200748Y0181800D02*
X0200373Y0181800D01*
X0200373Y0181408D02*
X0200748Y0181408D01*
X0194842Y0181408D02*
X0194467Y0181408D01*
X0194467Y0181800D02*
X0194842Y0181800D01*
X0194842Y0182192D02*
X0194467Y0182192D01*
X0194467Y0182584D02*
X0194842Y0182584D01*
X0194842Y0182977D02*
X0194467Y0182977D01*
X0194467Y0183369D02*
X0194842Y0183369D01*
X0194842Y0183761D02*
X0194467Y0183761D01*
X0194467Y0184153D02*
X0194842Y0184153D01*
X0194842Y0184546D02*
X0194467Y0184546D01*
X0194467Y0184938D02*
X0194842Y0184938D01*
X0194842Y0185330D02*
X0194467Y0185330D01*
X0194467Y0185722D02*
X0194842Y0185722D01*
X0194842Y0186114D02*
X0194467Y0186114D01*
X0194467Y0186507D02*
X0194842Y0186507D01*
X0194842Y0186899D02*
X0194467Y0186899D01*
X0194467Y0187291D02*
X0194842Y0187291D01*
X0194842Y0187683D02*
X0194467Y0187683D01*
X0194467Y0188075D02*
X0194842Y0188075D01*
X0194842Y0188468D02*
X0194467Y0188468D01*
X0194467Y0188860D02*
X0194842Y0188860D01*
X0194842Y0189252D02*
X0194467Y0189252D01*
X0194230Y0189644D02*
X0195079Y0189644D01*
X0216818Y0164543D02*
X0221220Y0164543D01*
X0221220Y0164151D02*
X0216818Y0164151D01*
X0227033Y0170818D02*
X0228615Y0170818D01*
X0228503Y0170426D02*
X0227144Y0170426D01*
X0227144Y0170034D02*
X0228503Y0170034D01*
X0232367Y0137088D02*
X0122296Y0137088D01*
X0122688Y0136696D02*
X0231975Y0136696D01*
X0231355Y0136303D02*
X0123308Y0136303D01*
X0123987Y0135911D02*
X0230676Y0135911D01*
X0229997Y0135519D02*
X0124667Y0135519D01*
X0125346Y0135127D02*
X0229317Y0135127D01*
X0228638Y0134735D02*
X0126025Y0134735D01*
X0126705Y0134342D02*
X0227959Y0134342D01*
X0226778Y0133950D02*
X0127886Y0133950D01*
X0129350Y0133558D02*
X0225314Y0133558D01*
X0223850Y0133166D02*
X0130813Y0133166D01*
X0127428Y0138265D02*
X0121120Y0138265D01*
X0120727Y0138657D02*
X0126855Y0138657D01*
X0126462Y0139049D02*
X0120335Y0139049D01*
X0119943Y0139441D02*
X0126226Y0139441D01*
X0126064Y0139833D02*
X0119551Y0139833D01*
X0119242Y0140226D02*
X0125913Y0140226D01*
X0125913Y0140618D02*
X0119016Y0140618D01*
X0118789Y0141010D02*
X0125913Y0141010D01*
X0125954Y0141402D02*
X0118563Y0141402D01*
X0118337Y0141794D02*
X0126116Y0141794D01*
X0126279Y0142187D02*
X0118110Y0142187D01*
X0117884Y0142579D02*
X0126589Y0142579D01*
X0126982Y0142971D02*
X0117657Y0142971D01*
X0117431Y0143363D02*
X0127069Y0143363D01*
X0126677Y0143755D02*
X0117204Y0143755D01*
X0163993Y0166504D02*
X0172135Y0166504D01*
X0173673Y0166896D02*
X0164385Y0166896D01*
X0164629Y0167288D02*
X0173673Y0167288D01*
X0173673Y0167680D02*
X0164791Y0167680D01*
X0164946Y0168073D02*
X0173673Y0168073D01*
X0173673Y0168465D02*
X0164946Y0168465D01*
X0164946Y0168857D02*
X0173673Y0168857D01*
X0173673Y0169249D02*
X0164907Y0169249D01*
X0164745Y0169641D02*
X0173673Y0169641D01*
X0173673Y0170034D02*
X0164582Y0170034D01*
X0164273Y0170426D02*
X0173673Y0170426D01*
X0173673Y0170818D02*
X0163881Y0170818D01*
X0163127Y0171210D02*
X0173673Y0171210D01*
X0171779Y0181800D02*
X0165983Y0181800D01*
X0166375Y0182192D02*
X0171779Y0182192D01*
X0171779Y0182584D02*
X0166768Y0182584D01*
X0167160Y0182977D02*
X0171779Y0182977D01*
X0171779Y0183369D02*
X0167552Y0183369D01*
X0167944Y0183761D02*
X0171779Y0183761D01*
X0171763Y0184153D02*
X0171779Y0184153D01*
X0172072Y0154737D02*
X0172356Y0154737D01*
X0172607Y0285809D02*
X0156072Y0285809D01*
X0156072Y0286439D01*
X0165127Y0286439D01*
X0165127Y0296558D01*
X0172607Y0296558D01*
X0172607Y0285809D01*
X0172607Y0286128D02*
X0156072Y0286128D01*
X0163946Y0287502D02*
X0163946Y0297345D01*
X0146229Y0297345D01*
X0146229Y0287502D01*
X0163946Y0287502D01*
X0163946Y0287697D02*
X0146229Y0287697D01*
X0146229Y0288090D02*
X0163946Y0288090D01*
X0163946Y0288482D02*
X0146229Y0288482D01*
X0146229Y0288874D02*
X0163946Y0288874D01*
X0163946Y0289266D02*
X0146229Y0289266D01*
X0146229Y0289658D02*
X0163946Y0289658D01*
X0163946Y0290051D02*
X0146229Y0290051D01*
X0146229Y0290443D02*
X0163946Y0290443D01*
X0163946Y0290835D02*
X0146229Y0290835D01*
X0146229Y0291227D02*
X0163946Y0291227D01*
X0163946Y0291619D02*
X0146229Y0291619D01*
X0146229Y0292012D02*
X0163946Y0292012D01*
X0163946Y0292404D02*
X0146229Y0292404D01*
X0146229Y0292796D02*
X0163946Y0292796D01*
X0163946Y0293188D02*
X0146229Y0293188D01*
X0146229Y0293580D02*
X0163946Y0293580D01*
X0163946Y0293973D02*
X0146229Y0293973D01*
X0146229Y0294365D02*
X0163946Y0294365D01*
X0163946Y0294757D02*
X0146229Y0294757D01*
X0146229Y0295149D02*
X0163946Y0295149D01*
X0163946Y0295542D02*
X0146229Y0295542D01*
X0146229Y0295934D02*
X0163946Y0295934D01*
X0163946Y0296326D02*
X0146229Y0296326D01*
X0146229Y0296718D02*
X0163946Y0296718D01*
X0163946Y0297110D02*
X0146229Y0297110D01*
X0145236Y0297110D02*
X0126977Y0297110D01*
X0126283Y0296718D02*
X0145236Y0296718D01*
X0145236Y0296326D02*
X0125604Y0296326D01*
X0124924Y0295934D02*
X0145236Y0295934D01*
X0145236Y0295542D02*
X0124245Y0295542D01*
X0123566Y0295149D02*
X0145236Y0295149D01*
X0145236Y0294757D02*
X0122886Y0294757D01*
X0122445Y0294365D02*
X0145236Y0294365D01*
X0145236Y0293973D02*
X0122053Y0293973D01*
X0121660Y0293580D02*
X0145236Y0293580D01*
X0145236Y0293188D02*
X0121268Y0293188D01*
X0120876Y0292796D02*
X0145236Y0292796D01*
X0145236Y0292404D02*
X0120484Y0292404D01*
X0120092Y0292012D02*
X0145236Y0292012D01*
X0145236Y0291619D02*
X0119699Y0291619D01*
X0119328Y0291227D02*
X0145236Y0291227D01*
X0145236Y0290835D02*
X0119102Y0290835D01*
X0118875Y0290443D02*
X0145236Y0290443D01*
X0145236Y0290051D02*
X0118649Y0290051D01*
X0118422Y0289658D02*
X0145236Y0289658D01*
X0145236Y0289266D02*
X0118196Y0289266D01*
X0117970Y0288874D02*
X0145236Y0288874D01*
X0145236Y0288482D02*
X0117743Y0288482D01*
X0117517Y0288090D02*
X0145236Y0288090D01*
X0145236Y0287697D02*
X0117290Y0287697D01*
X0128441Y0297503D02*
X0145236Y0297503D01*
X0145374Y0297895D02*
X0129905Y0297895D01*
X0131369Y0298287D02*
X0145766Y0298287D01*
X0165127Y0296326D02*
X0172607Y0296326D01*
X0172607Y0295934D02*
X0165127Y0295934D01*
X0165127Y0295542D02*
X0172607Y0295542D01*
X0172607Y0295149D02*
X0165127Y0295149D01*
X0165127Y0294757D02*
X0172607Y0294757D01*
X0172607Y0294365D02*
X0165127Y0294365D01*
X0165127Y0293973D02*
X0172607Y0293973D01*
X0172607Y0293580D02*
X0165127Y0293580D01*
X0165127Y0293188D02*
X0172607Y0293188D01*
X0172607Y0292796D02*
X0165127Y0292796D01*
X0165127Y0292404D02*
X0172607Y0292404D01*
X0172607Y0292012D02*
X0165127Y0292012D01*
X0165127Y0291619D02*
X0172607Y0291619D01*
X0172607Y0291227D02*
X0165127Y0291227D01*
X0165127Y0290835D02*
X0172607Y0290835D01*
X0172607Y0290443D02*
X0165127Y0290443D01*
X0165127Y0290051D02*
X0172607Y0290051D01*
X0172607Y0289658D02*
X0165127Y0289658D01*
X0165127Y0289266D02*
X0172607Y0289266D01*
X0172607Y0288874D02*
X0165127Y0288874D01*
X0165127Y0288482D02*
X0172607Y0288482D01*
X0172607Y0288090D02*
X0165127Y0288090D01*
X0165127Y0287697D02*
X0172607Y0287697D01*
X0172607Y0287305D02*
X0165127Y0287305D01*
X0165127Y0286913D02*
X0172607Y0286913D01*
X0172607Y0286521D02*
X0165127Y0286521D01*
D29*
X0148198Y0295376D03*
X0164340Y0264668D03*
X0232844Y0272148D03*
X0204891Y0178447D03*
D30*
X0164340Y0264668D02*
X0164340Y0270573D01*
D31*
X0131466Y0272837D02*
X0174576Y0229727D01*
X0174576Y0180022D01*
X0174576Y0178447D01*
X0204891Y0178447D01*
D32*
X0204989Y0178349D01*
X0204989Y0173034D01*
D33*
X0227135Y0248132D02*
X0233040Y0248132D01*
X0233040Y0271951D01*
X0232844Y0272148D01*
M02*
